<svg xmlns="http://www.w3.org/2000/svg" xmlns:xlink="http://www.w3.org/1999/xlink" viewBox="0 0 152.96 246.98"><defs><style>.cls-1,.cls-10,.cls-11,.cls-33,.cls-37{fill:none;}.cls-2{isolation:isolate;}.cls-3{fill:#a24323;}.cls-4{fill:#6e5546;opacity:0.33;mix-blend-mode:difference;}.cls-5{fill:#b45327;}.cls-6{fill:#c46a32;}.cls-7{fill:url(#linear-gradient);}.cls-8{opacity:0.55;}.cls-35,.cls-8,.cls-9{mix-blend-mode:soft-light;}.cls-10,.cls-18,.cls-33{stroke:#000;}.cls-10{stroke-width:0.8px;}.cls-11,.cls-37{stroke:#231f20;stroke-miterlimit:10;}.cls-11{stroke-width:0.82px;}.cls-12{fill:url(#linear-gradient-2);}.cls-13{fill:#cdced1;}.cls-14,.cls-35{fill:#fff;}.cls-15{fill:url(#linear-gradient-3);}.cls-16{fill:url(#linear-gradient-4);}.cls-17{fill:url(#linear-gradient-5);}.cls-18{stroke-width:2.46px;fill:url(#linear-gradient-6);}.cls-19{fill:url(#linear-gradient-7);}.cls-20{clip-path:url(#clip-path);}.cls-21{fill:url(#linear-gradient-8);}.cls-22{clip-path:url(#clip-path-2);}.cls-23{fill:url(#linear-gradient-9);}.cls-24{clip-path:url(#clip-path-3);}.cls-25{fill:url(#linear-gradient-10);}.cls-26{fill:url(#linear-gradient-11);}.cls-27{fill:url(#linear-gradient-12);}.cls-28{clip-path:url(#clip-path-4);}.cls-29{fill:url(#linear-gradient-13);}.cls-30{fill:#fbb03b;}.cls-31{fill:#f3ea3e;}.cls-32{fill:url(#linear-gradient-14);}.cls-33{stroke-width:3.2px;}.cls-34{clip-path:url(#clip-path-5);}.cls-36{fill:url(#linear-gradient-15);}.cls-37{stroke-width:1.64px;}</style><linearGradient id="linear-gradient" x1="65.57" y1="82.28" x2="113.57" y2="194.96" gradientUnits="userSpaceOnUse"><stop offset="0" stop-color="#9ec245"/><stop offset="1" stop-color="#578a21"/></linearGradient><linearGradient id="linear-gradient-2" x1="49.88" y1="88.04" x2="54.69" y2="100.99" gradientUnits="userSpaceOnUse"><stop offset="0" stop-color="#fff"/><stop offset="1" stop-color="#b0b0b0"/></linearGradient><linearGradient id="linear-gradient-3" x1="47.87" y1="80.56" x2="50.09" y2="88.46" gradientUnits="userSpaceOnUse"><stop offset="0" stop-color="#9dc145"/><stop offset="1" stop-color="#578a3e"/></linearGradient><linearGradient id="linear-gradient-4" x1="79.03" y1="78.41" x2="86.3" y2="93.56" xlink:href="#linear-gradient-2"/><linearGradient id="linear-gradient-5" x1="75.76" y1="66.9" x2="78.27" y2="75.06" xlink:href="#linear-gradient-3"/><linearGradient id="linear-gradient-6" x1="55.96" y1="-13885.04" x2="103.69" y2="-13885.04" gradientTransform="matrix(1, 0, 0, -1, 0, -13744.7)" xlink:href="#linear-gradient-3"/><linearGradient id="linear-gradient-7" x1="88.9" y1="-13862.89" x2="69.4" y2="-13915.71" gradientTransform="matrix(1, 0, 0, -1, 0, -13744.7)" gradientUnits="userSpaceOnUse"><stop offset="0" stop-color="#8e1a40"/><stop offset="0.95" stop-color="#d9457b"/><stop offset="1" stop-color="#dd477f"/></linearGradient><clipPath id="clip-path"><path class="cls-1" d="M80.49,134.05s7.33-10.2,14.84-10.76,2.12,5.84,2.41,8,2.81,8.3,1.49,9.92-16,2.53-18.68.35S80.49,134.05,80.49,134.05Z"/></clipPath><linearGradient id="linear-gradient-8" x1="93.81" y1="-13872.44" x2="88.52" y2="-13885.75" gradientTransform="matrix(1, 0, 0, -1, 0, -13744.7)" gradientUnits="userSpaceOnUse"><stop offset="0" stop-color="#8e1a40"/><stop offset="1" stop-color="#dd477f"/></linearGradient><clipPath id="clip-path-2"><path class="cls-1" d="M75.67,135.74s-13.06-1.47-17,1.4,1.55,6.13,2.07,8.31,1.43,9.57,6.19,7,12-11,12-11Z"/></clipPath><linearGradient id="linear-gradient-9" x1="74.2" y1="-13883.38" x2="61.09" y2="-13890.39" xlink:href="#linear-gradient-8"/><clipPath id="clip-path-3"><path class="cls-1" d="M77.62,134s-3.38-.36-3.27,1.62,1.32,7.45,4.07,7.52,3.84-3.16,3.73-6.18S81.52,130.68,77.62,134Z"/></clipPath><linearGradient id="linear-gradient-10" x1="78.91" y1="-13877.83" x2="77.17" y2="-13887.71" xlink:href="#linear-gradient-8"/><linearGradient id="linear-gradient-11" x1="75.24" y1="-13879.8" x2="80.82" y2="-13865.59" gradientTransform="matrix(1, 0, 0, -1, 0, -13744.7)" xlink:href="#linear-gradient-2"/><linearGradient id="linear-gradient-12" x1="24.81" y1="34.3" x2="112.26" y2="34.3" xlink:href="#linear-gradient-2"/><clipPath id="clip-path-4"><path class="cls-1" d="M31.2,64.16s2.66-30.56-4.71-48.91c0,0,2.46-11,43.58-12s40.59,11.69,40.59,11.69-10.86,35.57-7.17,48.49L66.06,65.39Z"/></clipPath><linearGradient id="linear-gradient-13" x1="99.57" y1="59.59" x2="33.34" y2="50.19" gradientTransform="matrix(1, 0, 0, 1, 0, 0)" xlink:href="#linear-gradient-8"/><linearGradient id="linear-gradient-14" x1="1.6" y1="67.2" x2="128.9" y2="67.2" xlink:href="#linear-gradient-2"/><clipPath id="clip-path-5"><path class="cls-1" d="M128.3,59.44c-1.7-4.86-11.78-3.39-25.53-.94-.75-15.29,7.89-43.56,7.89-43.56s.52-12.72-40.59-11.69-43.58,12-43.58,12c5.91,14.7,5.38,37.19,4.93,45.59C13.89,58.29.58,56.36,1.66,66.52,2.8,77,33.53,78.17,33.53,78.17l-1-11.35a239.77,239.77,0,0,0,33.08.72c17.12-.93,36.1-2.77,36.1-2.77l.13,12C113.67,75.47,132.5,71.54,128.3,59.44Z"/></clipPath><linearGradient id="linear-gradient-15" x1="38.52" y1="121.9" x2="51.3" y2="149.92" xlink:href="#linear-gradient-3"/></defs><title>Fichier 1</title><g class="cls-2"><g id="Calque_2" data-name="Calque 2"><g id="icones_site"><path class="cls-3" d="M85.07,219l20,22.32c2.24,3.74,11.92,2.1,21.62-3.7s15.76-13.53,13.52-17.28L130,190.76Z"/><path class="cls-4" d="M116.45,199.3l4.05,6.56s2.09-2.05,4-4l11.65,25.88s-.75,4.21-8.29,9.23c9-5.7,14.55-13,12.4-16.59L130,190.76Z"/><path class="cls-5" d="M132.63,189.71a8.64,8.64,0,0,0,.1-3.24l-4.79-10L124,182.57c-6.59.06-16.1,3.18-25.61,8.86-8.29,4.94-14.85,10.79-18.52,16l-8.41,2.66,6.43,9a4.82,4.82,0,0,0,.5.34c1.91,1.66,5.24,2.22,9.42,1.77,5.68-.34,14-2.65,25.39-10,0,0,1.08-.72,2.74-1.94C125.41,202.72,131.78,195.15,132.63,189.71Z"/><path class="cls-4" d="M132.63,189.71a8.64,8.64,0,0,0,.1-3.24l-4.79-10L124,182.57a28.27,28.27,0,0,0-4.1.38c-2.77,6.65-5.36,13.24-5.36,13.24l6,9.68a23.89,23.89,0,0,0,4.34-3.38l-.23-.31C129.18,197.69,132.07,193.25,132.63,189.71Z"/><path class="cls-6" d="M127.93,176.44c3.59,6-6.13,18.46-21.73,27.76s-31.15,12-34.75,5.93,6.13-18.46,21.73-27.76S124.33,170.41,127.93,176.44Z"/><path d="M124,178.81c2.64,4.43-6.09,14.48-19.48,22.48s-26.4,10.89-29,6.47,6.08-14.49,19.48-22.48S121.31,174.39,124,178.81Z"/><path class="cls-3" d="M96.6,188.14c11.94-7.12,23.55-10.19,27.81-7.65a3.41,3.41,0,0,0-.46-1.68c-2.64-4.43-15.64-1.53-29,6.46S72.8,203.33,75.44,207.76a3.41,3.41,0,0,0,1.22,1.18C76.49,204,84.69,195.24,96.6,188.14Z"/><path d="M119.87,173.21c3.88,0,6.75,1,8.06,3.23a5.67,5.67,0,0,1,.35.74l4.44,9.28a8.64,8.64,0,0,1-.1,3.24,13.72,13.72,0,0,1-1.51,4.19l9.13,26.49c2.24,3.75-3.81,11.5-13.52,17.28-6.19,3.69-12.37,5.7-16.61,5.7-2.41,0-4.2-.65-5-2l-18-20q-1,.08-1.95.08c-2.94,0-5.29-.61-6.78-1.91a4.82,4.82,0,0,1-.5-.34l-6-8.42a5.61,5.61,0,0,1-.44-.6c-3.59-6,6.13-18.46,21.73-27.76,9.94-5.93,19.87-9.16,26.69-9.16m0-3.61c-7.72,0-18.39,3.62-28.54,9.67-15.57,9.28-28.47,23.5-23,32.7a9.16,9.16,0,0,0,.66.94l5.93,8.33.29.4.38.31a7.5,7.5,0,0,0,.65.46c2.11,1.72,5.1,2.59,8.9,2.59h.41l16.66,18.56c1.11,1.63,3.37,3.41,7.88,3.41,5.12,0,11.85-2.26,18.46-6.21,9.77-5.83,18.5-15.08,15-21.85L135,194.12a15.82,15.82,0,0,0,1.17-3.77,12.21,12.21,0,0,0,.1-4.51l-.09-.49-.21-.45-4.39-9.19a9,9,0,0,0-.54-1.1c-1.37-2.3-4.41-5-11.17-5Z"/><path d="M132.73,186.46s2.52,12-25.58,28.51A53.85,53.85,0,0,0,134.31,194Z"/><polygon points="121.19 241.29 112.88 239.26 114.25 232.69 109.43 231.94 112.57 224.62 106.29 222.8 106.05 219.09 107.24 221.83 110.76 222.93 111.69 220.75 109.38 217.97 109.93 216.56 110.06 217.72 112.36 220.49 111.61 222.99 114.31 223.6 111.5 231.01 115.82 231.37 114.45 238.21 125.66 239.08 121.19 241.29"/><polygon points="111.61 222.99 116.65 223.97 118.28 221.7 120.67 221.21 122.42 217.51 121.59 219.85 123.24 219.16 124.76 220.12 123.19 219.53 121.37 220.31 120.86 221.43 118.44 222.09 116.8 224.35 114.09 224.15 111.61 222.99"/><path class="cls-7" d="M89.67,204.49a4.9,4.9,0,0,1-3.6-1.27C84.83,202,73.89,185,64,165.41c-5.46,2.46-13.06,5.09-20.6,5.09-.81,0-1.62,0-2.39-.09-5.84-.46-10.45-2.78-13.69-6.89C21.9,156.71,22,147,22.49,143.89c0-.24.08-.53.12-.88,2-14.68,8.94-24.4,20.71-28.91-.11-.32-.2-.58-.26-.8h0c-.57-1.54-13.8-38.18-6.19-68.93C42.09,23.23,55,10.61,71.3,10.61a29.51,29.51,0,0,1,5.83.58c15.39,3.11,23.3,25.28,23.16,45.58,0,3.91-.18,38.41,3.33,72.28,2.61-1.77,4.08-3.49,4.2-4.94.05-.67.08-1.58.11-2.69.28-9.26.93-30.94,17.79-33.31a24,24,0,0,1,3.31-.24c15.56,0,20.12,16.37,20.5,22.11l.05.7c1.37,17.25-5.84,29.63-21.44,36.8a98.63,98.63,0,0,1-20.89,7.31c1.33,6.38,3.09,14.22,3.11,14.31A81.66,81.66,0,0,0,115,182.43a8,8,0,0,1,.3,5.83c-1.19,4-4.94,7.7-11.12,11-6.69,3.54-11.45,5.26-14.54,5.26Z"/><path d="M71.3,12.22a27.82,27.82,0,0,1,5.51.55c14.53,2.93,22,24.77,21.87,44-.09,11.12.22,44.07,3.61,75,3.51-2,6.9-4.62,7.13-7.52.46-6.12-1-32.07,16.52-34.53a22.21,22.21,0,0,1,3.09-.22c14.9,0,18.63,16.54,18.89,20.6.28,4.33,3.15,25.09-20.45,35.93-10.07,4.63-17.22,6.67-22.13,7.49,1.36,6.67,3.45,15.94,3.45,15.94a83.22,83.22,0,0,0,4.82,13.7s4,7.2-10.14,14.66c-7.31,3.87-11.44,5.07-13.79,5.07a3.32,3.32,0,0,1-2.47-.8c-.93-.93-12.29-18.42-22.5-38.78-6.76,3.22-14.38,5.59-21.34,5.59q-1.15,0-2.26-.09c-17.6-1.4-17.69-20.38-17-24.67.61-3.89,1.87-22.59,21.3-29.06l-.83-2.31h0s-13.73-37.33-6.13-68C44.19,21.45,58.25,12.22,71.3,12.22M71.3,9h0A31.73,31.73,0,0,0,50,17.35C43.1,23.48,38.15,32.45,35.29,44c-7.27,29.35,4.1,63.8,6,69.2a31.63,31.63,0,0,0-15.9,14.76A43.85,43.85,0,0,0,21,142.79c0,.33-.08.61-.12.84-.52,3.35-.62,13.62,5.12,20.88,3.53,4.47,8.52,7,14.82,7.49.82.07,1.67.1,2.52.1,7.19,0,14.39-2.28,19.86-4.62,9.41,18.34,20.2,35.35,21.7,36.86a6.45,6.45,0,0,0,4.75,1.75c3.41,0,8.27-1.73,15.3-5.44,6.58-3.48,10.59-7.49,11.91-11.93a9.73,9.73,0,0,0-.38-7,80.06,80.06,0,0,1-4.6-13.07c-.16-.71-1.56-7-2.77-12.65a105.13,105.13,0,0,0,19.66-7.09c10.38-4.77,17.3-11.93,20.54-21.26a41.12,41.12,0,0,0,1.82-17.12c0-.26,0-.49-.05-.68-.4-6.12-5.31-23.61-22.1-23.61a25.56,25.56,0,0,0-3.53.25c-5.49.77-12.81,4.1-16.53,15.55-2.27,7-2.5,14.7-2.64,19.3,0,1.07-.06,2-.11,2.61,0,.12-.11.81-1.29,2-3.2-32.81-3.05-65.39-3-69.17.15-21-8.2-43.89-24.45-47.17A31.1,31.1,0,0,0,71.3,9Z"/><g id="S" class="cls-8"><path d="M107,128.45l.93-.92s-5.56,5.21-5.08,10.41c0,0-.37-4.27-.87-9.59Z"/><path d="M85.46,95.9a18.77,18.77,0,0,1-2.33.56q.32,4,.65,8A20.17,20.17,0,0,0,86,102.72Q85.75,99.31,85.46,95.9Z"/><path d="M132.91,92.05a39.8,39.8,0,0,1,3.64,7.73,36.42,36.42,0,0,1,1.89,8.38,27.87,27.87,0,0,1-.45,8.63,20.24,20.24,0,0,1-1.35,4.16,19.8,19.8,0,0,1-2.3,3.74,30.61,30.61,0,0,1-6.36,6,52.47,52.47,0,0,1-7.47,4.42,76.88,76.88,0,0,1-8,3.35,69.12,69.12,0,0,1-8.36,2.42l-.46-2.42a66.1,66.1,0,0,0,8.14-2,72.76,72.76,0,0,0,7.88-3,50.91,50.91,0,0,0,7.38-4,29.25,29.25,0,0,0,6.27-5.47,18.36,18.36,0,0,0,2.29-3.44,19,19,0,0,0,1.43-3.91,27.05,27.05,0,0,0,.74-8.36,35.71,35.71,0,0,0-1.57-8.33A39.5,39.5,0,0,0,132.91,92.05Z"/><path d="M67.39,102.58c-.68-4.36-1.27-8.73-1.82-13.12A46.31,46.31,0,0,1,63,84.68c.85,9.12,1.95,18.23,3.5,27.28.89-.16,1.68-.34,2.35-.52Q68.06,107,67.39,102.58Z"/><path d="M131.17,92.66a4.67,4.67,0,0,0-3.18,1,9,9,0,0,0-2.27,2.47,21.46,21.46,0,0,0-2.54,6.24,50.82,50.82,0,0,0-1.43,13.44c0,2.27.21,4.52.11,6.89a11.06,11.06,0,0,1-.7,3.61,7.61,7.61,0,0,1-2.28,3.06,19.16,19.16,0,0,1-6.48,3.1c-2.23.68-6.09,1.41-8.35,1.87l1.17-2.65c2.23-.34,4.44-.74,6.59-1.29a17.33,17.33,0,0,0,5.91-2.48,5.79,5.79,0,0,0,1.87-2.28,9.32,9.32,0,0,0,.72-3.05c.2-2.19.11-4.49.19-6.78a51.72,51.72,0,0,1,2.07-13.6,21.92,21.92,0,0,1,2.88-6.25,9.34,9.34,0,0,1,2.45-2.42A4.73,4.73,0,0,1,131.17,92.66Z"/><path d="M65.29,166.18l-.51-2.77-4.67-8.76s2.93,8.76,2.41,9.89S65.29,166.18,65.29,166.18Z"/><path d="M107.68,157l-2.31-3.38-1.64-9.49s1.44,3.95,2.1,6,1.53,3.38,4.1,2.61S107.68,157,107.68,157Z"/><path d="M149.93,109.17c-2.87-13.33-9.84-21.16-21.32-20.75,0,0,17.42,3.21,14.08,28.84-3,22.76-29.11,25.47-38.34,27.61l-.76-3.21C103,136.87,102,128,101.75,122.6c-.29-7.07-2.14-57.21-2.14-57.21l-7.85.91c-3-3.08-6.93-3.73-11.57-3.73-5.4,0-10,1.33-13.06,5.34H63.74l-30-1,.54,8.92s16.71,1,29.43-1l.54-.08A16.52,16.52,0,0,0,94.6,87.17c.5,14.26,1.24,35,2.48,47.95l-7.57,2c-.16-1.36-.33-2.73-.48-4.1q-1.2-10.48-2.14-21c-.06-.65-.11-1.3-.18-2a19.47,19.47,0,0,1-2.34,1.45c0,.24,0,.49.07.73q.64,6.66,1.38,13.32a12,12,0,0,0-2.18-3l1.28.05a8,8,0,0,0-6.72-5.9S74.93,118,72.72,123s4.93,7.43,6.56,11.33a5.86,5.86,0,0,1-1.43,6.56l.13,0-2,1.19c0-.11-.07-.22-.1-.34-1.76-6.45-3.44-12.94-4.89-19.45-.32-1.4-.6-2.8-.89-4.21a10.11,10.11,0,0,1-2.39.46c.29,1.43.57,2.85.88,4.28Q71,133.15,73.92,143.3l-5.2,3.09L57.13,148l-.3-.62-5.33,3.18s-6.57,4.62-8.3,4-2.38.24-.48,1.13-5,3.38-9-.82l-2.14,1.21c3.28,5.8,9.34,7.21,14.47,7.21a52.67,52.67,0,0,0,9.6-1.21c-3.55,6.89-16.75,9.07-16.75,9.07,9,2,24.71-4.82,24.71-4.82L70.87,179s-5.33-11.28-7.69-17.33c-.36-.93-.76-1.91-1.18-2.89l1.28-.39s2,.61,6.47-1.64a28.34,28.34,0,0,0,6.56-5.47q1.63,5.19,3.37,10.33,3.23,9.55,7,18.92c1.28,3.12,2.59,6.21,4,9.26a56.87,56.87,0,0,0,4.74,8.89,33.83,33.83,0,0,1-2.23-4.5c-.67-1.53-1.3-3.09-1.92-4.64-1.22-3.13-2.36-6.27-3.45-9.43-2.22-6.32-4.29-12.7-6.27-19.09Q79.73,155.22,78,149.4c1.71-1.91,2.89-3.42,2.89-3.42l3.18-.72a15,15,0,0,0,4.56,1.62c.4,2.46.8,4.92,1.25,7.37a177.45,177.45,0,0,0,5,20.63c1.08,3.37,2.26,6.71,3.59,10a65.18,65.18,0,0,0,4.65,9.5,104.34,104.34,0,0,1-7.09-19.82,206.51,206.51,0,0,1-4.28-20.61q-.51-3.35-1-6.7l.76.07a49.4,49.4,0,0,1,7.62,1.54c2.55,14.42,5,34.91,12.58,46.14,0,0,5.54-6,3.38-12.81s-7.9-27.9-7.9-27.9,21.53-4.3,29-11.07S152.8,122.5,149.93,109.17ZM83.07,138.83a10.23,10.23,0,0,0,3.68-5.38q.26,2.13.56,4.26Z"/></g><circle class="cls-9" cx="37.86" cy="57.04" r="1.17"/><circle class="cls-9" cx="39.19" cy="61.31" r="1.17"/><line class="cls-10" x1="28.26" y1="58.65" x2="39.2" y2="61.31"/><line class="cls-10" x1="30.39" y1="54.91" x2="37.86" y2="57.04"/><line class="cls-10" x1="53.59" y1="10.12" x2="58.66" y2="18.92"/><line class="cls-10" x1="58.66" y1="8.78" x2="60.26" y2="16.52"/><line class="cls-10" x1="95.45" y1="47.98" x2="104.52" y2="43.71"/><line class="cls-10" x1="97.59" y1="90.11" x2="106.12" y2="90.91"/><line class="cls-10" x1="97.32" y1="92.77" x2="104.52" y2="95.71"/><line class="cls-10" x1="74.65" y1="179.43" x2="69.32" y2="183.96"/><line class="cls-10" x1="73.32" y1="176.76" x2="67.72" y2="178.9"/><line class="cls-10" x1="140.3" y1="132.35" x2="146.17" y2="136.88"/><line class="cls-10" x1="143.24" y1="130.48" x2="152.84" y2="133.68"/><line class="cls-10" x1="140" y1="95.3" x2="146.4" y2="88.63"/><line class="cls-10" x1="137.34" y1="92.9" x2="139.47" y2="86.5"/><circle class="cls-9" cx="97.59" cy="90.11" r="1.16"/><circle class="cls-9" cx="97.59" cy="92.81" r="1.16"/><circle class="cls-9" cx="73.29" cy="176.9" r="1.17"/><circle class="cls-9" cx="140.61" cy="132.48" r="1.17"/><path class="cls-9" d="M144.58,130.68a1.17,1.17,0,1,1-1.17-1.17A1.17,1.17,0,0,1,144.58,130.68Z"/><circle class="cls-9" cx="74.49" cy="179.4" r="1.17"/><ellipse class="cls-9" cx="106.58" cy="172.22" rx="1.17" ry="1.16"/><path class="cls-9" d="M110.31,175.6a1.17,1.17,0,1,1-1.17-1.17A1.16,1.16,0,0,1,110.31,175.6Z"/><circle class="cls-9" cx="111.58" cy="149.94" r="1.17"/><path class="cls-9" d="M117.4,98.27a1.17,1.17,0,1,1-1.17-1.17A1.17,1.17,0,0,1,117.4,98.27Z"/><circle class="cls-9" cx="113.91" cy="100.32" r="1.17"/><circle class="cls-9" cx="41.04" cy="98.71" r="1.16"/><circle class="cls-9" cx="40.02" cy="95.53" r="1.17"/><circle class="cls-9" cx="38.48" cy="167.1" r="1.17"/><circle class="cls-9" cx="36.63" cy="166.38" r="1.17"/><circle class="cls-9" cx="137.2" cy="92.97" r="1.17"/><circle class="cls-9" cx="140.1" cy="95.07" r="1.17"/><circle class="cls-9" cx="95.55" cy="47.75" r="1.17"/><circle class="cls-9" cx="60.26" cy="16.45" r="1.17"/><circle class="cls-9" cx="58.66" cy="18.95" r="1.17"/><line class="cls-11" x1="116.23" y1="98.27" x2="110.76" y2="92.25"/><line class="cls-11" x1="113.91" y1="100.32" x2="108.44" y2="100.32"/><line class="cls-11" x1="111.58" y1="149.94" x2="113.77" y2="156.64"/><line class="cls-11" x1="106.66" y1="172.22" x2="115.68" y2="168.81"/><line class="cls-11" x1="109.12" y1="175.64" x2="115.55" y2="176.05"/><line class="cls-11" x1="36.67" y1="166.48" x2="33.94" y2="170.87"/><line class="cls-11" x1="38.45" y1="167.17" x2="38.17" y2="172.5"/><line class="cls-11" x1="41.45" y1="98.95" x2="33.79" y2="100.05"/><line class="cls-11" x1="39.95" y1="95.54" x2="29.83" y2="92.53"/><path class="cls-12" d="M50.31,98.29a9.07,9.07,0,1,1,9.07-9.07A9.07,9.07,0,0,1,50.31,98.29Z"/><path d="M50.31,81.76a7.47,7.47,0,1,1-7.46,7.47,7.47,7.47,0,0,1,7.46-7.47m0-3.2A10.67,10.67,0,1,0,61,89.23,10.67,10.67,0,0,0,50.31,78.56Z"/><g class="cls-9"><ellipse cx="51.43" cy="89.7" rx="11.04" ry="11.54"/></g><path class="cls-13" d="M50.31,81.72a7.28,7.28,0,0,0-1.11.09,6.21,6.21,0,1,1-6,9.89,7.49,7.49,0,1,0,7.06-10Z"/><circle cx="54.72" cy="90.1" r="2.4"/><circle class="cls-14" cx="53.44" cy="88.82" r="1.12"/><path class="cls-15" d="M39.76,91.43a10.76,10.76,0,0,1,20.93-5C47.09,88.46,39.76,91.43,39.76,91.43Z"/><path d="M38.48,92.2a14.27,14.27,0,0,1,5.17-3.46,30.52,30.52,0,0,1,5.91-1.82,37.34,37.34,0,0,1,6.1-.73,29.3,29.3,0,0,1,6.15.37c-2,.66-3.95,1.1-5.91,1.55L50,89.33c-1.94.4-3.87.79-5.8,1.24A44.19,44.19,0,0,0,38.48,92.2Z"/><polygon points="55.88 72.08 35.73 81.2 32.52 74.11 52.68 64.99 55.88 72.08"/><path class="cls-16" d="M78.85,91.36a13.33,13.33,0,1,1,12.51-18A13.19,13.19,0,0,1,92.18,78,13.35,13.35,0,0,1,78.85,91.36Z"/><path d="M78.85,66.3a11.73,11.73,0,0,1,11,7.66A11.6,11.6,0,0,1,90.58,78,11.73,11.73,0,1,1,78.85,66.3m0-3.2A14.93,14.93,0,1,0,93.78,78a14.79,14.79,0,0,0-.93-5.19,15,15,0,0,0-14-9.74Z"/><path class="cls-13" d="M78.85,66.3a11.71,11.71,0,0,0-1.73.14A9.73,9.73,0,1,1,67.8,81.94a11.73,11.73,0,1,0,11-15.65Z"/><circle cx="86.28" cy="78.33" r="4"/><circle class="cls-14" cx="84.15" cy="76.19" r="1.87"/><path class="cls-17" d="M63.86,78.57C63.14,70.26,70.6,62.91,79,62.91A15.37,15.37,0,0,1,93.33,73.64S77.55,72.59,63.86,78.57Z"/><path d="M61.41,79.75a34.54,34.54,0,0,1,8.24-4,53,53,0,0,1,8.89-2.19c1.51-.22,3-.4,4.56-.51s3.05-.17,4.58-.11a41.14,41.14,0,0,1,9.07,1.1l-9,.82c-3,.32-5.91.66-8.84,1.14s-5.84,1-8.76,1.61S64.35,78.95,61.41,79.75Z"/><rect x="76.93" y="47.07" width="8.61" height="29.26" transform="translate(9.33 134.06) rotate(-82.4)"/><path d="M60.59,114.95l6.57,1.64s33.22-3.42,29.66-34.86C96.82,81.73,94.08,112.35,60.59,114.95Z"/><path class="cls-18" d="M100.89,131.66c-1.38-3.45.86-8.09.86-8.09a21.2,21.2,0,0,0-2.71.69c-.47-.72-1.56-1.13-3.71-1-6.05.45-12,7.17-14.07,9.76-.63-.73-1.73-.69-3.64.94,0,0-3.38-.36-3.27,1.62h0c-3.41-.29-12.5-.79-15.65,1.53a2.66,2.66,0,0,0-1.26,3.11c-1,.25-1.49.34-1.49.34a23.87,23.87,0,0,0,5.62,11.25,6.72,6.72,0,0,1,1.84,5.56c4.29-1.55,11.69-9.71,12.78-11.89a17.13,17.13,0,0,1,1.6-2.52,1.88,1.88,0,0,0,.63.13,2.88,2.88,0,0,0,2.23-.92c2.53,1.17,8.2,2,12.22,1.63A33.89,33.89,0,0,1,103.69,145S102.27,135.11,100.89,131.66Z"/><path class="cls-19" d="M81.12,134.05s12.26-9,20.63-10.48c0,0-2.24,4.64-.86,8.09s2.81,13.3,2.81,13.3a33.89,33.89,0,0,0-10.83-1.13c-5.22.5-13.24-1.06-13.53-2.74a23.2,23.2,0,0,0-3.15,4.43c-1.09,2.18-8.49,10.34-12.78,11.89a6.72,6.72,0,0,0-1.84-5.56A23.87,23.87,0,0,1,56,140.6a46.7,46.7,0,0,0,6.54-1.9,50.54,50.54,0,0,1,14.78-2.46C82,136.17,81.12,134.05,81.12,134.05Z"/><path class="cls-9" d="M78.22,137.43s18.53-14.22,20.17-13.53,3.89-2.32,3.55.41-2,4.24-.2,7.73,2.18,13.26,2.18,13.26a16,16,0,0,0-8.21-1.1c-4,.75-12.64-.14-14.56-.82a3,3,0,0,0-3.07.48s-6.21,8.75-9.09,10.93a27.27,27.27,0,0,1-6.22,3.42,5.12,5.12,0,0,0-1.1-5.13,13.4,13.4,0,0,1-2.73-5.6l12.44-4.17Z"/><path class="cls-8" d="M78.22,137.43s18.53-14.22,20.17-13.53,3.89-2.32,3.55.41-2,4.24-.2,7.73,2.18,13.26,2.18,13.26a16,16,0,0,0-8.21-1.1c-4,.75-12.64-.14-14.56-.82a3,3,0,0,0-3.07.48s-6.21,8.75-9.09,10.93a27.27,27.27,0,0,1-6.22,3.42,5.12,5.12,0,0,0-1.1-5.13,13.4,13.4,0,0,1-2.73-5.6l12.44-4.17Z"/><g class="cls-20"><path class="cls-21" d="M80.49,134.05s7.33-10.2,14.84-10.76,2.12,5.84,2.41,8,2.81,8.3,1.49,9.92-16,2.53-18.68.35S80.49,134.05,80.49,134.05Z"/><path class="cls-9" d="M79.63,141.67S79.46,140.31,85,140s16.23,0,14.08,1.3-5.61,2.64-11,2.46A18.19,18.19,0,0,1,79.63,141.67Z"/><path class="cls-8" d="M94.8,122.05a3.06,3.06,0,0,1,1.27,3.08c-.41,2-4.27,7.72-4.27,7.72s3.52-2.53,4.13-1.26-3,4.92-5.71,5.47a41,41,0,0,0-10.22,4c-3.34,1.84,8.41,2.94,13.77,2.42s8-2,8-2l-1.54-18.59Z"/><path class="cls-9" d="M81,135.52a7.33,7.33,0,0,1,3.49-3.08S82,135.39,83.18,136s3.89-.38,3.89-.38-3.52,3.21-5.26,3.56S81,135.52,81,135.52Z"/></g><g class="cls-22"><path class="cls-23" d="M75.67,135.74s-13.06-1.47-17,1.4,1.55,6.13,2.07,8.31,1.43,9.57,6.19,7,12-11,12-11Z"/><path class="cls-9" d="M78.67,142.08s-3.83-.17-11.31,5.23-2.32,7.11,1,5.2S78.67,142.08,78.67,142.08Z"/><path class="cls-8" d="M74.94,137s-.34-1-3.52-.82c0,0,3.25,1.16,2.94,2.36s-4.1,4.48-4.1,4.48,4.1-2.08,4.61-3.42c0,0-.69,3-5.81,5.5s-9.33,9.74-2,8.31,12.34-10.87,12.34-10.87Z"/></g><g class="cls-24"><path class="cls-25" d="M77.62,134s-3.38-.36-3.27,1.62,1.32,7.45,4.07,7.52,3.84-3.16,3.73-6.18S81.52,130.68,77.62,134Z"/><path class="cls-9" d="M74.8,139.08l-.15-1.31s1.72,4.1,3,4.1,3.48-3.61,3.48-3.61-.92,2.56-.05,2.18,1.49-3.31-.08-4.67a7.57,7.57,0,0,0-3.23-1.66s2.59-.23,3.28.41a5.9,5.9,0,0,1,1.77,4.08c0,1.94.18,4-1.77,4.64a9.29,9.29,0,0,1-4.41,0Z"/></g><path d="M74.21,134.91l-.42.31,0,.21s0,.4.12,1a11.82,11.82,0,0,0-2-.31,10.47,10.47,0,0,1,2.15,1.1,16,16,0,0,0,.41,1.63,6.88,6.88,0,0,1-1.78,2.5,19.78,19.78,0,0,0,2.09-1.61,9.11,9.11,0,0,0,1.49,2.59A28.23,28.23,0,0,0,70.5,145c-3.69,2.12-6.89,4.49-6.8,6.55,0-.62.31-1.57,1.73-2.62,2.52-1.87,9.72-5.91,11.48-5.83a59.93,59.93,0,0,1-7,7c-3.08,2.36-5.28,3.93-7,1.35A14.27,14.27,0,0,1,61,145.54l-.31.09s.77,7.06,4.09,7.47c3.06.38,11.23-8.44,12.44-9.76a3.91,3.91,0,0,0,.5.34l0-.67S74.77,140.8,74.21,134.91Z"/><path d="M77.32,133.45l-.36.48a4,4,0,0,0,.66.06,3.46,3.46,0,0,1,1.89.49,4.51,4.51,0,0,0-1.51-.94C77.25,133.32,77.32,133.45,77.32,133.45Z"/><path d="M63.9,152.34a2,2,0,0,1-.2-.79A1.55,1.55,0,0,0,63.9,152.34Z"/><path d="M97.87,131.3c0-1.21,1-3.2,1.29-4s.84-2.34.26-3.55l-.72.17a1.83,1.83,0,0,1,.41,1.73,34.13,34.13,0,0,1-2.21,5.54,19.75,19.75,0,0,0-1.59,3.91s1.47-3.27,2-3S98.65,135,98.94,137s.86,3.73-.72,4.67-13.75,1.39-16.51.08a5.57,5.57,0,0,0,.47-1.18,47.83,47.83,0,0,1,6-.37c4.31-.05,10.72-.07,10.38,1,0,0,1-.89-3.26-1.11a93,93,0,0,0-13,.08,7.43,7.43,0,0,0,.13-1.65,4.49,4.49,0,0,0,1.74-1.28,7.31,7.31,0,0,1-1.79.72v0l0,0a.38.38,0,0,1-.3,0l.09.22-.12.1a6.08,6.08,0,0,1-1.35,4l-.55.58.65.17a5.53,5.53,0,0,0,.63-.74A11.42,11.42,0,0,0,86,143c3.55.09,12.11.07,13.43-1.95S97.87,132.51,97.87,131.3Z"/><path class="cls-26" d="M72.82,118.5s-3.59,5,.3,9.23,7.28,1.74,7.8,5.54-2.37,6.87-2.37,6.87,9.23-4.1,6.26-12.3-6.36-8.92-6.36-8.92,4.1.72,5,2.67c0,0,0-3-5.23-5.23"/><path d="M86.1,129.66a9.36,9.36,0,0,0-.43-1.74c-.2-.57-.39-1.06-.62-1.59a27,27,0,0,0-1.5-3.06,15.81,15.81,0,0,0-2-2.81l-.07-.07a17.74,17.74,0,0,1,2.09,1.42c.09-1.47-1.4-3.21-1.91-3.63a11.79,11.79,0,0,0-3.43-1.84,13.58,13.58,0,0,1,3.17,2.15,5.75,5.75,0,0,1,1.68,2.32,15.07,15.07,0,0,0-4.88-2.07c.11,0,4.08,1.57,6,8.2,1.19,4.17.42,7.21-.82,8.84a22.33,22.33,0,0,1-3.69,3.44,12.08,12.08,0,0,0,2-5.4,3.56,3.56,0,0,0-.42-1.92,2.92,2.92,0,0,0-1.58-1.46,13,13,0,0,0-1.74-.51,10.92,10.92,0,0,1-1.55-.51,8.42,8.42,0,0,1-2.69-1.77A6.72,6.72,0,0,1,71.9,125a8.08,8.08,0,0,1,.93-6.46,8.08,8.08,0,0,0-1.56,6.65A7,7,0,0,0,73,128.29a9.4,9.4,0,0,0,2.89,2.17c1.09.54,2.34.76,3.23,1.15a1.54,1.54,0,0,1,.86.85,4.23,4.23,0,0,1,.25,1.43,12.09,12.09,0,0,1-2.5,6.84s6.29-1.92,8.15-7.46A8.9,8.9,0,0,0,86.1,129.66Z"/><path class="cls-27" d="M29.46,65.7,29.61,64c0-.3,2.54-30.39-4.61-48.17l-.19-.46.11-.49C25.2,13.65,28.85,2.69,70,1.66q2.41-.06,4.64-.06c22.48,0,31.5,4.48,35.11,8.24,2.51,2.61,2.49,4.92,2.48,5.17v.21l-.06.2c-.11.35-10.68,35.27-7.16,47.59l.55,1.93L66.08,67Z"/><path d="M74.66,3.2c36.47,0,36,11.75,36,11.75s-10.86,35.57-7.17,48.49L66.06,65.39,31.2,64.16s2.67-30.56-4.71-48.91c0,0,2.46-11,43.58-12q2.39-.06,4.6-.06m0-3.2h0C73.15,0,71.58,0,70,.06c-41.51,1-46.12,12.25-46.62,14.49l-.22,1,.37.92c7,17.42,4.52,47.14,4.5,47.44l-.29,3.36,3.37.12,34.86,1.23h.28l37.42-1.95,4-.21-1.1-3.87c-2.81-9.85,4.21-37,7.16-46.68l.12-.39,0-.41c0-.53,0-3.32-2.93-6.35C105.36,2.94,93.16,0,74.67,0Z"/><g class="cls-28"><path class="cls-29" d="M27.74,45.3l.08-.18C28,44.75,32,36,65,36H67.3c35,.41,41.43,9.08,41.68,9.45l.27.39-5.13,18.53L27.74,69.81Z"/><path d="M65,37h2.32c34.86.41,40.88,9,40.88,9l-4.82,17.39-74.62,5.3V45.5S32.27,37,65,37m0-2h0c-33.08,0-37.67,8.73-38.08,9.72l-.15.37V70.89l2.14-.15,74.62-5.3,1.41-.1.38-1.36,4.82-17.39.25-.91-.54-.77c-.68-1-7.61-9.47-42.49-9.88Z"/><path class="cls-30" d="M69.43,61.54Q64.1,63.45,59,65.73q1.47-4.26,3.11-8.46-3.37-3.6-7-7.14,5.18-.76,10.41-1.23,2.15-4.18,4.49-8.26,2.33,4.47,4.46,8.93,5.08.35,10.13,1Q80.15,54,76,57.66q1.22,4.7,2.3,9.38Q74,64.22,69.43,61.54Z"/><path d="M70,42.41q2,3.93,3.91,7.87,4.39.29,8.77.78-3.88,3.07-7.5,6.38,1.05,4,2,7.95Q73.44,63,69.52,60.71q-4.7,1.66-9.21,3.61,1.3-3.63,2.73-7.22-3-3.25-6.25-6.45,4.62-.65,9.29-1.05Q67.94,46,70,42.41M70,38.86q-.83,1.43-1.64,2.87-1.79,3.2-3.46,6.46-4.22.38-8.4,1l-3.14.46,2.16,2.09q2.9,2.85,5.63,5.74-1.22,3.18-2.35,6.4-.58,1.65-1.13,3.31,1.59-.74,3.21-1.43,4.14-1.79,8.43-3.34,3.56,2.07,6.95,4.24,1.62,1,3.2,2.09-.41-1.83-.83-3.67-.83-3.56-1.73-7.13,3.32-3,6.85-5.75,1.36-1.07,2.75-2.11-1.85-.25-3.72-.46-3.88-.44-7.79-.73-1.67-3.51-3.46-7-.76-1.49-1.54-3Z"/><path class="cls-31" d="M69.55,47.72q-1,1.9-2,3.82-2.45.21-4.9.48,1.65,1.73,3.24,3.48-.8,1.88-1.56,3.77,2.49-1,5-1.83,2.12,1.22,4.19,2.47-.57-2.11-1.17-4.23,1.91-1.79,3.89-3.51-2.3-.17-4.61-.29Q70.61,49.8,69.55,47.72Z"/><path class="cls-30" d="M98.1,63.72q-5.58.94-11,2.28,2.12-3.79,4.4-7.48-2.76-3.93-5.79-7.85,5.22.1,10.46.49,2.77-3.6,5.73-7.06,1.6,4.59,3,9.14,5,1.16,9.89,2.58-4.92,2.48-9.58,5.3.48,4.63.82,9.21Q102.22,67,98.1,63.72Z"/><path d="M101.62,45.79q1.4,4,2.64,8,4.3,1,8.56,2.17-4.32,2.25-8.42,4.77.42,3.92.75,7.81-3.31-2.85-6.83-5.63-4.91.81-9.67,1.93,1.86-3.22,3.82-6.36Q90,55,87.32,51.45q4.66.12,9.33.48,2.42-3.13,5-6.15m.61-3.34q-1,1.21-2.07,2.44-2.26,2.72-4.42,5.53-4.22-.31-8.44-.43l-3.16-.06q.91,1.15,1.79,2.31,2.41,3.15,4.65,6.3-1.71,2.8-3.32,5.66-.83,1.46-1.63,2.94,1.69-.44,3.39-.85,4.37-1,8.86-1.81,3.2,2.53,6.22,5.12,1.45,1.24,2.85,2.49-.12-1.79-.26-3.59-.27-3.49-.61-7,3.75-2.25,7.68-4.28,1.51-.78,3.05-1.53-1.8-.54-3.61-1.05-3.78-1.06-7.6-2-1.1-3.58-2.32-7.18-.52-1.53-1.06-3.06Z"/><path class="cls-31" d="M100.38,50.72Q99.05,52.34,97.77,54q-2.46-.2-4.91-.33,1.36,1.89,2.65,3.79-1.08,1.64-2.13,3.31,2.61-.5,5.26-.91,1.91,1.49,3.75,3-.24-2.08-.5-4.17,2.17-1.37,4.41-2.67-2.26-.54-4.53-1Q101.1,52.85,100.38,50.72Z"/><path class="cls-30" d="M40.15,63.81q-5,2.84-9.66,6,.74-4.64,1.66-9.23-4-3.16-8.2-6.22,5-1.63,10.16-3,1.42-4.67,3.06-9.27,3.08,4.23,5.94,8.49,5.1-.48,10.2-.69Q49.49,54.2,46,58.71,48,63.37,49.9,68,45.16,65.82,40.15,63.81Z"/><path d="M37.44,44q2.69,3.73,5.22,7.47,4.41-.43,8.82-.66-3.32,3.82-6.36,7.83,1.72,3.94,3.33,7.88-4.08-1.85-8.36-3.56-4.38,2.48-8.54,5.23.68-4,1.49-7.88-3.55-2.86-7.32-5.63,4.5-1.42,9.07-2.61Q36,48,37.44,44m-.55-3.68q-.58,1.61-1.14,3.24-1.23,3.59-2.33,7.23-4.13,1.09-8.2,2.37l-3,1,2.51,1.81q3.38,2.47,6.58,5-.68,3.48-1.25,7-.29,1.8-.56,3.6,1.46-1,2.95-2Q36.2,67,40.2,64.68q3.88,1.56,7.61,3.24,1.78.8,3.52,1.63-.71-1.82-1.44-3.65Q48.47,62.35,47,58.81q2.79-3.61,5.82-7.08Q54,50.4,55.15,49.09q-1.88.06-3.76.15-3.92.19-7.84.55-2.25-3.35-4.63-6.68-1-1.41-2-2.82Z"/><path class="cls-31" d="M37.93,49.51q-.71,2.13-1.38,4.29-2.4.61-4.79,1.29,1.93,1.52,3.8,3.06-.47,2.07-.9,4.15Q37,60.9,39.35,59.58q2.31.91,4.57,1.86Q43,59.36,42,57.27q1.59-2.16,3.27-4.27-2.31.2-4.63.46Q39.33,51.48,37.93,49.51Z"/></g><path class="cls-32" d="M101.88,76.8c11.79-1.33,30.62-5.26,26.42-17.36-3.07-8.81-33.84,3.18-63.88,4.2S-.07,50.42,1.66,66.52C2.8,77,33.53,78.17,33.53,78.17l-1-11.35a239.77,239.77,0,0,0,33.08.72c17.12-.93,36.1-2.77,36.1-2.77Z"/><path class="cls-33" d="M101.88,76.8c11.79-1.33,30.62-5.26,26.42-17.36-3.07-8.81-33.84,3.18-63.88,4.2S-.07,50.42,1.66,66.52C2.8,77,34.33,78.33,34.33,78.33"/><path class="cls-9" d="M33.79,75.44S8,73,8,67.1,18.69,65,31,66.52s40.3,2.56,65.92-1c17.83-2.49,25.74-8.3,27.52-4.13,2.76,6.49-9.16,13-23.92,13.53l-.9-9.5s-44.27,4.82-65.88,1.54Z"/><g class="cls-34"><path class="cls-8" d="M84.71,1.41S86,43.65,78.16,60.67c0,0,44.09-7.48,37.93-4-15.79,8.95-56.45,9.65-69,8.65-15.6-1.24-46-9.16-43.34,5.4s81.21,12.3,108.07,7,26-30.76-5.95-20.71l-1.23-2.26,7.78-39.78S111.38,1.41,84.71,1.41Z"/></g><path class="cls-35" d="M27.41,15.15s6.67-8.1,29.12-9.43c0,0-5.85,40.91-.72,53.93,0,0-16.1-1.43-23-2.36C32.84,57.29,35.2,27,27.41,15.15Z"/><path d="M8.12,67.9a3.59,3.59,0,0,1,0-1.93,2.9,2.9,0,0,1,1.21-1.55,6.85,6.85,0,0,1,3.85-.76c2.61.2,5.14.59,7.71.87q7.67.95,15.36,1.49c10.26.71,20.55.9,30.83.68,5.14-.09,10.29-.27,15.42-.56s10.25-.72,15.33-1.4c2.54-.34,5.06-.79,7.58-1.29s5-1.08,7.59-1.52,5-1.22,7.49-1.83a10.26,10.26,0,0,1,2-.29,2.1,2.1,0,0,1,1.87.75,3.26,3.26,0,0,1,.39,1.94,12.52,12.52,0,0,1-.27,1.92,12.47,12.47,0,0,0,.11-1.92,3.05,3.05,0,0,0-.48-1.76,1.76,1.76,0,0,0-1.61-.51,9.83,9.83,0,0,0-1.84.39c-2.44.74-4.87,1.69-7.42,2.28s-5,1.23-7.51,1.83-5.07,1.12-7.63,1.55a223.23,223.23,0,0,1-30.95,2.42,264.81,264.81,0,0,1-31-1.12c-5.15-.5-10.28-1.21-15.37-2.07-2.54-.43-5.09-1-7.61-1.3a6.51,6.51,0,0,0-3.67.49A2.68,2.68,0,0,0,8.31,66,3.49,3.49,0,0,0,8.12,67.9Z"/><path class="cls-36" d="M38.54,157.75a22.65,22.65,0,0,1-9.14-1.61c-5.42-2.56-4.42-7.42-3.69-11a22.87,22.87,0,0,0,.44-2.63c.16-2.07-2.23-5.9-4.35-9.28a45.59,45.59,0,0,1-3.8-6.84,4.07,4.07,0,0,1,.22-3.76c1.21-2,4-2.77,5.69-3.09-1-3-1.72-7,.41-10.16s6.39-4.77,12.88-5l1.26,0c5.45,0,9.43,1.44,11.83,4.28a10.9,10.9,0,0,1,2.31,8.16c.24,4.56,5,6,9.2,7.28,2.16.66,4,1.22,5,2.21,2.65,2.65,5.38,12,3.31,15.56-1.71,3-13.44,8.09-16.87,9.53-1.22,4.69-8.59,6.37-14.72,6.37Z"/><path d="M38.46,105.36c15.08,0,13.14,11.38,13.14,11.38.31,7.89,12,7.73,14.51,10.25s4.89,11.36,3.15,14.35-16.88,9.31-16.88,9.31c-.62,4.22-7.48,6.09-13.84,6.09a21.82,21.82,0,0,1-8.71-1.52c-6-2.84-3-8.68-2.68-12.62S20.83,130.94,18.93,126s6.31-5.68,6.31-5.68c-1.74-4.73-4.42-14.36,12-15l1.22,0m0-2-1.3,0c-6.82.26-11.42,2.1-13.67,5.46s-1.63,7.3-.86,10c-1.8.48-4.11,1.44-5.26,3.29a5,5,0,0,0-.3,4.64,46.2,46.2,0,0,0,3.88,7c1.93,3.09,4.34,6.94,4.2,8.68a22.43,22.43,0,0,1-.43,2.51C24,148.62,22.84,154.14,29,157a23.65,23.65,0,0,0,9.57,1.71c6.29,0,13.82-1.76,15.54-6.63,5.14-2.18,15.16-6.73,16.92-9.77,2.37-4.08-.54-13.84-3.47-16.77-1.17-1.17-3.15-1.77-5.44-2.46-4.81-1.46-8.25-2.77-8.49-6.3A12,12,0,0,0,51.05,108c-2.6-3.08-6.83-4.63-12.6-4.63Z"/><path d="M22.59,120.55l1.36-5.64s1.61,10.46,22.11,5.33c0,0-3.48,3.69-18.55,1.74Z"/><path d="M57.13,148.57s-11.58,1.82-10.55-11l7.9-7.08s-3.71,1.76-6.77,3.66c-.42-1.62-2.49-6.42-12.1-6.84,0,0,9.16,2.12,10.72,7.74l-.77.56C42.48,138,44.84,156.33,56.21,151Z"/><path class="cls-8" d="M18.76,124s.58,4.65,1.94,7,1.53-.07,1.53-.07,8.48,5.95,13.27,7.25,9.7.07,11.27-3.08c0,0-5.26,3.83-11.27,1.36S21.63,128.69,18.76,124Z"/><path class="cls-8" d="M24.23,137.27a32,32,0,0,0,1.94,3.87c1.36,2.39-.06,2.87-.06,2.87a45.49,45.49,0,0,0,8.77,3.48c4.79,1.29,9.71.07,11.29-3.08,0,0-5.27,3.82-11.29,1.36S27.09,141.91,24.23,137.27Z"/><path class="cls-8" d="M26.35,146l-1.18,4s2.22,6.49,6.94,7,17.19.72,20.21-5.06L49,150.11s-10,4.09-15.69,3.14S26.35,146,26.35,146Z"/><path class="cls-8" d="M70.64,138.46l-2.87-12.37s-7.66-2-7.87-2.05-4.31-2.12-5.89-2.91a14.7,14.7,0,0,1-.82-1.24l-1.44-6.05c.13-6.48-7.33-7.71-7.33-7.71.48.14,7.69,9.91-3.39,13.33-9.52,2.94-13.53.17-14.47-.66a14,14,0,0,0,9.61,3.39A26,26,0,0,0,44.36,121a14.12,14.12,0,0,1,1.84.2c2.34,1.28.54,3.83-2.81,3.74-3.85-.11-9.35-2.36-9.35-2.36,2.31,1.81,4.67,2.14,7.15,3.68,1.4.87.63,1.36-.29,1.61a25.4,25.4,0,0,0-2.83-.11,12.76,12.76,0,0,1,9.12,7.59l1.17-.77a31.57,31.57,0,0,0,3.15-2.09l3-2,2.67-2.25s5.43-1.06,6.39,3.86c.53,2.74-1.25,5.19-3.52,7a34.66,34.66,0,0,1-13.7,4.85s0,6.49,6.69,6,16.13-7.58,16.54-8.55a3.58,3.58,0,0,0,0-1.29Z"/><path class="cls-35" d="M34.62,108a16.89,16.89,0,0,0-4.13,3.53,4.1,4.1,0,0,0-.6,3.47,5.22,5.22,0,0,0,2.28,3c1.12.74,6.72,1.77,6.72,1.77a17.14,17.14,0,0,1-7.16.44c-1.38-.28-3.74-1.1-4.74-2.64a7.9,7.9,0,0,1-.88-3.69A5.13,5.13,0,0,1,27,111a7.28,7.28,0,0,1,3-2A18.46,18.46,0,0,1,34.62,108Z"/><path class="cls-35" d="M30,122.75c6.66.38,7.05,3.19,7.05,3.19s-7.74-.1-6.06,1,7.85,2.84,8.86,3,1.15,5.89-1.21,6.5c-1,0-1.37-.49-6.27-2.75s-11.45-6.77-10.75-9.4C21.63,124.31,23.36,122.37,30,122.75Z"/><path class="cls-35" d="M60.51,129.47c.5.83,3.09,4.28-12.57,9.81,0,0-1.19-.79.52-2.33s9-8,9-8S60,128.64,60.51,129.47Z"/><g id="L"><g class="cls-9"><path class="cls-14" d="M129.42,90.51a27.24,27.24,0,0,0-8.38,6,25.55,25.55,0,0,0-5.33,8.45,28.37,28.37,0,0,0-1.45,4.83,40.59,40.59,0,0,0-.77,5.06,86.39,86.39,0,0,0-.17,10.46,34.83,34.83,0,0,1-1.75-10.54A28.58,28.58,0,0,1,113.43,104a24.68,24.68,0,0,1,2.6-4.87,21.68,21.68,0,0,1,3.7-4.08A19.28,19.28,0,0,1,129.42,90.51Z"/></g><path class="cls-35" d="M43.2,168.23a19,19,0,0,1-10.4-2.87c-3.75-2.43-7.61-9.88-7.63-11.52a12,12,0,0,0,3,2.65,13.39,13.39,0,0,0,5.76,7.15c6,3.86,16.89,2,17,1.95l-3.1,2.16A20.61,20.61,0,0,1,43.2,168.23Z"/><path class="cls-35" d="M48.55,102.19a25.93,25.93,0,0,1-3.75-1.78c.22.95.45,1.91.69,2.9a17.23,17.23,0,0,1,3.92,2.4Q49,103.92,48.55,102.19Z"/><path class="cls-35" d="M89.44,199.3s-7.55-7.17-21.43-42c-1,.55-1.54,1.46-2.15,1.75C79.09,188.87,89.44,199.3,89.44,199.3Z"/><path class="cls-35" d="M26.66,135s1.66.6,3,7.15c.27,1.27,7.76,4.3,8.42,3.25s.5-5.56-.49-5.94S31.45,138.28,26.66,135Z"/><path class="cls-35" d="M28.92,145.93s-.72,2.69-.22,3.69,3.08,3,6.38,2.81l3.3-.16s1.6-2.26-.11-3.64C38.28,148.62,34.48,148.95,28.92,145.93Z"/></g><line class="cls-37" x1="34.07" y1="109.89" x2="30.51" y2="102.37"/><line class="cls-37" x1="39.13" y1="108.93" x2="39.53" y2="101.14"/><line class="cls-37" x1="63.74" y1="141.19" x2="69.88" y2="146.25"/><line class="cls-37" x1="66.2" y1="134.09" x2="73.71" y2="131.08"/><line class="cls-37" x1="22.31" y1="126.43" x2="9.46" y2="121.78"/><circle class="cls-9" cx="63.74" cy="141.19" r="1.58"/><circle class="cls-9" cx="66.2" cy="134.09" r="1.58"/><path class="cls-9" d="M40.7,108.93a1.58,1.58,0,1,1-1.57-1.58A1.58,1.58,0,0,1,40.7,108.93Z"/><circle class="cls-9" cx="34.07" cy="109.89" r="1.58"/><circle class="cls-9" cx="22.28" cy="126.09" r="1.58"/></g></g></g></svg>