<svg xmlns="http://www.w3.org/2000/svg" xmlns:xlink="http://www.w3.org/1999/xlink" viewBox="0 0 149.52 250.47"><defs><style>.cls-1,.cls-12,.cls-16,.cls-17,.cls-22{fill:none;}.cls-2{isolation:isolate;}.cls-3{fill:#ceced1;}.cls-10,.cls-4{fill:#fff;}.cls-5{fill:#a3421c;}.cls-6{fill:#6e5445;opacity:0.33;mix-blend-mode:difference;}.cls-7{fill:#b55221;}.cls-8{fill:#c46933;}.cls-9{fill:url(#linear-gradient);}.cls-10,.cls-11,.cls-13{mix-blend-mode:soft-light;}.cls-11{opacity:0.55;}.cls-12,.cls-16,.cls-17,.cls-22,.cls-36{stroke:#000;}.cls-12{stroke-width:0.8px;}.cls-14{fill:url(#linear-gradient-2);}.cls-15{fill:aqua;opacity:0.22;}.cls-16,.cls-17,.cls-22{stroke-miterlimit:10;}.cls-16{stroke-width:2.68px;}.cls-17{stroke-width:2.26px;}.cls-18{fill:url(#linear-gradient-3);}.cls-19{fill:url(#linear-gradient-4);}.cls-20{fill:#fff1c5;}.cls-21{clip-path:url(#clip-path);}.cls-22{stroke-width:3px;}.cls-23{fill:#333;}.cls-24{fill:url(#linear-gradient-5);}.cls-25,.cls-30,.cls-34{mix-blend-mode:multiply;}.cls-26,.cls-34{fill:#5e1a02;}.cls-27{fill:#303c3f;}.cls-28{fill:#47575b;}.cls-29,.cls-30{fill:#848585;}.cls-31{fill:#964c09;}.cls-32{fill:#380f02;}.cls-33{fill:url(#linear-gradient-6);}.cls-35{fill:url(#linear-gradient-7);}.cls-36{stroke-width:3.22px;fill:url(#linear-gradient-8);}.cls-37{fill:url(#linear-gradient-9);}.cls-38{clip-path:url(#clip-path-2);}</style><linearGradient id="linear-gradient" x1="100.22" y1="76.98" x2="64.26" y2="206.91" gradientTransform="matrix(-1, 0, 0, 1, 152.99, 0)" gradientUnits="userSpaceOnUse"><stop offset="0" stop-color="#9ec245"/><stop offset="1" stop-color="#578a21"/></linearGradient><linearGradient id="linear-gradient-2" x1="69.5" y1="84.35" x2="76.81" y2="99.58" gradientTransform="matrix(-1, 0, 0, 1, 152.99, 0)" gradientUnits="userSpaceOnUse"><stop offset="0" stop-color="#fff"/><stop offset="1" stop-color="#b0b0b0"/></linearGradient><linearGradient id="linear-gradient-3" x1="74.52" y1="-3.21" x2="43.15" y2="44.33" gradientUnits="userSpaceOnUse"><stop offset="0" stop-color="#8c5522"/><stop offset="1" stop-color="#4f2e0c"/></linearGradient><linearGradient id="linear-gradient-4" x1="106.97" y1="25.84" x2="78.58" y2="68.86" xlink:href="#linear-gradient-3"/><clipPath id="clip-path"><path class="cls-1" d="M25.43,103s24.11.59,19,38.13L46,145.3l27.7,12.39,40.13-11.22-36.57-20.7Z"/></clipPath><linearGradient id="linear-gradient-5" x1="37.81" y1="113.92" x2="37.83" y2="119.1" gradientTransform="matrix(1.22, 0.21, -0.4, 2.27, 47.01, -139.96)" gradientUnits="userSpaceOnUse"><stop offset="0" stop-color="#f5851f"/><stop offset="1" stop-color="#f9ec2a"/></linearGradient><linearGradient id="linear-gradient-6" x1="125.16" y1="164.16" x2="86.06" y2="192.62" xlink:href="#linear-gradient-3"/><linearGradient id="linear-gradient-7" x1="142.62" y1="109.2" x2="113.35" y2="214.94" gradientTransform="matrix(1, 0, 0, 1, 0, 0)" xlink:href="#linear-gradient"/><linearGradient id="linear-gradient-8" x1="82.46" y1="113.65" x2="87.27" y2="131.03" gradientTransform="translate(27.68 -15.2) rotate(12.32)" xlink:href="#linear-gradient"/><linearGradient id="linear-gradient-9" x1="82.46" y1="113.65" x2="87.27" y2="131.03" gradientTransform="translate(27.68 -15.2) rotate(12.32)" gradientUnits="userSpaceOnUse"><stop offset="0" stop-color="#8e1a40"/><stop offset="1" stop-color="#dd477f"/></linearGradient><clipPath id="clip-path-2"><path class="cls-1" d="M101,117.44s-16.85,2.21-27.9-8.14-8.24,14.46,18.42,20.92c0,0-1.32-.17-.46-4.71S101,117.44,101,117.44Z"/></clipPath></defs><title>Fichier 2</title><g class="cls-2"><g id="Calque_2" data-name="Calque 2"><g id="icones_site"><path class="cls-3" d="M111.84,87.68a7.75,7.75,0,0,1,1.15.09A6.44,6.44,0,1,0,119.16,98a7.77,7.77,0,1,1-7.32-10.37Z"/><circle cx="117.23" cy="96.14" r="2.41"/><circle class="cls-4" cx="118.52" cy="94.85" r="1.13"/><path class="cls-5" d="M64.23,222.4,44.1,244.82c-2.25,3.77-12,2.11-21.73-3.71S6.53,227.52,8.78,223.75L19,194Z"/><path class="cls-6" d="M32.69,202.56l-4.07,6.6s-2.1-2.07-4-4l-11.71,26s.76,4.22,8.33,9.27c-9.09-5.73-14.62-13-12.46-16.67L19,194Z"/><path class="cls-7" d="M16.43,192.9a8.84,8.84,0,0,1-.1-3.26l4.82-10.07,4,6.16c6.63.07,16.17,3.2,25.74,8.9,8.33,5,14.93,10.85,18.61,16.11l8.45,2.68-6.46,9.07a4.75,4.75,0,0,1-.51.34c-1.92,1.67-5.26,2.23-9.47,1.77-5.7-.34-14-2.66-25.52-10,0,0-1.09-.72-2.75-2C23.68,206,17.29,198.38,16.43,192.9Z"/><path class="cls-6" d="M16.43,192.9a8.84,8.84,0,0,1-.1-3.26l4.82-10.07,4,6.16a28,28,0,0,1,4.12.38c2.79,6.68,5.4,13.31,5.4,13.31l-6,9.74a24,24,0,0,1-4.36-3.4l.22-.31C19.9,200.93,17,196.47,16.43,192.9Z"/><ellipse class="cls-8" cx="49.53" cy="196.51" rx="12.77" ry="33.05" transform="translate(-144.6 138.38) rotate(-59.18)"/><ellipse cx="49.53" cy="196.5" rx="9.37" ry="28.39" transform="translate(-144.6 138.37) rotate(-59.18)"/><path class="cls-5" d="M52.64,191.33c-12-7.16-23.67-10.24-28-7.69a3.48,3.48,0,0,1,.46-1.69c2.65-4.44,15.72-1.53,29.18,6.5S76.57,206.61,73.92,211a3.46,3.46,0,0,1-1.23,1.19C72.86,207.25,64.61,198.47,52.64,191.33Z"/><path d="M29.25,176.33c6.86,0,16.83,3.25,26.83,9.21,15.68,9.35,25.45,21.84,21.84,27.9a5,5,0,0,1-.44.61l-6,8.46a4.75,4.75,0,0,1-.51.34c-1.49,1.3-3.85,1.92-6.8,1.92q-.94,0-2-.08L44.1,244.82c-.82,1.37-2.61,2-5,2-4.27,0-10.48-2-16.69-5.73-9.75-5.82-15.84-13.59-13.59-17.36L18,197.11a13.78,13.78,0,0,1-1.52-4.21,8.83,8.83,0,0,1-.1-3.26l4.46-9.32a5.07,5.07,0,0,1,.36-.74c1.31-2.2,4.2-3.25,8.1-3.25m0-3.62v0h0c-6.79,0-9.85,2.73-11.21,5a8.28,8.28,0,0,0-.56,1.14l-4.42,9.22-.22.46-.09.5a12.44,12.44,0,0,0,.11,4.52A15.92,15.92,0,0,0,14,197.34L5.45,222.27c-3.53,6.8,5.24,16.09,15.06,22,6.65,4,13.41,6.24,18.55,6.24,4.54,0,6.81-1.79,7.93-3.44l16.73-18.65h.42c3.81,0,6.81-.87,8.94-2.6a7.46,7.46,0,0,0,.67-.48l.37-.31.28-.39,6-8.37a8.41,8.41,0,0,0,.66-.95C83.6,211,82.2,205,77.09,198.49c-4.39-5.61-11.2-11.32-19.15-16.06-10.2-6.09-20.93-9.72-28.68-9.72Z"/><path d="M16.33,189.64s-2.53,12,25.7,28.65a54.07,54.07,0,0,1-27.29-21Z"/><polygon points="27.94 244.74 36.29 242.71 34.9 236.11 39.75 235.35 36.59 228 42.9 226.16 43.14 222.44 41.95 225.19 38.41 226.3 37.48 224.1 39.8 221.32 39.25 219.9 39.12 221.06 36.8 223.85 37.55 226.35 34.84 226.98 37.67 234.42 33.33 234.78 34.7 241.65 23.43 242.53 27.94 244.74"/><polygon points="37.55 226.35 32.5 227.34 30.85 225.07 28.46 224.57 26.69 220.85 27.53 223.2 25.87 222.51 24.34 223.47 25.92 222.88 27.74 223.67 28.25 224.79 30.7 225.46 32.34 227.73 35.07 227.53 37.55 226.35"/><path class="cls-9" d="M59.76,208c-3.11,0-7.89-1.73-14.62-5.28-6.22-3.28-10-7-11.17-11a8,8,0,0,1,.3-5.86,79,79,0,0,0,4.33-12,102.31,102.31,0,0,1-19-9.48c-14.69-9-20.39-22.24-17-39.29l.14-.7c1-5.12,6.81-19.73,20.64-19.73a22.43,22.43,0,0,1,5.74.79c16.52,4.39,14.57,26.09,13.73,35.35-.1,1.11-.18,2-.21,2.71A5,5,0,0,0,44,146.66c5.29-37.52,5.13-82,5.09-87.06C49,39.2,56.9,16.91,72.37,13.79a29.66,29.66,0,0,1,5.85-.59c16.41,0,29.35,12.68,34.62,33.93,7.67,30.94-5.65,67.72-6.22,69.27-3.62,11.2-8.54,23.76-8.59,23.88-10.24,29.39-33.17,65-34.66,66.47A4.91,4.91,0,0,1,59.76,208Z"/><path d="M78.22,14.82c13.12,0,27.25,9.28,33.06,32.71,7.64,30.82-6.16,68.33-6.16,68.33-3.67,11.34-8.58,23.85-8.58,23.85-10.18,29.21-33,64.58-34.3,65.92a3.33,3.33,0,0,1-2.48.81c-2.37,0-6.52-1.21-13.87-5.09-14.2-7.5-10.18-14.74-10.18-14.74a83.83,83.83,0,0,0,4.85-13.77c-4.74-1.52-11.31-4.4-20.12-9.82C-1.81,149.35,3.55,129,4.35,124.7c.72-3.81,5.88-18.42,19.06-18.42a20.71,20.71,0,0,1,5.33.73c17.15,4.56,12.59,30.28,12.33,36.44-.1,2.27,1.72,4.6,4.07,6.65,5.24-34.67,5.67-77.5,5.58-90.53-.14-19.32,7.37-41.27,22-44.21a28,28,0,0,1,5.53-.55m0-3.22a31.25,31.25,0,0,0-6.17.62C55.73,15.51,47.35,38.55,47.5,59.61c0,4.15.14,34.63-2.71,66.08a43.28,43.28,0,0,0-.61-4.3c-2.33-11.86-9.23-16.05-14.61-17.48a24,24,0,0,0-6.15-.84c-14.91,0-21.2,15.58-22.22,21,0,.19-.08.42-.13.68a41.34,41.34,0,0,0-.24,17.3c2.12,9.7,8.15,17.67,17.93,23.68a108.49,108.49,0,0,0,17.89,9.11,73.69,73.69,0,0,1-3.82,10.33,9.76,9.76,0,0,0-.39,7c1.33,4.46,5.35,8.49,12,12,7.06,3.73,11.94,5.47,15.37,5.47a6.45,6.45,0,0,0,4.75-1.75c2.15-2.15,25-38.44,35-67.08.37-1,5.08-13,8.6-23.92.84-2.3,13.94-39.08,6.24-70.15-2.87-11.6-7.84-20.61-14.77-26.77A31.87,31.87,0,0,0,78.22,11.6Z"/><path d="M41.07,143.46s.13,6.16,13.67,12.86c0,0-11.12-10.18-10.59-18Z"/><polygon points="33.7 170.25 48.43 175.61 37.45 174.54 33.7 170.25"/><path d="M84.34,168.65s11.41,8.47,16.58-3.26c0,0-1.47,14.84-16.74,7.75Z"/><path d="M96.53,139.71s-18.72,44.07-34.3,65.92l4.15-.8s17.42-26.26,33.5-65.65Z"/><path class="cls-10" d="M88.09,18.58s37.95,15,16,95.41l-6,.68S122.4,44.47,88.09,18.58Z"/><path class="cls-10" d="M97,134.13s-11.78,38.27-33.25,65.6l28.94-65.6Z"/><path class="cls-10" d="M100.69,144.26s10.72-2.81,16.08,11c4.48,11.53-2.41,26.26-5.63,28.67,0,0,7.24-17.42,2.14-27.6S100.69,144.26,100.69,144.26Z"/><path class="cls-10" d="M33.16,111.84s7,5.36,6.16,19.29-2.95,16.88,13.4,26c0,0-17.15-4.82-16.61-12.59S38.52,119.88,33.16,111.84Z"/><path class="cls-11" d="M61.3,51.28c2.95-39.12,22-35.91,22-35.91l0-.09a27.85,27.85,0,0,0-10.56.09c-14.61,2.95-22.11,24.89-22,44.21.08,11.66-.26,47.19-4.09,79.37,0,.59,0,1.12-.07,1.56-.09.92-.22,1.93-.38,3l-1.76,4.25,10.32,8.58s-4.69-4.29-2.81-15C56.4,108.72,60,68.86,61.3,51.28ZM20.43,163c8.81,5.41,15.38,8.3,20.12,9.82a83.82,83.82,0,0,1-4.85,13.77s-4,7.24,10.18,14.74c11.25,5.95,15,5.63,16.34,4.29a41.13,41.13,0,0,0,2.42-3.5c-14.72-4.24-22.44-9.62-20.77-18.2.54-2.78,1-5.17,1.94-8.55l2.55.27s2-.54-7.44-5.12c-1.11-.54-7.27-3.94-8.31-4.29a37.65,37.65,0,0,1-18.76-28.4c-2-18.49,5.76-31,15.88-30.5-.33-.11-.66-.23-1-.32-17.15-4.56-23.58,13.4-24.39,17.69S-1.81,149.35,20.43,163Z"/><path class="cls-11" d="M75.6,108.71C87.66,51,77.91,27.56,77.91,27.56c4.92,20.66,1.41,51-4.47,79.6Zm-24.22,78c6.55-17.48,17.06-48.5,21.21-62.61l-2.5-1.5C62.74,150.57,51.38,186.73,51.38,186.73Zm7,9.78L57,199.19S57.51,198.25,58.39,196.51ZM86.22,23.14C103.69,40.17,99.39,81,91,114l2.53.63C111.16,46.45,86.22,23.14,86.22,23.14ZM83.67,130.89c-9.43,25.66-21.6,58.35-25.28,65.62,10.13-19.78,21.94-48.87,28.1-64.48Z"/><path class="cls-11" d="M26.76,110.43a33,33,0,0,0-4.3,9,35.23,35.23,0,0,0-1.6,9.76A36,36,0,0,0,22,139a44.38,44.38,0,0,0,3.54,9.21l0-.07a56.33,56.33,0,0,0,10.62,12.2,78.81,78.81,0,0,0,13.4,9.46,53,53,0,0,1-7.46-3.64,59.57,59.57,0,0,1-6.89-4.68,49.61,49.61,0,0,1-11.34-12.3l0,0,0,0a41.76,41.76,0,0,1-3.66-9.65,34.87,34.87,0,0,1-.91-10.3,32.24,32.24,0,0,1,4.52-14.62A23.57,23.57,0,0,1,26.76,110.43Z"/><path class="cls-11" d="M29.92,112.24a74.88,74.88,0,0,1,2.65,15.07,32.79,32.79,0,0,1-.29,7.8,19.19,19.19,0,0,0-.34,7.23,18.54,18.54,0,0,0,7.25,12.12c3.89,3,8.66,4.91,13.53,6.32a31.82,31.82,0,0,1-14.46-5.06,20.28,20.28,0,0,1-5.53-5.63A18.93,18.93,0,0,1,30,142.62a20.62,20.62,0,0,1,.47-7.88,35.63,35.63,0,0,0,.59-7.37A151.61,151.61,0,0,0,29.92,112.24Z"/><line class="cls-12" x1="13.87" y1="111.84" x2="7.44" y2="105.14"/><line class="cls-12" x1="16.55" y1="109.43" x2="14.4" y2="102.99"/><line class="cls-12" x1="95.86" y1="12.42" x2="90.77" y2="21.26"/><line class="cls-12" x1="90.77" y1="11.08" x2="89.17" y2="18.85"/><line class="cls-12" x1="53.79" y1="50.47" x2="44.68" y2="46.19"/><line class="cls-12" x1="51.65" y1="92.81" x2="43.08" y2="93.62"/><line class="cls-12" x1="51.92" y1="95.49" x2="44.68" y2="98.44"/><line class="cls-12" x1="116.77" y1="141.58" x2="111.14" y2="147.75"/><line class="cls-12" x1="119.18" y1="143.73" x2="113.55" y2="148.28"/><line class="cls-12" x1="113.82" y1="193.57" x2="109.26" y2="188.74"/><line class="cls-12" x1="111.68" y1="197.32" x2="107.66" y2="190.08"/><line class="cls-12" x1="74.7" y1="182.58" x2="80.06" y2="187.14"/><line class="cls-12" x1="76.04" y1="179.9" x2="81.66" y2="182.05"/><line class="cls-12" x1="21.91" y1="160.61" x2="16.01" y2="165.16"/><line class="cls-12" x1="18.96" y1="158.73" x2="9.31" y2="161.95"/><line class="cls-12" x1="121.32" y1="61.19" x2="110.34" y2="63.87"/><line class="cls-12" x1="119.18" y1="57.44" x2="111.68" y2="59.58"/><circle class="cls-13" cx="111.68" cy="59.58" r="1.17"/><circle class="cls-13" cx="110.34" cy="63.87" r="1.17"/><circle class="cls-13" cx="109.53" cy="188.78" r="1.17"/><circle class="cls-13" cx="108.02" cy="190.42" r="1.17"/><circle class="cls-13" cx="76.07" cy="180.03" r="1.17"/><circle class="cls-13" cx="21.6" cy="160.74" r="1.17"/><circle class="cls-13" cx="18.79" cy="158.93" r="1.17"/><circle class="cls-13" cx="74.86" cy="182.55" r="1.17"/><circle class="cls-13" cx="16.68" cy="109.49" r="1.17"/><circle class="cls-13" cx="13.77" cy="111.6" r="1.17"/><circle class="cls-13" cx="53.69" cy="50.24" r="1.17"/><circle class="cls-13" cx="89.17" cy="18.79" r="1.17"/><circle class="cls-13" cx="90.77" cy="21.3" r="1.17"/><circle class="cls-13" cx="51.65" cy="92.81" r="1.17"/><circle class="cls-13" cx="51.65" cy="95.52" r="1.17"/><circle class="cls-13" cx="111.24" cy="147.78" r="1.17"/><circle class="cls-13" cx="113.55" cy="148.48" r="1.17"/><g class="cls-13"><circle cx="82.33" cy="85.04" r="16.61"/></g><path class="cls-14" d="M83.67,97.37A13.4,13.4,0,1,1,97.07,84,13.41,13.41,0,0,1,83.67,97.37Z"/><path d="M83.67,72.18A11.79,11.79,0,1,1,71.88,84,11.79,11.79,0,0,1,83.67,72.18m0-3.22a15,15,0,1,0,15,15,15,15,0,0,0-15-15Z"/><path class="cls-3" d="M83.67,72.18a11.77,11.77,0,0,1,1.74.14,9.77,9.77,0,1,0,9.36,15.58,11.79,11.79,0,1,1-11.1-15.73Z"/><circle cx="82.47" cy="78.61" r="4.02"/><circle class="cls-4" cx="84.61" cy="76.47" r="1.88"/><path class="cls-15" d="M73.28,81c9.39-4.46,27.9,2.9,28.94,7.19.47,1.94-3.65,14.34-10.17,15.7-3.95.83-14.46-1.21-18.11-6.47C71.17,93.4,71,82.06,73.28,81Z"/><path class="cls-15" d="M131.9,92.19C127.21,85,112.8,86,110.74,89.66c-.93,1.67-2.21,14.62,1.59,18,2.31,2,9.81,3.5,13.87-.27C129.29,104.51,133,93.93,131.9,92.19Z"/><path class="cls-16" d="M73.28,81c9.39-4.46,27.9,2.9,28.94,7.19.47,1.94-3.65,14.34-10.17,15.7-3.95.83-14.46-1.21-18.11-6.47C71.17,93.4,71,82.06,73.28,81Z"/><path class="cls-17" d="M131.9,92.19C127.21,85,112.8,86,110.74,89.66c-.93,1.67-2.21,14.62,1.59,18,2.31,2,9.81,3.5,13.87-.27C129.29,104.51,133,93.93,131.9,92.19Z"/><line class="cls-16" x1="102.22" y1="88.17" x2="110.77" y2="89.82"/><path class="cls-18" d="M47.79,63.67c-6.31-.5-27.06-2.53-29.39-7.76a3.11,3.11,0,0,1,.5-3.25c2-2.65,6.59-4,13.18-4a75.47,75.47,0,0,1,16.51,2.14l1.05.24v1.08c0,1.57,0,2.93-.07,4.1-.12,4.48-.32,6.23-.33,6.3l-.15,1.29Z"/><path d="M32.08,50a73.72,73.72,0,0,1,16.21,2.11c0,1.56,0,2.91-.07,4.08-.12,4.47-.32,6.19-.32,6.19S15.17,59.73,20,53.47C21.75,51.15,26.09,50,32.08,50m0-2.69c-7.13,0-11.93,1.54-14.25,4.57a4.45,4.45,0,0,0-.66,4.62c1,2.17,3.74,4.68,17,6.88C41,64.47,47.42,65,47.69,65l2.59.2.3-2.58c0-.07.21-1.89.34-6.42,0-1.26.06-2.64.07-4.12l0-2.16-2.1-.49a76.8,76.8,0,0,0-16.82-2.18Z"/><path class="cls-19" d="M118.51,69.63c-14.76,0-31.81-4-46.79-11A123.29,123.29,0,0,0,48,50.37l-1.05-.24,0-2.67c0-7.27,2-36,11-43.65a9.48,9.48,0,0,1,6.32-2.46c2.65,0,5.19,1.05,7.88,2.17,2.84,1.18,5.77,2.4,9,2.4a12.62,12.62,0,0,0,3.94-.63,34.4,34.4,0,0,1,10.53-1.8c8.62,0,14.7,4.14,17.13,11.67C116,25,116.94,50,117.13,56.1h1.65l5.43,0,5.58,0c13.47,0,17.75.77,18.33,3.29.41,1.82-1.33,3.48-6,5.73-6.2,3-14.36,4.55-23.58,4.55Z"/><path d="M64.32,2.69c5.1,0,10.3,4.56,16.88,4.56a14,14,0,0,0,4.36-.69A33.25,33.25,0,0,1,95.66,4.83c7.29,0,13.4,3.15,15.84,10.73,3.52,10.93,4.32,41.88,4.32,41.88h3c3.56,0,7.37,0,11,0,13.11,0,23.89.63,11.72,6.47-6.24,3-14.2,4.41-23,4.41-14.45,0-31.17-3.84-46.23-10.84a124,124,0,0,0-24-8.38q0-.77,0-1.6c0-8.75,2.46-35.75,10.57-42.63a8.14,8.14,0,0,1,5.45-2.14m0-2.69V0a10.77,10.77,0,0,0-7.19,2.78c-9.42,8-11.48,37.27-11.52,44.67q0,.83,0,1.59l0,2.16,2.1.49a121.93,121.93,0,0,1,23.47,8.2C86.3,66.93,103.57,71,118.51,71c9.42,0,17.78-1.62,24.16-4.68,3.67-1.76,7.51-3.91,6.76-7.24-.84-3.68-5.87-4.34-19.64-4.34l-5.58,0-5.43,0h-.35c-.28-7.79-1.34-30.64-4.37-40-2.62-8.12-9.15-12.6-18.41-12.6A35.74,35.74,0,0,0,84.72,4a11.3,11.3,0,0,1-3.53.56c-3,0-5.77-1.17-8.49-2.29S67.24,0,64.32,0Z"/><path class="cls-20" d="M62.88,49.93c0-.16.73-16-3.72-23.08l-.63-1,1.16.24a24.38,24.38,0,0,0,4.47.38,26.23,26.23,0,0,0,4.51-.38c4.86-.85,10.53-4,10.59-4.06l.67-.38.08.76a153.42,153.42,0,0,1,.5,17.18c-.26,10-16.42,10.82-17.1,10.85l-.55,0Z"/><path d="M79.51,22.47A151.59,151.59,0,0,1,80,39.59C79.76,49.21,63.38,50,63.38,50s.79-16.12-3.79-23.37a24.52,24.52,0,0,0,4.57.39,26.8,26.8,0,0,0,4.6-.39c5-.87,10.75-4.12,10.75-4.12m.84-1.62L79,21.6c-.06,0-5.66,3.17-10.43,4a25.76,25.76,0,0,1-4.43.37,23.87,23.87,0,0,1-4.36-.37l-2.31-.48,1.26,2c4.36,6.9,3.65,22.63,3.64,22.78L62.33,51l1.1,0c.71,0,17.31-.9,17.58-11.34a154.18,154.18,0,0,0-.5-17.24l-.15-1.52Z"/><path class="cls-11" d="M62.93,43S62.43,31.8,59,26.55c0,0,4.4,1,8,1.67s6.26,6.58,6.26,6.58L77.76,26,75.95,43Z"/><path d="M115.83,57.44s-.18-6.88-.74-15.29c-30.33-9.57-55.82-5.69-66.33-3.25-.31,3.52-.45,6.53-.46,8.56q0,.83,0,1.6c3.16.73,6.47,1.67,9.88,2.79C81.46,48.28,115.83,57.44,115.83,57.44Z"/><path class="cls-10" d="M90.77,6.56s11.12-2,15.72,2.9,6.28,17.69,8.27,46.68l-9-2.28s3.47-34.36-3.52-42.78A13.07,13.07,0,0,0,90.77,6.56Z"/><path class="cls-10" d="M104.84,56.14l11,2.37s27.85-.67,28.91,1.07-14,9.63-31.07,7.88-35.93-9.05-35.93-9.05S126.59,70.48,104.84,56.14Z"/><path class="cls-10" d="M59.59,5.85S60.69,4,64.76,3.8s15.54,8,27.19,6.33a23,23,0,0,1-16.18-1C67.09,5.3,65.59,5.24,59.59,5.85Z"/><path class="cls-11" d="M48.28,52.63S25.76,48.13,23.09,54,48.3,61.19,48.3,61.19Z"/><path class="cls-11" d="M54.87,8.13S64,5,66.79,7.46s10.8,4.58,14.46,5S95.26,45.48,96.59,51s-35.33-4.06-27.67,6.47c0,0-18.57-6.33-22.71-6.47C46.22,51,48,13.12,54.87,8.13Z"/><g class="cls-21"><path class="cls-22" d="M92.81,140.39l-1.5-.26c-.43-3.18-6.39-5.85-12.79-7.82a2,2,0,0,0-.65-1.12l-19.7-3.46a1.36,1.36,0,0,0-.54.33L4.47,122s-1.87-.42-2.56,3.49,1.14,4.57,1.14,4.57l51.82,12.37a2.62,2.62,0,0,0,.53,1l19.7,3.45s.67-.28,1.47-1.77c6.68.06,13-.71,14.44-3.42l1.51.26a.9.9,0,0,0,.29-1.64Z"/><path class="cls-23" d="M77.87,131.19l-19.7-3.46s1.82.72.55,8-3.31,7.8-3.31,7.8l19.7,3.45s2.1-.87,3.31-7.8S77.87,131.19,77.87,131.19Z"/><path class="cls-11" d="M77.87,131.19l-19.7-3.46s1.82.72.55,8-3.31,7.8-3.31,7.8l19.7,3.45s2.1-.87,3.31-7.8S77.87,131.19,77.87,131.19Z"/><path class="cls-24" d="M63.08,128.68,4.47,122s-1.87-.42-2.56,3.49,1.14,4.57,1.14,4.57l57.37,13.69c6.85,1.2,29.78,3.46,30.88-2.81C92.52,134.1,67.26,129.41,63.08,128.68Z"/><path class="cls-23" d="M58.17,127.73l19.7,3.46s-2,.06-3.23,7.3.46,8.46.46,8.46L55.4,143.5S53.72,142,54.94,135,58.17,127.73,58.17,127.73Z"/><ellipse class="cls-11" cx="90.54" cy="140.84" rx="1.31" ry="0.63" transform="translate(-63.71 205.93) rotate(-80.14)"/><path class="cls-23" d="M90.27,139.94l2.54.45a.9.9,0,0,1-.29,1.64L90,141.58a1.51,1.51,0,0,1,0-.95C90.06,140,90.27,139.94,90.27,139.94Z"/><path class="cls-11" d="M2,130.38l-.65-4.08L54.7,136.64l.13-1,19.71,3.46-.26,1.46s12.88,3.15,15.63.35c0,0,0-1.51,1-1.34.3.05.17,1.32.17,1.32l2.3.4-.62,1.78H90.93l-3.88,2.19-10.35,1.1-2.1,1.9-19.45-3.41-.57-1.54Z"/><path class="cls-10" d="M58.26,128.37a3.51,3.51,0,0,0-1.44,2l18.52,3.25s.44-1.72,1.32-2Z"/><path class="cls-10" d="M77.36,132.46a4.06,4.06,0,0,0-.7,1.38s10.64,2.58,14,5.31C90.62,139.15,89,135.23,77.36,132.46Z"/><path class="cls-10" d="M56.88,128.42a4.21,4.21,0,0,0-1.13,2L3,123.61a2,2,0,0,1,1.74-1.11C5.92,122.59,56.88,128.42,56.88,128.42Z"/></g><g id="calepin"><polygon class="cls-4" points="73.94 198.01 69.94 190.85 95.54 143 137.06 154.13 138.92 160.08 112.38 205.87 73.94 198.01"/><path d="M96.05,144.18,136.27,155l1.56,5-26,44.78-37.28-7.62-3.52-6.28,25-46.67m-1-2.34-.75,1.4-25,46.67-.52,1,.53,1,3.52,6.28.45.8.9.18,37.28,7.62,1.41.29.72-1.24,26-44.78.44-.76-.26-.84-1.56-5-.33-1.05-1.06-.28L96.57,142.24,95,141.83Z"/><g class="cls-25"><path class="cls-26" d="M134.21,164.93l-.33-.19a1.61,1.61,0,0,1-.28-2.11,1.65,1.65,0,0,1,1.41-1.09h.31l.33.2a1.6,1.6,0,0,1,.28,2.1,1.65,1.65,0,0,1-1.41,1.09Z"/><path d="M135,162.54l.08,0c.14.1.12.48-.06.85s-.36.52-.51.52l-.08,0c-.14-.1-.12-.48.06-.85s.36-.52.5-.52m0-2a2.63,2.63,0,0,0-2.31,1.66,2.58,2.58,0,0,0,.61,3.36,2.15,2.15,0,0,0,1.21.38,2.63,2.63,0,0,0,2.31-1.66,2.57,2.57,0,0,0-.63-3.38,2.11,2.11,0,0,0-1.19-.36Z"/></g><path class="cls-27" d="M135.5,164.74a4.09,4.09,0,0,1-1.29-.21l-.46-.15-.16-.46a1.84,1.84,0,0,1-.08-.89,1.92,1.92,0,0,1,.27-.76l.42-.67.79.28.07,0a1.57,1.57,0,0,0,.44.06c1.29,0,2.62-1.57,3.08-3.66.56-2.48-.25-5.09-1.73-5.59a1.56,1.56,0,0,0-.49-.08,3.13,3.13,0,0,0-2.4,1.84l-.38.68-1-.28-1.54-.52.54-1c1.13-2.16,2.93-3.46,4.82-3.46a4.08,4.08,0,0,1,1.3.21c2.87,1,4.42,4.87,3.52,8.88C140.4,162.36,138.07,164.74,135.5,164.74Z"/><path d="M136.34,150.86a3.08,3.08,0,0,1,1,.16c2.35.79,3.64,4.25,2.86,7.72-.67,3-2.65,5-4.69,5a3.08,3.08,0,0,1-1-.16.83.83,0,0,1,0-.41.92.92,0,0,1,.13-.36l.06,0a2.54,2.54,0,0,0,.81.13c1.75,0,3.47-1.8,4.06-4.44.69-3.05-.39-6.08-2.39-6.75a2.53,2.53,0,0,0-.81-.13,4,4,0,0,0-3.27,2.35l-.29-.08-.38-.13c.94-1.8,2.42-2.92,3.94-2.92m0-2h0c-2.27,0-4.41,1.49-5.71,4l-1.08,2.07,2.22.75.38.13.06,0,.06,0,.29.08,1.5.41.76-1.36c.52-.92,1.15-1.33,1.53-1.33l.17,0c.77.26,1.59,2.15,1.08,4.42-.42,1.88-1.5,2.88-2.11,2.88l-.13,0-.07,0-1.5-.53-.85,1.35a2.91,2.91,0,0,0-.41,1.14,2.84,2.84,0,0,0,.13,1.38l.33.91.92.31a5.09,5.09,0,0,0,1.6.26c3,0,5.78-2.7,6.64-6.57,1-4.51-.82-8.92-4.17-10a5.08,5.08,0,0,0-1.62-.27Z"/><g class="cls-25"><path class="cls-26" d="M132.93,164.62l-.33-.19a1.61,1.61,0,0,1-.28-2.11,1.64,1.64,0,0,1,1.41-1.09H134l.33.2a1.6,1.6,0,0,1,.28,2.11,1.65,1.65,0,0,1-1.41,1.09Z"/><path d="M133.72,162.23l.08,0c.14.1.12.48-.06.85s-.36.52-.51.52l-.08,0c-.14-.1-.12-.48.06-.85s.36-.52.5-.52m0-2a2.63,2.63,0,0,0-2.31,1.66,2.58,2.58,0,0,0,.61,3.35,2.15,2.15,0,0,0,1.22.38,2.63,2.63,0,0,0,2.31-1.66,2.57,2.57,0,0,0-.63-3.37,2.12,2.12,0,0,0-1.2-.37Z"/></g><path class="cls-28" d="M134.21,164.43a4.1,4.1,0,0,1-1.29-.21l-.47-.16-.16-.47a1.87,1.87,0,0,1-.07-.88,1.9,1.9,0,0,1,.27-.75l.44-.71.77.31a1.5,1.5,0,0,0,.51.09c1.29,0,2.62-1.57,3.08-3.66.56-2.48-.25-5.09-1.73-5.59a1.56,1.56,0,0,0-.49-.08,3.13,3.13,0,0,0-2.4,1.84l-.42.74-.79-.28-.78-.29-.91-.46.48-.9c1.13-2.15,2.93-3.43,4.81-3.43a4.09,4.09,0,0,1,1.31.21c2.87,1,4.42,4.87,3.52,8.88C139.11,162.05,136.78,164.43,134.21,164.43Z"/><path d="M135.05,150.55a3.09,3.09,0,0,1,1,.16c2.36.79,3.64,4.25,2.86,7.72-.67,3-2.65,5-4.69,5a3.08,3.08,0,0,1-1-.16.86.86,0,0,1,0-.41.92.92,0,0,1,.12-.36l.06,0a2.54,2.54,0,0,0,.81.13c1.75,0,3.47-1.8,4.06-4.44.68-3.05-.39-6.08-2.39-6.75a2.54,2.54,0,0,0-.81-.13,4,4,0,0,0-3.27,2.35l-.66-.24a4.76,4.76,0,0,1,3.92-2.89m0-2c-2.26,0-4.39,1.48-5.69,4l-1,1.81,1.83.91a7.28,7.28,0,0,0,.89.33l1.58.56.82-1.46c.52-.92,1.15-1.33,1.53-1.33l.17,0c.77.26,1.59,2.15,1.08,4.42-.42,1.88-1.5,2.88-2.11,2.88l-.14,0-1.54-.62-.89,1.42a2.91,2.91,0,0,0-.41,1.15,2.85,2.85,0,0,0,.12,1.34l.32.94.94.31a5.09,5.09,0,0,0,1.6.26c3,0,5.78-2.7,6.64-6.57,1-4.51-.82-8.92-4.17-10a5.09,5.09,0,0,0-1.63-.27Z"/><g class="cls-25"><path class="cls-26" d="M130.14,163.81l-.33-.19a1.61,1.61,0,0,1-.28-2.11,1.65,1.65,0,0,1,1.41-1.09h.31l.33.2a1.6,1.6,0,0,1,.28,2.11,1.65,1.65,0,0,1-1.41,1.09Z"/><path d="M130.94,161.42l.08,0c.14.1.12.48-.06.85s-.36.52-.51.52l-.08,0c-.14-.1-.12-.48.06-.85s.36-.52.51-.52m0-2a2.64,2.64,0,0,0-2.31,1.66,2.58,2.58,0,0,0,.62,3.37,2.13,2.13,0,0,0,1.2.37,2.63,2.63,0,0,0,2.31-1.66,2.58,2.58,0,0,0-.61-3.37,2.13,2.13,0,0,0-1.2-.37Z"/></g><path class="cls-27" d="M131.43,163.62a4.09,4.09,0,0,1-1.29-.21l-.47-.16-.16-.47a1.85,1.85,0,0,1-.07-.88,1.92,1.92,0,0,1,.26-.74l.42-.68.8.27.07,0a1.65,1.65,0,0,0,.43.06c1.29,0,2.62-1.57,3.08-3.66.63-2.78-.39-5.14-1.73-5.59a1.56,1.56,0,0,0-.49-.08,3.13,3.13,0,0,0-2.4,1.84l-.38.68-1-.28-1.55-.52.54-1c1.13-2.16,2.93-3.46,4.82-3.46a4.08,4.08,0,0,1,1.3.21c2.87,1,4.42,4.87,3.51,8.88C136.33,161.24,134,163.62,131.43,163.62Z"/><path d="M132.28,149.74a3.07,3.07,0,0,1,1,.16c2.36.79,3.64,4.25,2.86,7.72-.67,3-2.65,5-4.69,5a3.09,3.09,0,0,1-1-.16.85.85,0,0,1,0-.41.93.93,0,0,1,.12-.36l.06,0a2.54,2.54,0,0,0,.81.13c1.75,0,3.47-1.8,4.06-4.44.68-3-.39-6.08-2.39-6.75a2.54,2.54,0,0,0-.81-.13,4,4,0,0,0-3.27,2.35l-.29-.08-.38-.13c.94-1.8,2.42-2.92,3.94-2.92m0-2h0c-2.27,0-4.41,1.49-5.71,4l-1.08,2.07,2.22.75.38.13.06,0,.06,0,.29.08,1.5.41.76-1.36c.52-.92,1.15-1.33,1.53-1.33l.18,0c.77.26,1.59,2.15,1.08,4.42-.42,1.88-1.5,2.88-2.11,2.88l-.13,0-.09,0-1.51-.52-.84,1.36a2.92,2.92,0,0,0-.4,1.13,2.82,2.82,0,0,0,.12,1.34l.32.94.94.31a5.1,5.1,0,0,0,1.61.26c3,0,5.77-2.7,6.64-6.57,1-4.51-.82-8.92-4.17-10a5.08,5.08,0,0,0-1.62-.27Z"/><g class="cls-25"><path class="cls-26" d="M128.86,163.51l-.33-.19a1.61,1.61,0,0,1-.28-2.11,1.65,1.65,0,0,1,1.41-1.09H130l.33.2a1.61,1.61,0,0,1,.28,2.11,1.65,1.65,0,0,1-1.41,1.09Z"/><path d="M129.65,161.11l.08,0c.14.1.12.48-.06.85s-.36.52-.51.52l-.08,0c-.14-.1-.12-.48.06-.85s.36-.52.51-.52m0-2a2.63,2.63,0,0,0-2.31,1.66,2.58,2.58,0,0,0,.62,3.37,2.14,2.14,0,0,0,1.2.37,2.63,2.63,0,0,0,2.31-1.66,2.58,2.58,0,0,0-.61-3.37,2.14,2.14,0,0,0-1.21-.37Z"/></g><path class="cls-28" d="M130.14,163.31a4.1,4.1,0,0,1-1.29-.21l-.47-.16-.16-.47a1.87,1.87,0,0,1-.07-.87,1.92,1.92,0,0,1,.26-.74l.42-.7.81.29.07,0a1.64,1.64,0,0,0,.43.06c1.29,0,2.62-1.57,3.08-3.66.63-2.78-.39-5.14-1.73-5.59a1.54,1.54,0,0,0-.49-.08,3.13,3.13,0,0,0-2.4,1.84l-.41.73-.79-.28a5.19,5.19,0,0,1-.82-.31l-.84-.48.45-.86c1.13-2.15,2.92-3.43,4.81-3.43a4.09,4.09,0,0,1,1.31.22c2.87,1,4.42,4.87,3.52,8.88C135,160.93,132.71,163.31,130.14,163.31Z"/><path d="M131,149.43a3.08,3.08,0,0,1,1,.16c2.35.79,3.64,4.25,2.86,7.72-.67,3-2.65,5-4.69,5a3.08,3.08,0,0,1-1-.16.87.87,0,0,1,0-.41.93.93,0,0,1,.12-.37l.06,0a2.54,2.54,0,0,0,.81.13c1.75,0,3.47-1.8,4.06-4.44.69-3.05-.39-6.08-2.39-6.75a2.53,2.53,0,0,0-.81-.13,4,4,0,0,0-3.27,2.35l-.66-.24a4.76,4.76,0,0,1,3.92-2.89m0-2c-2.26,0-4.39,1.48-5.69,4l-.9,1.71,1.68,1a5.43,5.43,0,0,0,1,.38l1.58.55.82-1.46c.52-.92,1.15-1.33,1.53-1.33l.17,0c.77.26,1.59,2.15,1.08,4.42-.42,1.88-1.5,2.88-2.11,2.88l-.13,0-.07,0-1.54-.55-.85,1.39a2.94,2.94,0,0,0-.39,1.13,2.85,2.85,0,0,0,.11,1.32l.32.95.95.31a5.09,5.09,0,0,0,1.61.26c3,0,5.77-2.7,6.64-6.56,1-4.51-.82-8.92-4.17-10.05a5.09,5.09,0,0,0-1.63-.27Z"/><g class="cls-25"><path class="cls-26" d="M126.33,162.82l-.33-.19a1.6,1.6,0,0,1-.28-2.11,1.64,1.64,0,0,1,1.41-1.09h.31l.33.19a1.6,1.6,0,0,1,.28,2.11,1.65,1.65,0,0,1-1.41,1.09Z"/><path d="M127.13,160.43l.08,0c.14.1.12.48-.06.85s-.36.52-.51.52l-.08,0c-.14-.1-.12-.48.06-.85s.36-.52.51-.52m0-2a2.63,2.63,0,0,0-2.31,1.67,2.57,2.57,0,0,0,.62,3.36,2.14,2.14,0,0,0,1.2.37,2.63,2.63,0,0,0,2.31-1.66,2.58,2.58,0,0,0-.62-3.37,2.13,2.13,0,0,0-1.2-.37Z"/></g><path class="cls-27" d="M127.62,162.63a4.1,4.1,0,0,1-1.29-.21l-.47-.16-.16-.47a1.86,1.86,0,0,1-.07-.88,1.91,1.91,0,0,1,.26-.74l.42-.68.81.28.08,0a1.68,1.68,0,0,0,.42.05c1.29,0,2.62-1.58,3.09-3.66.56-2.48-.25-5.09-1.73-5.59a1.55,1.55,0,0,0-.49-.08,3.13,3.13,0,0,0-2.4,1.84l-.38.68-1-.28-1.55-.52.54-1c1.13-2.17,2.93-3.46,4.82-3.46a4.08,4.08,0,0,1,1.3.21c2.87,1,4.42,4.87,3.52,8.88C132.52,160.25,130.19,162.63,127.62,162.63Z"/><path d="M128.46,148.75a3.08,3.08,0,0,1,1,.16c2.35.79,3.64,4.25,2.86,7.72-.67,3-2.65,5-4.69,5a3.08,3.08,0,0,1-1-.16.85.85,0,0,1,0-.41.9.9,0,0,1,.12-.36l.06,0a2.54,2.54,0,0,0,.81.13c1.75,0,3.47-1.8,4.06-4.44.69-3-.39-6.08-2.39-6.75a2.54,2.54,0,0,0-.81-.13,4,4,0,0,0-3.27,2.35l-.29-.08-.38-.13c.94-1.8,2.42-2.92,3.94-2.92m0-2h0c-2.27,0-4.41,1.49-5.71,4l-1.08,2.08,2.22.74.38.13.05,0,.06,0,.29.08,1.5.41.76-1.36c.52-.92,1.15-1.33,1.53-1.33l.18,0c.77.26,1.59,2.15,1.08,4.42-.42,1.88-1.5,2.88-2.11,2.88l-.13,0-.09,0-1.51-.52-.84,1.36a2.9,2.9,0,0,0-.41,1.15,2.82,2.82,0,0,0,.12,1.33l.32.94.94.31a5.09,5.09,0,0,0,1.6.26c3,0,5.77-2.7,6.64-6.57,1-4.51-.82-8.92-4.17-10a5.08,5.08,0,0,0-1.62-.27Z"/><g class="cls-25"><path class="cls-26" d="M125,162.51l-.33-.2a1.6,1.6,0,0,1-.28-2.11,1.65,1.65,0,0,1,1.41-1.09h.31l.33.19a1.6,1.6,0,0,1,.28,2.11,1.64,1.64,0,0,1-1.41,1.09Z"/><path d="M125.84,160.12l.08,0c.14.1.12.48-.06.85s-.36.52-.5.52l-.08,0c-.14-.1-.12-.48.06-.85s.36-.52.51-.52m0-2a2.63,2.63,0,0,0-2.31,1.66,2.57,2.57,0,0,0,.62,3.37,2.12,2.12,0,0,0,1.2.37,2.63,2.63,0,0,0,2.31-1.67,2.57,2.57,0,0,0-.62-3.36,2.13,2.13,0,0,0-1.2-.37Z"/></g><path class="cls-28" d="M126.33,162.32a4.08,4.08,0,0,1-1.29-.21l-.47-.15-.16-.46a1.85,1.85,0,0,1-.08-.88,1.94,1.94,0,0,1,.26-.75l.42-.68.8.28.07,0a1.66,1.66,0,0,0,.42.05c1.29,0,2.62-1.57,3.08-3.66.63-2.78-.39-5.14-1.73-5.59a1.54,1.54,0,0,0-.49-.08,3.13,3.13,0,0,0-2.4,1.84l-.41.73-.79-.28a5.32,5.32,0,0,1-.82-.31l-.85-.48.45-.86c1.13-2.14,2.93-3.42,4.81-3.42a4.08,4.08,0,0,1,1.31.22c2.87,1,4.42,4.87,3.52,8.88C131.23,159.94,128.9,162.32,126.33,162.32Z"/><path d="M127.17,148.44a3.09,3.09,0,0,1,1,.16c2.35.79,3.64,4.25,2.86,7.72-.67,3-2.65,5-4.69,5a3.09,3.09,0,0,1-1-.16.84.84,0,0,1,0-.41.93.93,0,0,1,.13-.36l.06,0a2.54,2.54,0,0,0,.81.13c1.75,0,3.47-1.8,4.06-4.44.69-3.05-.38-6.08-2.39-6.75a2.54,2.54,0,0,0-.81-.13,4,4,0,0,0-3.27,2.35l-.66-.24a4.76,4.76,0,0,1,3.92-2.89m0-2c-2.26,0-4.39,1.48-5.69,4l-.91,1.73,1.71,1a5.66,5.66,0,0,0,1,.38l1.58.55.82-1.46c.52-.92,1.15-1.33,1.53-1.33l.18,0c.76.26,1.58,2.15,1.07,4.42-.42,1.88-1.5,2.88-2.11,2.88l-.13,0-.09,0-1.51-.53-.84,1.36a2.93,2.93,0,0,0-.4,1.13,2.84,2.84,0,0,0,.12,1.36l.33.93.93.31a5.09,5.09,0,0,0,1.6.26c3,0,5.77-2.7,6.64-6.57,1-4.51-.82-8.92-4.17-10a5.1,5.1,0,0,0-1.63-.27Z"/><g class="cls-25"><path class="cls-26" d="M122.24,161.78l-.33-.2a1.6,1.6,0,0,1-.27-2.11,1.64,1.64,0,0,1,1.41-1.09h.31l.33.2a1.6,1.6,0,0,1,.28,2.11,1.64,1.64,0,0,1-1.41,1.09Z"/><path d="M123,159.39l.08,0c.14.1.12.48-.06.85s-.36.52-.5.52l-.08,0c-.15-.1-.12-.48.06-.85s.36-.52.5-.52m0-2a2.63,2.63,0,0,0-2.31,1.66,2.56,2.56,0,0,0,.64,3.37,2.1,2.1,0,0,0,1.19.36,2.63,2.63,0,0,0,2.31-1.67,2.57,2.57,0,0,0-.62-3.36,2.13,2.13,0,0,0-1.21-.37Z"/></g><path class="cls-27" d="M123.53,161.59a4.1,4.1,0,0,1-1.29-.21l-.47-.15-.16-.46a1.85,1.85,0,0,1-.08-.88,1.91,1.91,0,0,1,.27-.75l.42-.68.8.28h0a1.57,1.57,0,0,0,.46.07c1.29,0,2.62-1.57,3.08-3.66.62-2.78-.39-5.14-1.73-5.59a1.54,1.54,0,0,0-.49-.08,3.12,3.12,0,0,0-2.4,1.84l-.38.68-1-.28L119,151.2l.54-1c1.13-2.17,2.93-3.46,4.82-3.46a4.09,4.09,0,0,1,1.31.22c2.87,1,4.42,4.87,3.51,8.88C128.43,159.21,126.1,161.59,123.53,161.59Z"/><path d="M124.37,147.71a3.08,3.08,0,0,1,1,.16c2.36.79,3.64,4.25,2.86,7.72-.67,3-2.65,5-4.69,5a3.08,3.08,0,0,1-1-.16.85.85,0,0,1,0-.41.91.91,0,0,1,.13-.36l.06,0a2.54,2.54,0,0,0,.81.13c1.75,0,3.47-1.8,4.06-4.44.68-3.05-.39-6.08-2.39-6.75a2.53,2.53,0,0,0-.81-.13,4,4,0,0,0-3.27,2.35l-.29-.08-.38-.13c.94-1.8,2.42-2.92,3.94-2.92m0-2h0c-2.27,0-4.41,1.49-5.71,4l-1.08,2.07,2.22.75.38.13.06,0,.06,0,.29.08,1.5.4.76-1.35c.51-.91,1.15-1.33,1.53-1.33l.17,0c.77.26,1.59,2.15,1.08,4.42-.42,1.88-1.5,2.88-2.11,2.88l-.13,0-.08,0-1.51-.53-.85,1.36a2.91,2.91,0,0,0-.41,1.15,2.83,2.83,0,0,0,.12,1.35l.33.92.93.31a5.09,5.09,0,0,0,1.6.26c3,0,5.78-2.7,6.64-6.57,1-4.51-.82-8.92-4.17-10a5.08,5.08,0,0,0-1.62-.27Z"/><g class="cls-25"><path class="cls-26" d="M121,161.47l-.33-.19a1.6,1.6,0,0,1-.28-2.11,1.64,1.64,0,0,1,1.41-1.09h.31l.33.2a1.6,1.6,0,0,1,.28,2.11,1.65,1.65,0,0,1-1.41,1.09Z"/><path d="M121.75,159.08l.08,0c.15.1.12.48-.06.85s-.36.52-.51.52l-.08,0c-.14-.1-.12-.48.06-.85s.36-.52.5-.52m0-2a2.63,2.63,0,0,0-2.31,1.66,2.57,2.57,0,0,0,.62,3.36,2.13,2.13,0,0,0,1.2.37,2.63,2.63,0,0,0,2.31-1.66,2.56,2.56,0,0,0-.64-3.37,2.11,2.11,0,0,0-1.19-.36Z"/></g><path class="cls-28" d="M122.24,161.28a4.1,4.1,0,0,1-1.29-.21l-.47-.16-.16-.47a1.86,1.86,0,0,1-.07-.88,1.89,1.89,0,0,1,.26-.74l.44-.72.79.32a1.47,1.47,0,0,0,.5.09c1.29,0,2.62-1.57,3.08-3.66.63-2.78-.39-5.14-1.73-5.59a1.54,1.54,0,0,0-.49-.08,3.13,3.13,0,0,0-2.4,1.84l-.42.74-.78-.28-.8-.29-.89-.46.47-.89c1.13-2.14,2.93-3.42,4.81-3.42a4.09,4.09,0,0,1,1.31.22c2.87,1,4.42,4.87,3.52,8.88C127.14,158.9,124.81,161.28,122.24,161.28Z"/><path d="M123.08,147.4a3.08,3.08,0,0,1,1,.16c2.35.79,3.64,4.25,2.86,7.72-.67,3-2.65,5-4.69,5a3.08,3.08,0,0,1-1-.16.85.85,0,0,1,0-.41.92.92,0,0,1,.12-.37l.06,0a2.54,2.54,0,0,0,.81.13c1.75,0,3.47-1.8,4.06-4.44.69-3.05-.39-6.08-2.39-6.75a2.54,2.54,0,0,0-.81-.13,4,4,0,0,0-3.27,2.35l-.66-.24a4.77,4.77,0,0,1,3.93-2.89m0-2c-2.26,0-4.39,1.48-5.69,4l-.94,1.78,1.78.93a6.46,6.46,0,0,0,.93.35l1.58.55.82-1.46c.52-.92,1.15-1.33,1.53-1.33l.18,0c.77.26,1.58,2.15,1.07,4.42-.42,1.88-1.5,2.88-2.11,2.88l-.13,0-1.57-.63-.89,1.44a2.92,2.92,0,0,0-.4,1.14,2.81,2.81,0,0,0,.12,1.33l.32.94.94.31a5.09,5.09,0,0,0,1.6.26c3,0,5.77-2.7,6.64-6.57,1-4.51-.82-8.92-4.17-10a5.09,5.09,0,0,0-1.63-.27Z"/><g class="cls-25"><path class="cls-26" d="M118.43,160.79l-.33-.19a1.61,1.61,0,0,1-.29-2.11,1.65,1.65,0,0,1,1.41-1.09h.31l.33.2a1.6,1.6,0,0,1,.28,2.11,1.64,1.64,0,0,1-1.41,1.09Z"/><path d="M119.23,158.4l.08,0c.14.1.12.48-.06.85s-.36.52-.51.52l-.08,0c-.14-.1-.11-.48.06-.85s.36-.52.51-.52m0-2a2.63,2.63,0,0,0-2.31,1.66,2.59,2.59,0,0,0,.6,3.36,2.16,2.16,0,0,0,1.22.38,2.63,2.63,0,0,0,2.31-1.67,2.57,2.57,0,0,0-.63-3.36,2.12,2.12,0,0,0-1.2-.37Z"/></g><path class="cls-27" d="M119.72,160.6a4.1,4.1,0,0,1-1.29-.21l-.47-.16-.16-.47a1.87,1.87,0,0,1-.07-.87,2,2,0,0,1,.26-.75l.42-.69.8.27.07,0a1.58,1.58,0,0,0,.43.06c1.29,0,2.62-1.57,3.08-3.66.56-2.48-.25-5.09-1.73-5.59a1.55,1.55,0,0,0-.49-.08,3.13,3.13,0,0,0-2.4,1.84l-.38.68-1-.28-1.55-.52.54-1c1.13-2.16,2.93-3.46,4.82-3.46a4.08,4.08,0,0,1,1.3.21c2.87,1,4.42,4.87,3.52,8.88C124.62,158.22,122.29,160.6,119.72,160.6Z"/><path d="M120.56,146.72a3.07,3.07,0,0,1,1,.16c2.36.79,3.64,4.25,2.86,7.72-.67,3-2.65,5-4.69,5a3.09,3.09,0,0,1-1-.16.87.87,0,0,1,0-.41,1,1,0,0,1,.12-.36l.06,0a2.54,2.54,0,0,0,.81.13c1.75,0,3.47-1.8,4.06-4.44.68-3-.39-6.08-2.39-6.75a2.54,2.54,0,0,0-.81-.13,4,4,0,0,0-3.27,2.35l-.29-.08-.38-.13c.94-1.8,2.42-2.92,3.94-2.92m0-2h0c-2.27,0-4.41,1.49-5.71,4l-1.08,2.07,2.22.75.38.13.06,0,.06,0,.29.08,1.5.4.76-1.35c.52-.92,1.15-1.33,1.53-1.33l.17,0c.77.26,1.58,2.15,1.08,4.42-.42,1.88-1.5,2.88-2.11,2.88l-.13,0-.1,0-1.52-.51-.83,1.37a3,3,0,0,0-.39,1.11,2.89,2.89,0,0,0,.12,1.35l.32.94.94.31a5.09,5.09,0,0,0,1.6.26c3,0,5.78-2.7,6.64-6.57,1-4.51-.82-8.92-4.17-10a5.07,5.07,0,0,0-1.62-.27Z"/><g class="cls-25"><path class="cls-26" d="M117.14,160.48l-.33-.2a1.61,1.61,0,0,1-.28-2.11,1.65,1.65,0,0,1,1.41-1.09h.31l.33.19a1.61,1.61,0,0,1,.28,2.11,1.65,1.65,0,0,1-1.41,1.09Z"/><path d="M117.94,158.09l.08,0c.14.1.12.48-.06.85s-.36.52-.51.52l-.08,0c-.14-.1-.12-.48.06-.85s.36-.52.51-.52m0-2a2.63,2.63,0,0,0-2.31,1.66,2.58,2.58,0,0,0,.62,3.37,2.13,2.13,0,0,0,1.2.37,2.63,2.63,0,0,0,2.31-1.66,2.58,2.58,0,0,0-.61-3.36,2.14,2.14,0,0,0-1.21-.38Z"/></g><path class="cls-28" d="M118.43,160.29a4.1,4.1,0,0,1-1.29-.21l-.47-.15-.16-.46a1.85,1.85,0,0,1-.08-.88,1.93,1.93,0,0,1,.26-.75l.44-.7.77.3a1.51,1.51,0,0,0,.51.09c1.29,0,2.62-1.57,3.08-3.66.63-2.78-.39-5.14-1.73-5.59a1.54,1.54,0,0,0-.49-.08,3.13,3.13,0,0,0-2.4,1.84l-.41.73-.79-.28a4.63,4.63,0,0,1-.84-.32l-.82-.48.44-.84c1.13-2.15,2.93-3.43,4.81-3.43a4.09,4.09,0,0,1,1.31.22c2.87,1,4.42,4.87,3.52,8.88C123.33,157.91,121,160.29,118.43,160.29Z"/><path d="M119.27,146.41a3.08,3.08,0,0,1,1,.16c2.36.79,3.64,4.25,2.86,7.72-.67,3-2.65,5-4.69,5a3.08,3.08,0,0,1-1-.16.85.85,0,0,1,0-.41.92.92,0,0,1,.12-.36l.06,0a2.54,2.54,0,0,0,.81.13c1.75,0,3.47-1.8,4.06-4.44.69-3.05-.38-6.08-2.39-6.75a2.54,2.54,0,0,0-.81-.13,4,4,0,0,0-3.27,2.35l-.66-.24a4.76,4.76,0,0,1,3.92-2.89m0-2c-2.26,0-4.39,1.48-5.69,4l-.89,1.69,1.65,1a5.14,5.14,0,0,0,1,.4l1.58.55.82-1.46c.52-.92,1.15-1.33,1.53-1.33l.17,0c.77.26,1.59,2.15,1.08,4.42-.42,1.88-1.5,2.88-2.11,2.88l-.14,0h0l-1.54-.6-.87,1.41a2.91,2.91,0,0,0-.41,1.14,2.83,2.83,0,0,0,.12,1.35l.33.92.93.31a5.09,5.09,0,0,0,1.6.26c3,0,5.77-2.7,6.64-6.56,1-4.51-.82-8.92-4.17-10.05a5.09,5.09,0,0,0-1.63-.27Z"/><g class="cls-25"><path class="cls-26" d="M114.39,159.68l-.33-.2a1.61,1.61,0,0,1-.28-2.11,1.65,1.65,0,0,1,1.41-1.09h.3l.33.19a1.61,1.61,0,0,1,.29,2.11,1.64,1.64,0,0,1-1.41,1.09Z"/><path d="M115.19,157.29l.08,0c.14.1.12.48-.06.85s-.36.52-.51.52l-.08,0c-.14-.1-.12-.48.06-.85s.36-.52.51-.52m0-2a2.63,2.63,0,0,0-2.31,1.66,2.58,2.58,0,0,0,.61,3.36,2.13,2.13,0,0,0,1.21.37A2.63,2.63,0,0,0,117,159a2.58,2.58,0,0,0-.61-3.36,2.15,2.15,0,0,0-1.21-.37Z"/></g><path class="cls-27" d="M115.68,159.49a4.1,4.1,0,0,1-1.29-.21l-.47-.15-.16-.46a1.88,1.88,0,0,1-.08-.87,2,2,0,0,1,.26-.75l.43-.71.82.31.06,0a1.68,1.68,0,0,0,.42.05c1.29,0,2.62-1.57,3.09-3.66.62-2.78-.39-5.14-1.73-5.59a1.54,1.54,0,0,0-.49-.08,3.13,3.13,0,0,0-2.4,1.84l-.38.68-1-.29-1.54-.52.54-1c1.13-2.17,2.93-3.46,4.82-3.46a4.09,4.09,0,0,1,1.31.22c2.87,1,4.42,4.87,3.52,8.88C120.58,157.11,118.25,159.49,115.68,159.49Z"/><path d="M116.53,145.61a3.08,3.08,0,0,1,1,.16c2.35.79,3.64,4.25,2.86,7.72-.67,3-2.65,5-4.69,5a3.08,3.08,0,0,1-1-.16.87.87,0,0,1,0-.41,1,1,0,0,1,.12-.36l.06,0a2.54,2.54,0,0,0,.81.13c1.75,0,3.47-1.8,4.06-4.44.68-3.05-.39-6.08-2.39-6.75a2.54,2.54,0,0,0-.81-.13,4,4,0,0,0-3.27,2.35l-.29-.08-.38-.13c.94-1.8,2.42-2.92,3.93-2.92m0-2h0c-2.27,0-4.41,1.49-5.71,4l-1.08,2.08,2.22.74.38.13.05,0h.05l.29.08,1.5.41.77-1.36c.52-.92,1.15-1.33,1.53-1.33l.17,0c.77.26,1.59,2.15,1.08,4.42-.42,1.88-1.5,2.88-2.11,2.88l-.13,0h0l-1.56-.59-.86,1.43a3,3,0,0,0-.39,1.1,2.92,2.92,0,0,0,.12,1.37l.32.93.93.31a5.09,5.09,0,0,0,1.6.26c3,0,5.77-2.7,6.64-6.57,1-4.51-.82-8.92-4.17-10.05a5.08,5.08,0,0,0-1.62-.27Z"/><g class="cls-25"><path class="cls-26" d="M113.11,159.38l-.33-.2a1.6,1.6,0,0,1-.28-2.11A1.64,1.64,0,0,1,113.9,156h.31l.33.2a1.61,1.61,0,0,1,.28,2.11,1.65,1.65,0,0,1-1.41,1.09Z"/><path d="M113.9,157l.08,0c.14.1.12.48-.06.85s-.36.52-.5.52l-.08,0c-.14-.1-.12-.48.06-.85s.36-.52.5-.52m0-2a2.63,2.63,0,0,0-2.31,1.66,2.57,2.57,0,0,0,.62,3.36,2.13,2.13,0,0,0,1.2.37,2.63,2.63,0,0,0,2.31-1.66,2.58,2.58,0,0,0-.61-3.36,2.13,2.13,0,0,0-1.21-.37Z"/></g><path class="cls-28" d="M114.39,159.18a4.1,4.1,0,0,1-1.29-.21l-.47-.16-.16-.47a1.88,1.88,0,0,1-.07-.87,2,2,0,0,1,.26-.75l.4-.66.81.24.1,0a1.72,1.72,0,0,0,.42.05c1.29,0,2.62-1.58,3.08-3.66.56-2.48-.25-5.09-1.73-5.59a1.55,1.55,0,0,0-.49-.08,3.13,3.13,0,0,0-2.4,1.84l-.41.73-.79-.28a5.21,5.21,0,0,1-.82-.31l-.85-.48.45-.86c1.13-2.14,2.92-3.42,4.81-3.42a4.09,4.09,0,0,1,1.31.22c2.87,1,4.42,4.87,3.52,8.88C119.3,156.8,117,159.18,114.39,159.18Z"/><path d="M115.23,145.3a3.08,3.08,0,0,1,1,.16c2.36.79,3.64,4.25,2.86,7.71-.67,3-2.65,5-4.69,5a3.09,3.09,0,0,1-1-.16.88.88,0,0,1,0-.41,1,1,0,0,1,.12-.36l.06,0a2.54,2.54,0,0,0,.81.13c1.75,0,3.47-1.8,4.06-4.44.69-3-.39-6.08-2.39-6.75a2.54,2.54,0,0,0-.81-.13,4,4,0,0,0-3.27,2.35l-.66-.24a4.76,4.76,0,0,1,3.92-2.89m0-2c-2.26,0-4.39,1.48-5.69,4l-.9,1.72,1.69,1a5.45,5.45,0,0,0,1,.38l1.58.55.82-1.46c.52-.92,1.15-1.33,1.53-1.33l.17,0c.76.26,1.58,2.15,1.07,4.42-.42,1.88-1.5,2.88-2.11,2.88l-.13,0-.18-.06-1.47-.43-.8,1.31a3,3,0,0,0-.39,1.11,2.9,2.9,0,0,0,.11,1.35l.32.94.94.31a5.09,5.09,0,0,0,1.6.26c3,0,5.77-2.7,6.64-6.57,1-4.51-.82-8.92-4.17-10a5.09,5.09,0,0,0-1.63-.27Z"/><g class="cls-25"><path class="cls-26" d="M110.59,158.69l-.33-.19a1.61,1.61,0,0,1-.29-2.12,1.65,1.65,0,0,1,1.41-1.09h.31l.33.19a1.6,1.6,0,0,1,.28,2.11,1.65,1.65,0,0,1-1.41,1.09Z"/><path d="M111.38,156.3l.08,0c.14.1.12.48-.06.85s-.36.52-.51.52l-.08,0c-.14-.1-.12-.48.06-.85s.36-.52.51-.52m0-2a2.63,2.63,0,0,0-2.31,1.66,2.59,2.59,0,0,0,.6,3.36,2.17,2.17,0,0,0,1.22.38A2.63,2.63,0,0,0,113.2,158a2.57,2.57,0,0,0-.62-3.36,2.14,2.14,0,0,0-1.2-.37Z"/></g><path class="cls-27" d="M111.87,158.5a4.08,4.08,0,0,1-1.29-.21l-.47-.15-.16-.46a1.86,1.86,0,0,1-.08-.88,2,2,0,0,1,.26-.74l.42-.69.84.3a1.57,1.57,0,0,0,.46.07c1.29,0,2.62-1.58,3.08-3.66.62-2.78-.39-5.14-1.73-5.59a1.54,1.54,0,0,0-.49-.08,3.13,3.13,0,0,0-2.4,1.84l-.38.68-1-.28-1.55-.52.54-1c1.13-2.16,2.93-3.46,4.82-3.46a4.08,4.08,0,0,1,1.3.21c2.87,1,4.42,4.87,3.52,8.88C116.77,156.12,114.44,158.5,111.87,158.5Z"/><path d="M112.71,144.62a3.07,3.07,0,0,1,1,.16c2.36.79,3.64,4.25,2.86,7.71-.67,3-2.65,5-4.69,5a3.09,3.09,0,0,1-1-.16.84.84,0,0,1,0-.41,1,1,0,0,1,.12-.37l.06,0a2.54,2.54,0,0,0,.81.13c1.75,0,3.47-1.8,4.06-4.44.68-3-.39-6.08-2.39-6.75a2.54,2.54,0,0,0-.81-.13,4,4,0,0,0-3.27,2.35l-.29-.08-.38-.13c.94-1.8,2.42-2.92,3.94-2.92m0-2h0c-2.27,0-4.41,1.49-5.71,4l-1.08,2.07,2.22.75.38.13.06,0,.06,0,.29.08,1.5.4.76-1.35c.52-.92,1.15-1.33,1.53-1.33l.17,0c.77.26,1.59,2.15,1.08,4.42-.42,1.88-1.5,2.88-2.11,2.88l-.13,0-.07,0-1.53-.55-.85,1.39a3,3,0,0,0-.4,1.12A2.84,2.84,0,0,0,109,158l.33.93.93.31a5.09,5.09,0,0,0,1.6.26c3,0,5.77-2.7,6.64-6.57,1-4.51-.82-8.92-4.18-10a5.08,5.08,0,0,0-1.62-.27Z"/><g class="cls-25"><path class="cls-26" d="M109.3,158.38l-.33-.19a1.6,1.6,0,0,1-.28-2.11,1.65,1.65,0,0,1,1.41-1.09h.31l.33.2a1.6,1.6,0,0,1,.28,2.11,1.65,1.65,0,0,1-1.41,1.09Z"/><path d="M110.09,156l.08,0c.14.1.12.48-.06.85s-.36.52-.51.52l-.08,0c-.14-.1-.12-.48.06-.85s.36-.52.51-.52m0-2a2.63,2.63,0,0,0-2.31,1.66,2.58,2.58,0,0,0,.62,3.37,2.13,2.13,0,0,0,1.2.37,2.63,2.63,0,0,0,2.31-1.66,2.57,2.57,0,0,0-.61-3.36,2.13,2.13,0,0,0-1.21-.37Z"/></g><path class="cls-28" d="M110.58,158.19a4.08,4.08,0,0,1-1.29-.21l-.47-.15-.16-.46a2,2,0,0,1,.2-1.65l.44-.69.76.3a1.49,1.49,0,0,0,.51.09c1.29,0,2.62-1.57,3.08-3.66.63-2.78-.39-5.14-1.73-5.59a1.53,1.53,0,0,0-.49-.08,3.13,3.13,0,0,0-2.4,1.84l-.41.73-.79-.28a5.3,5.3,0,0,1-.82-.31l-.85-.48.45-.86c1.13-2.14,2.93-3.42,4.81-3.42a4.09,4.09,0,0,1,1.31.22c2.87,1,4.42,4.87,3.52,8.88C115.48,155.81,113.15,158.19,110.58,158.19Z"/><path d="M111.42,144.31a3.09,3.09,0,0,1,1,.16c2.35.79,3.64,4.25,2.86,7.72-.67,3-2.65,5-4.69,5a3.08,3.08,0,0,1-1-.16.84.84,0,0,1,0-.41.86.86,0,0,1,.12-.36l.06,0a2.54,2.54,0,0,0,.81.13c1.75,0,3.47-1.8,4.06-4.44.68-3-.39-6.08-2.39-6.75a2.53,2.53,0,0,0-.81-.13,4,4,0,0,0-3.27,2.35l-.66-.24a4.77,4.77,0,0,1,3.93-2.89m0-2c-2.26,0-4.39,1.48-5.69,4l-.91,1.73,1.71,1a5.63,5.63,0,0,0,1,.38l1.58.55.82-1.46c.52-.92,1.15-1.33,1.53-1.33l.17,0c.77.26,1.59,2.15,1.08,4.42-.42,1.88-1.5,2.88-2.11,2.88l-.13,0h0l-1.52-.59-.88,1.37a2.85,2.85,0,0,0-.43,1.19,2.78,2.78,0,0,0,.13,1.33l.33.93.93.31a5.09,5.09,0,0,0,1.6.26c3,0,5.78-2.7,6.64-6.57,1-4.51-.82-8.92-4.17-10a5.09,5.09,0,0,0-1.63-.27Z"/><g class="cls-25"><path class="cls-26" d="M106.54,157.59l-.33-.2a1.61,1.61,0,0,1-.28-2.11,1.65,1.65,0,0,1,1.41-1.09h.31l.33.2a1.6,1.6,0,0,1,.28,2.11,1.64,1.64,0,0,1-1.41,1.09Z"/><path d="M107.34,155.19l.08,0c.14.1.12.48-.06.85s-.36.52-.5.52l-.08,0c-.14-.1-.12-.48.06-.85s.36-.52.51-.52m0-2a2.63,2.63,0,0,0-2.31,1.66,2.58,2.58,0,0,0,.62,3.36,2.12,2.12,0,0,0,1.2.37,2.63,2.63,0,0,0,2.31-1.66,2.56,2.56,0,0,0-.62-3.37,2.12,2.12,0,0,0-1.2-.37Z"/></g><path class="cls-27" d="M107.83,157.39a4.09,4.09,0,0,1-1.29-.21l-.47-.16-.16-.47a1.87,1.87,0,0,1-.07-.87,1.94,1.94,0,0,1,.26-.75l.41-.67.8.26.08,0a1.68,1.68,0,0,0,.42.05c1.29,0,2.62-1.57,3.08-3.66.56-2.48-.25-5.09-1.73-5.59a1.53,1.53,0,0,0-.49-.08,3.13,3.13,0,0,0-2.4,1.84l-.38.68-1-.28-1.55-.52.54-1c1.13-2.17,2.93-3.46,4.82-3.46a4.08,4.08,0,0,1,1.3.21c2.88,1,4.42,4.87,3.52,8.88C112.73,155,110.4,157.39,107.83,157.39Z"/><path d="M108.68,143.51a3.08,3.08,0,0,1,1,.16c2.35.79,3.64,4.25,2.86,7.72-.67,3-2.65,5-4.69,5a3.09,3.09,0,0,1-1-.16.86.86,0,0,1,0-.41.92.92,0,0,1,.12-.36l.06,0a2.54,2.54,0,0,0,.81.13c1.75,0,3.47-1.8,4.06-4.44.69-3.05-.39-6.08-2.39-6.75a2.54,2.54,0,0,0-.81-.13,4,4,0,0,0-3.27,2.35l-.29-.08-.38-.13c.94-1.8,2.42-2.92,3.94-2.92m0-2c-2.27,0-4.41,1.49-5.71,4l-1.08,2.07,2.21.75.38.13.06,0,.06,0,.29.08,1.5.4.76-1.35c.52-.92,1.15-1.33,1.53-1.33l.17,0c.77.26,1.59,2.15,1.08,4.42-.42,1.88-1.5,2.88-2.11,2.88l-.13,0-.12,0-1.5-.49-.83,1.34a2.92,2.92,0,0,0-.4,1.14,2.85,2.85,0,0,0,.12,1.33l.32.94.94.31a5.09,5.09,0,0,0,1.6.26c3,0,5.78-2.7,6.64-6.56,1-4.51-.82-8.92-4.17-10.05a5.08,5.08,0,0,0-1.62-.27Z"/><g class="cls-25"><path class="cls-26" d="M105.26,157.28l-.33-.19a1.6,1.6,0,0,1-.28-2.11,1.65,1.65,0,0,1,1.41-1.09h.31l.33.19a1.61,1.61,0,0,1,.28,2.11,1.65,1.65,0,0,1-1.41,1.09Z"/><path d="M106.06,154.88l.08,0c.14.1.12.48-.06.85s-.36.52-.51.52l-.08,0c-.14-.1-.12-.48.06-.85s.36-.52.51-.52m0-2a2.63,2.63,0,0,0-2.31,1.66,2.58,2.58,0,0,0,.61,3.36,2.14,2.14,0,0,0,1.21.37,2.64,2.64,0,0,0,2.31-1.65,2.58,2.58,0,0,0-.61-3.37,2.14,2.14,0,0,0-1.21-.37Z"/></g><path class="cls-28" d="M106.54,157.09a4.1,4.1,0,0,1-1.29-.21l-.47-.16-.16-.47a1.87,1.87,0,0,1-.08-.87,1.94,1.94,0,0,1,.26-.75l.44-.71.78.31a1.46,1.46,0,0,0,.5.09c1.29,0,2.62-1.57,3.08-3.66.56-2.48-.25-5.09-1.73-5.59a1.55,1.55,0,0,0-.49-.08,3.13,3.13,0,0,0-2.4,1.84l-.42.74-.79-.28L103,147l-.89-.46.47-.89c1.13-2.14,2.93-3.42,4.81-3.42a4.09,4.09,0,0,1,1.31.22c2.87,1,4.42,4.87,3.52,8.88C111.44,154.71,109.12,157.09,106.54,157.09Z"/><path d="M107.39,143.2a3.08,3.08,0,0,1,1,.16c2.36.79,3.64,4.25,2.86,7.72-.67,3-2.65,5-4.69,5a3.08,3.08,0,0,1-1-.16.87.87,0,0,1,0-.41.93.93,0,0,1,.13-.36l.06,0a2.54,2.54,0,0,0,.81.13c1.75,0,3.47-1.8,4.06-4.44.69-3.05-.39-6.08-2.39-6.75a2.54,2.54,0,0,0-.81-.13,4,4,0,0,0-3.27,2.35l-.66-.24a4.77,4.77,0,0,1,3.92-2.89m0-2c-2.26,0-4.39,1.48-5.69,4l-.94,1.78,1.78.93a6.44,6.44,0,0,0,.93.35l1.58.55.82-1.46c.52-.91,1.15-1.33,1.53-1.33l.18,0c.77.26,1.59,2.15,1.08,4.42-.42,1.88-1.5,2.88-2.11,2.88l-.13,0h0l-1.56-.62L104,154.1a2.93,2.93,0,0,0-.4,1.13,2.89,2.89,0,0,0,.12,1.35l.32.94.94.31a5.09,5.09,0,0,0,1.6.26c3,0,5.77-2.7,6.64-6.57,1-4.51-.82-8.92-4.17-10a5.08,5.08,0,0,0-1.63-.27Z"/><g class="cls-25"><path class="cls-26" d="M102.73,156.59l-.33-.19a1.6,1.6,0,0,1-.28-2.11,1.64,1.64,0,0,1,1.41-1.09h.31l.33.2a1.6,1.6,0,0,1,.28,2.11,1.64,1.64,0,0,1-1.41,1.09Z"/><path d="M103.53,154.2l.08,0c.14.1.12.48-.06.85s-.36.52-.5.52l-.08,0c-.14-.1-.12-.48.06-.85s.36-.52.5-.52m0-2a2.63,2.63,0,0,0-2.31,1.67,2.57,2.57,0,0,0,.62,3.36,2.13,2.13,0,0,0,1.2.37,2.63,2.63,0,0,0,2.31-1.66,2.57,2.57,0,0,0-.62-3.36,2.13,2.13,0,0,0-1.2-.37Z"/></g><path class="cls-27" d="M104,156.4a4.08,4.08,0,0,1-1.29-.21l-.47-.16-.16-.47a1.9,1.9,0,0,1-.07-.86,2,2,0,0,1,.27-.76l.41-.65.78.24.08,0a1.56,1.56,0,0,0,.45.07c1.29,0,2.62-1.57,3.08-3.66.62-2.78-.39-5.14-1.73-5.59a1.54,1.54,0,0,0-.49-.08,3.13,3.13,0,0,0-2.4,1.84l-.38.68-1-.28L99.5,146l.54-1c1.13-2.17,2.93-3.46,4.82-3.46a4.09,4.09,0,0,1,1.31.21c2.87,1,4.42,4.87,3.52,8.88C108.92,154,106.59,156.4,104,156.4Z"/><path d="M104.86,142.52a3.08,3.08,0,0,1,1,.16c2.35.79,3.64,4.25,2.86,7.72-.67,3-2.65,5-4.69,5a3.09,3.09,0,0,1-1-.16.89.89,0,0,1,0-.41.93.93,0,0,1,.13-.36l.06,0a2.54,2.54,0,0,0,.81.13c1.75,0,3.47-1.8,4.06-4.44.68-3.05-.39-6.08-2.39-6.75a2.54,2.54,0,0,0-.81-.13,4,4,0,0,0-3.27,2.35l-.29-.08-.38-.13c.94-1.8,2.42-2.92,3.93-2.92m0-2h0c-2.27,0-4.41,1.49-5.71,4l-1.08,2.07,2.21.75.38.13.06,0,.06,0,.29.08,1.5.41.76-1.35c.52-.92,1.16-1.34,1.53-1.34l.17,0c.77.26,1.58,2.15,1.08,4.42-.42,1.88-1.5,2.88-2.11,2.88l-.14,0-.14,0-1.47-.45-.81,1.3a3,3,0,0,0-.3,2.47l.32.95.95.31a5.09,5.09,0,0,0,1.6.26c3,0,5.77-2.7,6.64-6.56,1-4.51-.82-8.92-4.17-10a5.08,5.08,0,0,0-1.62-.27Z"/><g class="cls-25"><path class="cls-26" d="M101.44,156.29l-.33-.2a1.6,1.6,0,0,1-.28-2.11,1.64,1.64,0,0,1,1.41-1.09h.31l.33.2a1.6,1.6,0,0,1,.27,2.11,1.64,1.64,0,0,1-1.41,1.09Z"/><path d="M102.24,153.89l.08,0c.14.1.12.48-.06.85s-.36.52-.5.52l-.08,0c-.15-.1-.12-.48.06-.85s.36-.52.5-.52m0-2a2.63,2.63,0,0,0-2.31,1.67,2.57,2.57,0,0,0,.63,3.36,2.12,2.12,0,0,0,1.2.37,2.63,2.63,0,0,0,2.31-1.67,2.56,2.56,0,0,0-.63-3.36,2.11,2.11,0,0,0-1.2-.37Z"/></g><path class="cls-28" d="M102.73,156.09a4.1,4.1,0,0,1-1.29-.21l-.47-.16-.16-.47a1.87,1.87,0,0,1-.07-.87,1.94,1.94,0,0,1,.26-.75l.44-.71.78.31a1.48,1.48,0,0,0,.5.09c1.29,0,2.62-1.57,3.08-3.66.56-2.48-.25-5.09-1.73-5.59a1.55,1.55,0,0,0-.49-.08,3.12,3.12,0,0,0-2.4,1.84l-.42.74-.79-.29-.79-.29-.89-.46.47-.89c1.13-2.14,2.93-3.42,4.81-3.42a4.09,4.09,0,0,1,1.31.22c2.87,1,4.42,4.87,3.51,8.88C107.63,153.72,105.3,156.09,102.73,156.09Z"/><path d="M103.57,142.21a3.09,3.09,0,0,1,1,.16c2.35.79,3.64,4.25,2.86,7.72-.67,3-2.65,5-4.69,5a3.09,3.09,0,0,1-1-.16.87.87,0,0,1,0-.41.94.94,0,0,1,.13-.36l.06,0a2.54,2.54,0,0,0,.81.13c1.75,0,3.47-1.8,4.06-4.44.69-3.05-.39-6.08-2.39-6.75a2.54,2.54,0,0,0-.81-.13,4,4,0,0,0-3.27,2.35l-.66-.24a4.76,4.76,0,0,1,3.92-2.89m0-2c-2.26,0-4.39,1.48-5.69,4l-.94,1.78,1.78.93a6.46,6.46,0,0,0,.93.35l1.58.55.82-1.46c.51-.92,1.15-1.33,1.53-1.33l.17,0c.77.26,1.59,2.15,1.08,4.42-.42,1.88-1.5,2.88-2.11,2.88l-.13,0h0l-1.56-.62-.88,1.42a2.94,2.94,0,0,0-.4,1.13,2.88,2.88,0,0,0,.12,1.35l.32.94.94.31a5.09,5.09,0,0,0,1.6.26c3,0,5.77-2.7,6.64-6.57,1-4.51-.82-8.92-4.17-10a5.09,5.09,0,0,0-1.63-.27Z"/><g class="cls-25"><path class="cls-26" d="M98.76,155.51l-.33-.19a1.61,1.61,0,0,1-.28-2.11,1.65,1.65,0,0,1,1.41-1.09h.3l.33.19a1.6,1.6,0,0,1,.28,2.12,1.64,1.64,0,0,1-1.41,1.09Z"/><path d="M99.56,153.11l.08,0c.14.1.12.48-.06.85s-.36.52-.51.52l-.08,0c-.14-.1-.12-.48.06-.85s.36-.52.51-.52m0-2a2.63,2.63,0,0,0-2.31,1.66,2.58,2.58,0,0,0,.61,3.36,2.13,2.13,0,0,0,1.21.37,2.63,2.63,0,0,0,2.31-1.67,2.57,2.57,0,0,0-.61-3.36,2.15,2.15,0,0,0-1.21-.37Z"/></g><path class="cls-27" d="M100,155.32a4.09,4.09,0,0,1-1.29-.21l-.46-.15-.16-.46a1.84,1.84,0,0,1-.08-.89,2,2,0,0,1,.26-.75l.43-.7.8.31.06,0a1.67,1.67,0,0,0,.42.05c1.29,0,2.62-1.58,3.08-3.66.56-2.48-.25-5.09-1.73-5.59a1.53,1.53,0,0,0-.49-.08,3.13,3.13,0,0,0-2.4,1.84l-.38.68-1-.28-1.55-.52.54-1c1.13-2.16,2.93-3.46,4.82-3.46a4.08,4.08,0,0,1,1.3.21c2.87,1,4.42,4.87,3.52,8.88C105,152.94,102.62,155.32,100,155.32Z"/><path d="M100.9,141.44a3.08,3.08,0,0,1,1,.16c2.35.79,3.64,4.25,2.86,7.72-.67,3-2.65,5-4.69,5a3.09,3.09,0,0,1-1-.16.84.84,0,0,1,0-.41.93.93,0,0,1,.12-.37l.06,0a2.54,2.54,0,0,0,.81.13c1.75,0,3.47-1.8,4.06-4.44.68-3-.39-6.08-2.39-6.75a2.53,2.53,0,0,0-.81-.13,4,4,0,0,0-3.27,2.35l-.29-.08-.38-.13c.94-1.8,2.42-2.92,3.94-2.92m0-2h0c-2.27,0-4.41,1.49-5.71,4l-1.08,2.08,2.22.75.38.13.06,0,.06,0,.29.08,1.5.41.76-1.36c.52-.92,1.15-1.33,1.53-1.33l.17,0c.77.26,1.58,2.15,1.08,4.42-.42,1.88-1.5,2.88-2.11,2.88l-.13,0h0l-1.54-.58-.87,1.4a2.93,2.93,0,0,0-.4,1.13,2.84,2.84,0,0,0,.12,1.36l.33.92.93.31a5.09,5.09,0,0,0,1.61.26c3,0,5.77-2.7,6.64-6.56,1-4.51-.82-8.92-4.17-10a5.08,5.08,0,0,0-1.62-.27Z"/><g class="cls-25"><path class="cls-26" d="M97.48,155.2l-.33-.19a1.6,1.6,0,0,1-.28-2.11,1.65,1.65,0,0,1,1.41-1.09h.31l.33.19a1.6,1.6,0,0,1,.28,2.11,1.64,1.64,0,0,1-1.41,1.09Z"/><path d="M98.27,152.81l.08,0c.14.1.12.48-.06.85s-.36.52-.51.52l-.08,0c-.14-.1-.12-.48.06-.85s.36-.52.51-.52m0-2A2.63,2.63,0,0,0,96,152.47a2.57,2.57,0,0,0,.62,3.37,2.13,2.13,0,0,0,1.2.37,2.63,2.63,0,0,0,2.31-1.66,2.57,2.57,0,0,0-.62-3.36,2.14,2.14,0,0,0-1.21-.37Z"/></g><path class="cls-28" d="M98.76,155a4.08,4.08,0,0,1-1.29-.21l-.46-.15-.17-.46a1.82,1.82,0,0,1-.08-.89,1.94,1.94,0,0,1,.26-.75l.41-.66.81.26.09,0a1.77,1.77,0,0,0,.41,0c1.29,0,2.62-1.57,3.09-3.66.62-2.78-.39-5.14-1.73-5.59a1.55,1.55,0,0,0-.49-.08,3.13,3.13,0,0,0-2.4,1.84l-.38.67-.27-.07-4,7.46s1.33-6.82,1.35-6.89c.76-3.4,3.09-5.78,5.67-5.78a4.09,4.09,0,0,1,1.31.22c2.88,1,4.42,4.87,3.52,8.88C103.66,152.63,101.34,155,98.76,155Z"/><path d="M99.6,141.13a3.09,3.09,0,0,1,1,.16c2.35.79,3.64,4.25,2.86,7.72-.67,3-2.65,5-4.69,5a3.09,3.09,0,0,1-1-.16.83.83,0,0,1,0-.41.92.92,0,0,1,.12-.37l.06,0a2.54,2.54,0,0,0,.81.13c1.75,0,3.47-1.8,4.06-4.44.68-3.05-.39-6.08-2.39-6.76a2.54,2.54,0,0,0-.81-.13,4,4,0,0,0-3.27,2.35l-.29-.08-1.19,2.24c0-.09,0-.19.05-.28.67-3,2.65-5,4.69-5m0-2c-3,0-5.77,2.7-6.64,6.57,0,.08,0,.17-.05.27V146l-2.58,13.16,6.3-11.83.45-.84.25.07.76-1.35c.52-.92,1.15-1.33,1.53-1.33l.18,0c.76.26,1.58,2.15,1.07,4.42-.42,1.88-1.5,2.88-2.11,2.88l-.13,0-.14,0L97,150.7,96.18,152a2.91,2.91,0,0,0-.4,1.14,2.81,2.81,0,0,0,.13,1.37l.33.91.92.3a5.09,5.09,0,0,0,1.61.26c3,0,5.78-2.7,6.64-6.57,1-4.51-.82-8.92-4.17-10a5.09,5.09,0,0,0-1.63-.27Z"/><g id="calepin-2" data-name="calepin"><polygon class="cls-4" points="74.69 196.99 71.25 190.84 96.13 144.35 136.15 155.07 137.67 159.94 111.8 204.57 74.69 196.99"/><path class="cls-29" d="M96.2,144.52,136,155.2l1.48,4.73-25.78,44.48-36.94-7.54-3.37-6L96.2,144.52m-.15-.35-25,46.67,3.52,6.28,37.28,7.62,26-44.78-1.56-5L96.05,144.18Z"/><polygon class="cls-30" points="98.53 150.97 98.05 148.64 96.56 149.36 97.05 147.8 95.74 150.03 97.17 146.84 100.44 147.32 96.83 146.44 95.14 149.1 96.66 145.94 99.61 146.15 96.35 145.39 92.74 151.08 96.02 144.72 95.95 143.97 71.23 190.89 74.09 196.4 88.9 186.62 98.53 150.97"/><polygon class="cls-31" points="74.25 196.06 98.31 148.87 137.82 159.09 138.19 159.76 74.66 196.91 74.25 196.06"/><path class="cls-32" d="M98.39,149l39.33,10.17.27.49-63.27,37-.3-.64,24-47m-.16-.35L74.09,196.06l.5,1.07,63.8-37.31-.47-.86L98.23,148.7Z"/><polygon class="cls-26" points="138.42 159.69 111.88 204.74 74.59 197.13 98.73 149.42 138.42 159.69"/><polygon class="cls-33" points="75.86 198.47 99.27 150.59 138.56 160.76 112.38 205.87 75.86 198.47"/><path d="M99.81,151.77,137,161.39l-25.16,43.35-34.55-7,22.49-46m-1.08-2.34L74.39,199.19l38.5,7.79,27.21-46.87-41.36-10.7Z"/><path class="cls-34" d="M135,163.41c.18-.37.21-.75.06-.85s-.4.12-.58.5-.21.75-.06.85S134.85,163.78,135,163.41Z"/><path class="cls-27" d="M137.33,151c2.35.79,3.64,4.25,2.86,7.72s-3.32,5.62-5.66,4.84a.83.83,0,0,1,0-.41.92.92,0,0,1,.13-.36l.06,0c2,.67,4.19-1.26,4.87-4.31s-.39-6.08-2.39-6.75c-1.49-.5-3.08.44-4.08,2.22l-.29-.08-.38-.13C133.55,151.59,135.5,150.4,137.33,151Z"/><path class="cls-34" d="M133.74,163.1c.18-.37.21-.75.06-.85s-.4.13-.58.5-.21.75-.06.85S133.56,163.48,133.74,163.1Z"/><path class="cls-28" d="M133.33,162.5l.06,0c2,.67,4.19-1.26,4.87-4.31s-.39-6.08-2.39-6.75c-1.49-.5-3.08.44-4.08,2.22l-.66-.24c1.14-2.17,3.09-3.34,4.91-2.73,2.36.79,3.64,4.25,2.86,7.72s-3.32,5.63-5.67,4.85a.86.86,0,0,1,0-.41A.92.92,0,0,1,133.33,162.5Z"/><path class="cls-34" d="M131,162.29c.18-.37.2-.75.06-.85s-.4.13-.58.5-.21.75-.06.85S130.78,162.66,131,162.29Z"/><path class="cls-27" d="M133.26,149.9c2.36.79,3.64,4.25,2.86,7.72s-3.31,5.63-5.67,4.85a.85.85,0,0,1,0-.41.93.93,0,0,1,.12-.36l.06,0c2,.67,4.19-1.26,4.87-4.31s-.39-6.08-2.39-6.75c-1.49-.5-3.08.44-4.08,2.22l-.29-.08-.38-.13C129.48,150.47,131.43,149.28,133.26,149.9Z"/><path class="cls-34" d="M129.67,162c.18-.37.2-.75.06-.85s-.4.13-.58.5-.21.75-.06.85S129.49,162.36,129.67,162Z"/><path class="cls-28" d="M129.26,161.38l.06,0c2,.67,4.19-1.26,4.87-4.31s-.39-6.08-2.39-6.75c-1.49-.5-3.08.44-4.08,2.22l-.66-.24c1.14-2.17,3.08-3.34,4.91-2.73,2.35.79,3.64,4.25,2.86,7.72s-3.32,5.62-5.67,4.84a.87.87,0,0,1,0-.41A.93.93,0,0,1,129.26,161.38Z"/><path class="cls-34" d="M127.14,161.3c.18-.37.21-.75.06-.85s-.4.13-.58.5-.21.75-.06.85S127,161.67,127.14,161.3Z"/><path class="cls-27" d="M129.45,148.91c2.35.79,3.64,4.25,2.86,7.72s-3.32,5.62-5.67,4.85a.85.85,0,0,1,0-.41.91.91,0,0,1,.12-.36l.06,0c2,.67,4.19-1.26,4.87-4.31s-.39-6.08-2.39-6.75c-1.49-.5-3.08.44-4.08,2.22l-.29-.08-.38-.13C125.67,149.48,127.61,148.29,129.45,148.91Z"/><path class="cls-34" d="M125.86,161c.18-.37.21-.75.06-.85s-.4.13-.58.5-.2.75-.06.85S125.68,161.37,125.86,161Z"/><path class="cls-28" d="M125.45,160.39l.06,0c2,.67,4.19-1.26,4.87-4.31S130,150,128,149.35c-1.49-.5-3.08.44-4.08,2.22l-.66-.24c1.14-2.17,3.08-3.34,4.91-2.73,2.35.79,3.64,4.25,2.86,7.72s-3.31,5.62-5.66,4.84a.84.84,0,0,1,0-.41A.94.94,0,0,1,125.45,160.39Z"/><path class="cls-34" d="M123.06,160.26c.18-.37.2-.75.06-.85s-.4.13-.58.5-.21.75-.06.85S122.88,160.63,123.06,160.26Z"/><path class="cls-27" d="M125.36,147.87c2.36.79,3.64,4.25,2.86,7.72s-3.31,5.63-5.66,4.85a.85.85,0,0,1,0-.41.91.91,0,0,1,.13-.36l.06,0c2,.67,4.19-1.26,4.88-4.31s-.39-6.08-2.39-6.75c-1.49-.5-3.08.44-4.08,2.22l-.29-.08-.38-.13C121.58,148.44,123.53,147.25,125.36,147.87Z"/><path class="cls-34" d="M121.77,160c.18-.37.21-.75.06-.85s-.4.13-.58.5-.21.75-.06.85S121.59,160.33,121.77,160Z"/><path class="cls-28" d="M121.36,159.35l.06,0c2,.67,4.19-1.26,4.87-4.31s-.39-6.08-2.39-6.75c-1.49-.5-3.08.44-4.08,2.22l-.66-.24c1.14-2.17,3.09-3.34,4.91-2.73,2.35.79,3.64,4.25,2.86,7.72s-3.32,5.62-5.67,4.85a.84.84,0,0,1,0-.41A.92.92,0,0,1,121.36,159.35Z"/><path class="cls-34" d="M119.24,159.27c.18-.37.21-.75.06-.85s-.4.13-.58.5-.2.75-.06.85S119.07,159.64,119.24,159.27Z"/><path class="cls-27" d="M121.55,146.88c2.36.79,3.64,4.25,2.86,7.72s-3.31,5.62-5.67,4.85a.87.87,0,0,1,0-.41,1,1,0,0,1,.12-.36l.06,0c2,.67,4.19-1.26,4.87-4.31s-.39-6.08-2.39-6.75c-1.49-.5-3.08.44-4.08,2.22l-.29-.08-.38-.13C117.77,147.45,119.72,146.26,121.55,146.88Z"/><path class="cls-34" d="M118,159c.18-.37.2-.75.06-.85s-.4.13-.58.5-.21.75-.06.85S117.78,159.33,118,159Z"/><path class="cls-28" d="M117.55,158.36l.06,0c2,.67,4.19-1.26,4.87-4.31s-.38-6.08-2.39-6.75c-1.49-.5-3.08.44-4.08,2.22l-.66-.24c1.14-2.17,3.08-3.34,4.91-2.73,2.36.79,3.64,4.25,2.86,7.72s-3.32,5.62-5.67,4.84a.85.85,0,0,1,0-.41A.92.92,0,0,1,117.55,158.36Z"/><path class="cls-34" d="M115.21,158.16c.18-.37.21-.75.06-.85s-.4.13-.58.5-.2.75-.06.85S115,158.54,115.21,158.16Z"/><path class="cls-27" d="M117.51,145.77c2.35.79,3.64,4.25,2.86,7.72s-3.32,5.62-5.67,4.85a.87.87,0,0,1,0-.41,1,1,0,0,1,.12-.36l.06,0c2,.67,4.19-1.26,4.88-4.31s-.39-6.08-2.39-6.75c-1.49-.5-3.08.44-4.08,2.22l-.29-.08-.38-.13C113.73,146.34,115.68,145.15,117.51,145.77Z"/><path class="cls-34" d="M113.92,157.85c.18-.37.21-.75.06-.85s-.4.13-.58.5-.21.75-.06.85S113.74,158.23,113.92,157.85Z"/><path class="cls-28" d="M113.51,157.25l.06,0c2,.67,4.19-1.26,4.87-4.31s-.39-6.08-2.39-6.75c-1.49-.5-3.08.44-4.08,2.22l-.66-.24c1.14-2.17,3.08-3.34,4.91-2.73,2.36.79,3.64,4.25,2.86,7.71s-3.31,5.63-5.67,4.85a.88.88,0,0,1,0-.41A1,1,0,0,1,113.51,157.25Z"/><path class="cls-34" d="M111.4,157.17c.18-.37.21-.75.06-.85s-.4.13-.58.5-.2.75-.06.85S111.22,157.54,111.4,157.17Z"/><path class="cls-27" d="M113.7,144.78c2.36.79,3.64,4.25,2.86,7.71s-3.32,5.63-5.67,4.85a.84.84,0,0,1,0-.41,1,1,0,0,1,.12-.37l.06,0c2,.67,4.19-1.26,4.88-4.31s-.39-6.08-2.39-6.75c-1.49-.5-3.08.44-4.08,2.22l-.29-.08-.38-.13C109.92,145.35,111.87,144.16,113.7,144.78Z"/><path class="cls-34" d="M110.11,156.86c.18-.37.21-.75.06-.85s-.4.12-.58.5-.21.75-.06.85S109.93,157.24,110.11,156.86Z"/><path class="cls-28" d="M109.7,156.26l.06,0c2,.67,4.19-1.26,4.87-4.31s-.39-6.08-2.39-6.75c-1.49-.5-3.08.44-4.08,2.22l-.66-.24c1.14-2.17,3.09-3.34,4.91-2.73,2.35.79,3.64,4.25,2.86,7.72s-3.32,5.62-5.67,4.84a.84.84,0,0,1,0-.41A.86.86,0,0,1,109.7,156.26Z"/><path class="cls-34" d="M107.36,156.06c.18-.37.21-.75.06-.85s-.41.13-.58.5-.2.75-.06.85S107.18,156.44,107.36,156.06Z"/><path class="cls-27" d="M109.66,143.67c2.35.79,3.64,4.25,2.86,7.72s-3.32,5.62-5.67,4.84a.86.86,0,0,1,0-.41.92.92,0,0,1,.12-.36l.06,0c2,.67,4.19-1.26,4.87-4.31s-.39-6.08-2.39-6.75c-1.49-.5-3.08.44-4.08,2.22l-.29-.08-.38-.13C105.88,144.24,107.83,143.06,109.66,143.67Z"/><path class="cls-34" d="M106.07,155.76c.18-.37.2-.75.06-.85s-.4.13-.58.5-.21.75-.06.85S105.89,156.13,106.07,155.76Z"/><path class="cls-28" d="M105.66,155.15l.06,0c2,.67,4.19-1.26,4.87-4.31s-.39-6.08-2.39-6.75c-1.49-.5-3.08.44-4.08,2.22l-.66-.24c1.14-2.17,3.09-3.34,4.91-2.73,2.36.79,3.64,4.25,2.86,7.72s-3.31,5.63-5.67,4.85a.87.87,0,0,1,0-.41A.93.93,0,0,1,105.66,155.15Z"/><path class="cls-34" d="M103.55,155.07c.18-.37.21-.75.06-.85s-.41.13-.58.5-.21.75-.06.85S103.37,155.45,103.55,155.07Z"/><path class="cls-27" d="M105.85,142.68c2.35.79,3.64,4.25,2.86,7.72s-3.32,5.62-5.67,4.84a.89.89,0,0,1,0-.41.92.92,0,0,1,.13-.36l.06,0c2,.67,4.19-1.26,4.87-4.31s-.39-6.08-2.39-6.75c-1.49-.5-3.08.44-4.08,2.22l-.29-.08-.38-.13C102.07,143.25,104,142.07,105.85,142.68Z"/><path class="cls-34" d="M102.26,154.76c.18-.37.21-.75.06-.85s-.4.13-.58.5-.21.75-.06.85S102.08,155.14,102.26,154.76Z"/><path class="cls-28" d="M101.85,154.16l.06,0c2,.67,4.19-1.26,4.87-4.31s-.39-6.08-2.39-6.75c-1.49-.5-3.08.44-4.08,2.22l-.66-.24c1.14-2.17,3.09-3.34,4.91-2.73,2.35.79,3.64,4.25,2.86,7.72s-3.32,5.62-5.67,4.85a.87.87,0,0,1,0-.41A.94.94,0,0,1,101.85,154.16Z"/><path class="cls-34" d="M99.57,154c.18-.37.21-.75.06-.85s-.4.13-.58.5-.21.75-.06.85S99.4,154.36,99.57,154Z"/><path class="cls-27" d="M101.88,141.6c2.35.79,3.64,4.25,2.86,7.72s-3.32,5.62-5.67,4.84a.84.84,0,0,1,0-.41.93.93,0,0,1,.12-.37l.06,0c2,.67,4.19-1.26,4.87-4.31s-.39-6.08-2.39-6.75c-1.49-.5-3.08.44-4.08,2.22l-.29-.08-.38-.13C98.1,142.17,100,141,101.88,141.6Z"/><path class="cls-34" d="M98.29,153.68c.18-.37.21-.75.06-.85s-.4.13-.58.5-.21.75-.06.85S98.11,154.05,98.29,153.68Z"/><path class="cls-28" d="M97.88,153.08l.06,0c2,.67,4.19-1.26,4.87-4.31s-.39-6.08-2.39-6.76c-1.49-.5-3.08.44-4.08,2.22l-.29-.08-1.19,2.24c0-.09,0-.19.05-.28.78-3.46,3.33-5.63,5.68-4.84s3.64,4.25,2.86,7.72-3.32,5.62-5.67,4.84a.83.83,0,0,1,0-.41A.92.92,0,0,1,97.88,153.08Z"/></g></g><path class="cls-35" d="M118,204.94c-4,0-6.86-1.31-8.38-3.91-2.07-3.53-1.37-9.08.5-12.42,1-1.78,3.21-2.69,6.58-2.69a25.39,25.39,0,0,1,6.26.88l1,.31,2.94-4.32c1.54,4.46,4,13.5.7,18.53-1.59,2.43-4.36,3.61-8.46,3.61H118Z"/><path d="M126.42,186.19c1.32,4.75,2.21,10.87-.06,14.32-1.29,2-3.65,2.93-7.21,2.93H118c-3.47,0-5.86-1.06-7.09-3.16-1.77-3-1.11-8,.51-10.92.89-1.59,3.36-1.92,5.27-1.92a24.07,24.07,0,0,1,5.84.82l2.09.61,1.23-1.8.59-.87m.88-6.62-3.95,5.8a26.9,26.9,0,0,0-6.69-.94c-3.07,0-6.36.73-7.89,3.45-3.22,5.74-3.88,18.56,9.19,18.56h1.19c19.88,0,8.14-26.87,8.14-26.87Z"/><path class="cls-11" d="M108,194.36s1.07-5.49,3.65-6.76c0,0,.36,10.95,7.72,11.59s9.13-2.8,9.13-2.8.17,12.44-14,8.94C106.69,203.4,108,194.36,108,194.36Z"/><path class="cls-10" d="M113.58,188.78s9.7-1.89,11.61,2.81,1.29,5.19,1.29,5.19-4.77-8.16-12.89-8"/><path d="M87.74,130.81s-.4-2.79,4.62-3.8c0,0-.65,3.79,2.51,5.56A53.78,53.78,0,0,1,87.74,130.81Z"/><path d="M99.27,119.89l-2-3.83a67.45,67.45,0,0,0,8.7-.92S104.23,118.33,99.27,119.89Z"/><path class="cls-36" d="M101,117.44s-16.85,2.21-27.9-8.14-8.24,14.46,18.42,20.92c0,0-1.32-.17-.46-4.71S101,117.44,101,117.44Z"/><path class="cls-37" d="M101,117.44s-16.85,2.21-27.9-8.14-8.24,14.46,18.42,20.92c0,0-1.32-.17-.46-4.71S101,117.44,101,117.44Z"/><path class="cls-11" d="M70.89,119.14s8.53-1,13.87,4.15,5.37,7.95,5.37,7.95-15.31-3.92-19.26-11.85"/><g class="cls-38"><path class="cls-11" d="M70.87,107.14s-3.16-1.92-4.71,5.27,4,7,7.35,3,1.61-9,.32-7.32-.18,7.5-3.3,6.06-.07-3.76.68-4.8S70.87,107.14,70.87,107.14Z"/></g></g></g></g></svg>