<svg xmlns="http://www.w3.org/2000/svg" xmlns:xlink="http://www.w3.org/1999/xlink" viewBox="0 0 208.18 363.36"><defs><style>.cls-1{isolation:isolate;}.cls-2{fill:url(#linear-gradient);}.cls-3{fill:url(#linear-gradient-2);}.cls-4{fill:#d4d4d4;}.cls-16,.cls-19,.cls-20,.cls-25,.cls-27,.cls-28,.cls-32,.cls-5,.cls-9{fill:none;}.cls-5{stroke:#bfbfbf;stroke-width:0.87px;}.cls-12,.cls-23,.cls-24,.cls-29,.cls-5,.cls-6{mix-blend-mode:multiply;}.cls-12,.cls-6{fill:#4f4545;}.cls-6{opacity:0.33;}.cls-7,.cls-8{fill:#fff;}.cls-22,.cls-26,.cls-28,.cls-7{mix-blend-mode:soft-light;}.cls-19,.cls-20,.cls-25,.cls-27,.cls-28,.cls-32,.cls-9{stroke:#000;}.cls-16,.cls-32,.cls-9{stroke-width:1.21px;}.cls-9{opacity:0.75;}.cls-10{fill:url(#linear-gradient-3);}.cls-11{fill:url(#linear-gradient-4);}.cls-12{opacity:0.53;}.cls-13{fill:#959492;}.cls-14{fill:url(#linear-gradient-5);}.cls-15{fill:url(#linear-gradient-6);}.cls-16{stroke:#fff;opacity:0.48;mix-blend-mode:overlay;}.cls-17{fill:url(#linear-gradient-7);}.cls-18{fill:#c20000;}.cls-19{stroke-width:1.54px;}.cls-20{stroke-width:1.23px;}.cls-21{fill:url(#Linear_Gradient_1);}.cls-22{opacity:0.55;}.cls-23{fill:url(#linear-gradient-8);}.cls-24{fill:url(#linear-gradient-9);}.cls-25{stroke-width:2.42px;}.cls-27,.cls-28{stroke-linecap:round;stroke-linejoin:round;}.cls-27{stroke-width:7.27px;}.cls-28{stroke-width:8.48px;}.cls-29{opacity:0.25;}.cls-30{mix-blend-mode:color-dodge;}.cls-31{fill:#12dbff;opacity:0.64;mix-blend-mode:lighten;}</style><linearGradient id="linear-gradient" x1="74.66" y1="836.15" x2="100.91" y2="837.76" gradientTransform="matrix(0.95, -0.32, 0.32, 0.95, -239.97, -446.89)" gradientUnits="userSpaceOnUse"><stop offset="0" stop-color="#c9c9c9"/><stop offset="1" stop-color="#616161"/></linearGradient><linearGradient id="linear-gradient-2" x1="42.55" y1="878.48" x2="119.72" y2="772.7" gradientTransform="translate(13.43 -523.21)" gradientUnits="userSpaceOnUse"><stop offset="0" stop-color="#c9c9c9"/><stop offset="1" stop-color="#2b2b2b"/></linearGradient><linearGradient id="linear-gradient-3" x1="41.18" y1="684.41" x2="55.63" y2="689.66" gradientTransform="matrix(0.95, -0.32, 0.32, 0.95, -239.97, -446.89)" gradientUnits="userSpaceOnUse"><stop offset="0" stop-color="#9ec245"/><stop offset="1" stop-color="#578a21"/></linearGradient><linearGradient id="linear-gradient-4" x1="123.02" y1="591.87" x2="141.51" y2="824.81" xlink:href="#linear-gradient-3"/><linearGradient id="linear-gradient-5" x1="97.34" y1="756.39" x2="83.27" y2="782.29" gradientTransform="matrix(0.95, -0.32, 0.32, 0.95, -239.97, -446.89)" gradientUnits="userSpaceOnUse"><stop offset="0" stop-color="#366ba3"/><stop offset="1" stop-color="#4a9dde"/></linearGradient><linearGradient id="linear-gradient-6" x1="90.66" y1="743.89" x2="87.67" y2="748.72" xlink:href="#linear-gradient-5"/><linearGradient id="linear-gradient-7" x1="178.48" y1="702.79" x2="208.59" y2="715.27" xlink:href="#linear-gradient-3"/><linearGradient id="Linear_Gradient_1" x1="127.35" y1="319.97" x2="129.59" y2="319.97" gradientTransform="matrix(1, -0.02, 0.02, 1.19, -13.59, -135.82)" gradientUnits="userSpaceOnUse"><stop offset="0" stop-color="#fff"/><stop offset="1"/></linearGradient><linearGradient id="linear-gradient-8" x1="38.21" y1="727.16" x2="37.61" y2="797.72" gradientTransform="matrix(0.95, -0.32, 0.32, 0.95, -239.97, -446.89)" gradientUnits="userSpaceOnUse"><stop offset="0" stop-color="#fff"/><stop offset="0.99" stop-color="#242c35"/></linearGradient><linearGradient id="linear-gradient-9" x1="137.08" y1="756.23" x2="127.69" y2="824.97" xlink:href="#linear-gradient-8"/></defs><title>Fichier 3</title><g class="cls-1"><g id="Calque_2" data-name="Calque 2"><g id="Layer_12" data-name="Layer 12"><g id="serious_logo"><path class="cls-2" d="M63.65,291.66,98.2,351.54c4.39,6.74,21.83,10.09,42.1,3.13s32-20.39,31.62-28.52l-4.93-70Z"/><ellipse class="cls-3" cx="115.32" cy="273.92" rx="54.63" ry="20.81" transform="translate(-82.72 52.31) rotate(-18.95)"/><path d="M111.59,265.74c-24.6,8.45-42.22,22.65-40.65,32.42,10.43,4.08,30.14,2.65,51.14-4.56,19.76-6.79,35.47-16.91,42-26.1a0,0,0,0,0,0,0C160.74,257.71,137.24,256.93,111.59,265.74Z"/><path class="cls-4" d="M144.88,247.42v1.73h0c11.35,0,18.81,2.76,20.46,7.58,1.53,4.46-2,10.74-9.82,17.22-8.32,6.94-20.4,13.33-34,18-12.62,4.34-25.32,6.72-35.76,6.72-11.35,0-18.81-2.76-20.47-7.59-3-8.72,13.9-24.95,43.82-35.22,12.63-4.34,25.33-6.72,35.76-6.72v-1.73m0,0c-10.24,0-23,2.25-36.33,6.82C80,264,59.92,280.8,63.65,291.66c2,5.8,10.38,8.76,22.11,8.76,10.24,0,23-2.25,36.32-6.82,28.53-9.8,48.64-26.56,44.9-37.43-2-5.8-10.37-8.75-22.1-8.75Z"/><path d="M144.88,247.42c11.72,0,20.11,3,22.1,8.75a8.78,8.78,0,0,1,.3,4.36l4.63,65.61c.35,8.13-11.35,21.56-31.62,28.52a67.6,67.6,0,0,1-21.73,3.85c-10.11,0-17.69-2.85-20.37-7l-33-57.15a8.59,8.59,0,0,1-1.57-2.72C59.92,280.8,80,264,108.55,254.24c13.3-4.57,26.09-6.82,36.33-6.82m0-4.85c-11.14,0-24.6,2.51-37.9,7.08-14.34,4.92-27.15,11.73-36.08,19.17-10.13,8.45-14.34,17.12-11.83,24.41a13.44,13.44,0,0,0,2.15,3.91L94,354l.06.11.07.11c3.74,5.75,12.87,9.18,24.43,9.18a72.9,72.9,0,0,0,23.31-4.11c12.72-4.37,20.8-10.53,25.34-14.93,6.4-6.2,9.79-12.73,9.55-18.38v-.14l-4.59-65.09a13.45,13.45,0,0,0-.59-6.11c-2.66-7.75-12.14-12-26.68-12Z"/><path class="cls-5" d="M168.77,280.4c-6.47,9.25-22.27,19.49-42.19,26.32-21.4,7.35-41.46,8.7-51.73,4.33"/><path class="cls-6" d="M135.8,287.57l15.9,63.7s16.4-8.19,23.29-22.94L169.63,258,167,251.66l-6.3-4.67-15.77,6.27,6,16.29L137,282.45Z"/><path class="cls-7" d="M110.8,360.2,75.89,298.33l4.45-2,6.26.84L118.83,360l4.35.21-32-63.3,5.23-.94,31.23,64.84S121.94,364.06,110.8,360.2Z"/><path class="cls-8" d="M34.29,103.24a12.43,12.43,0,1,1,4-.68A12.42,12.42,0,0,1,34.29,103.24Z"/><path d="M34.3,80.82a10,10,0,1,1-3.24.55,10,10,0,0,1,3.24-.55m0-4.85a14.84,14.84,0,1,0,14,10,14.79,14.79,0,0,0-14-10Z"/><path d="M27.78,85.31A1.55,1.55,0,0,1,28.56,87a1.57,1.57,0,0,1-1.83,1.24,1.64,1.64,0,0,1-.81-.43,2.87,2.87,0,1,0,3.4-2.59A2.79,2.79,0,0,0,27.78,85.31Z"/><path class="cls-8" d="M47.38,268.69c-18.83,0-29.14-9.9-29.57-10.33l-.34-.33-.19-.43c-14.9-34.29-10.19-58.08-3.61-72,5.84-12.35,14.64-19.73,20.34-21.36a15.79,15.79,0,0,1,4.34-.6c10.84,0,20.83,10.47,21.25,10.92l.46.49,18.44,85.39-1.71.83C66.68,266.2,56.78,268.69,47.38,268.69Z"/><path d="M38.37,166.07c9.92,0,19.49,10.16,19.49,10.16l17.89,82.87c-11,5.32-20.45,7.17-28.37,7.17-18.06,0-27.87-9.63-27.87-9.63-24.45-56.29,4.09-86.9,15.18-90.06a13.31,13.31,0,0,1,3.68-.5m0-4.85a18.21,18.21,0,0,0-5,.69c-6.42,1.83-15.67,9.55-21.86,22.65-6.79,14.37-11.68,38.88,3.58,74l.38.87.67.66c.46.45,11.45,11,31.26,11,9.77,0,20-2.58,30.49-7.66l3.42-1.66-.8-3.72L62.59,175.2l-.28-1.32-.93-1c-1.13-1.2-11.34-11.68-23-11.68Z"/><path class="cls-9" d="M9.67,216.79s26.49,17.48,61.33-7"/><path class="cls-10" d="M33.39,210.52a60.45,60.45,0,0,1-23.47-4.8l-1.4-.61.23-1.51C12.17,181,25.93,167,34.14,164.67a15.35,15.35,0,0,1,4.22-.58c10.65,0,20.52,10.34,20.93,10.78l.38.4,5.4,24.94L64,201a53,53,0,0,1-30.58,9.56Z"/><path d="M38.37,166.07c9.92,0,19.49,10.16,19.49,10.16l5,23.11a51.08,51.08,0,0,1-29.46,9.21,58.9,58.9,0,0,1-22.68-4.64c3.45-22.77,17.09-35.36,24-37.33a13.31,13.31,0,0,1,3.68-.5m0-4a17.33,17.33,0,0,0-4.77.66c-9,2.56-23.21,16.83-26.81,40.55l-.46,3,2.8,1.21a62.47,62.47,0,0,0,24.25,5A54.9,54.9,0,0,0,65.1,202.6l2.19-1.51-.56-2.59-5-23.11-.23-1.08-.76-.8c-.44-.47-10.88-11.4-22.37-11.4Z"/><path class="cls-11" d="M93.41,294.56c-9.3,0-13.48-2.1-13.93-2.34l-.84-.45-.31-.9C77.93,289.67,37,170.35,27.06,116.3l-.56-3,9.86.61L33.43,61.92a64.23,64.23,0,0,1,5.22-27.65c5.69-13,18.69-29,48.3-31.59,2-.18,4-.27,6-.27,15,0,26.78,5.29,35.11,15.74,17,21.3,14.63,57.38,10.55,75.34C133,118.22,118,183.88,151.28,269.24l.46,1.19-.72,1.05c-.37.54-9.32,13.36-34.95,19.87A93.59,93.59,0,0,1,93.41,294.56Z"/><path d="M92.91,4.85c49.3,0,49.69,60,43.3,88.11-6.63,29.18-19.64,93.84,12.81,177.16,0,0-8.5,12.53-33.54,18.88a90.38,90.38,0,0,1-22.06,3.13c-9,0-12.78-2.06-12.78-2.06S39.51,170.36,29.44,115.86l9.49.58L35.85,61.79S32.12,9.91,87.15,5.1c2-.17,3.91-.26,5.76-.26m0-4.85V0h0c-2,0-4.08.09-6.18.28C55.94,3,42.38,19.72,36.42,33.3A67,67,0,0,0,31,62.09l2.78,49.18-4-.25-6.19-.38,1.13,6.1C34.7,171,74.37,286.75,76,291.65l.62,1.79,1.67.9c.82.44,5.39,2.63,15.08,2.63a96,96,0,0,0,23.26-3.28c26.52-6.73,36-20.29,36.36-20.86l1.43-2.11-.92-2.37c-33-84.66-18.17-149.8-12.6-174.33,4.18-18.38,6.56-55.37-11-77.39C121.1,5.6,108.65,0,92.92,0Z"/><path class="cls-8" d="M93.41,294.56c-9.3,0-13.48-2.1-13.93-2.34l-.84-.45-.31-.9c-.13-.38-13.36-38.94-26.49-81.69l-2.54-8.27,6.47,5.75c1.78,1.59,8.66,6.76,22.24,6.76a61.68,61.68,0,0,0,10.6-1c21.34-3.74,36.87-16.63,39.76-19.17l3.46-3,.55,4.57a305.2,305.2,0,0,0,18.88,74.44l.46,1.19-.72,1.05c-.37.54-9.32,13.36-34.95,19.87A93.59,93.59,0,0,1,93.41,294.56Z"/><path d="M130,195.08a306,306,0,0,0,19,75s-8.5,12.53-33.54,18.88a90.37,90.37,0,0,1-22.06,3.13c-9,0-12.78-2.06-12.78-2.06s-13.19-38.41-26.46-81.62C56,210,63.44,215.83,78,215.83a63.78,63.78,0,0,0,11-1c21.79-3.82,37.48-16.7,40.95-19.74m3.72-9.72-6.92,6.08c-2.81,2.47-17.88,15-38.58,18.61A59.25,59.25,0,0,1,78,211c-13.06,0-19.48-5.12-20.63-6.15l-12.93-11.5,5.08,16.54C62.68,252.67,75.92,291.27,76,291.65l.62,1.79,1.67.9c.82.44,5.39,2.63,15.08,2.63a96,96,0,0,0,23.26-3.28c26.52-6.73,36-20.29,36.36-20.86l1.43-2.11-.92-2.37a302.77,302.77,0,0,1-18.73-73.85l-1.09-9.15Z"/><path class="cls-12" d="M63.9,241.39a33.42,33.42,0,0,1,10,2l-1.15,9.68s15.11,19.78,16.35,39.21l5.19,1.1s-1.87-25.93-16-42.85l-3-14.34-14-3.51Z"/><path class="cls-12" d="M131,199.79s-13.18,4.52-9.95,32.56l-11.16,5.75-.25,3.93,6.49,7.7s-7.54,13.48-.6,39.27l-3.24,1.75-7.35-29.81-.51-24.8L108.45,221l9.83-14.27,13.13-10.27Z"/><path class="cls-13" d="M87.12,268.9l-9.89-20.1-4.66-17.23-10.64-9-7.67-9.72-.07-.21c-.26-.83-.52-1.67-.78-2.51l-1.69-5.45L55,207.56c1.86,1.66,9,7.06,23,7.06a62.89,62.89,0,0,0,10.81-1c21.66-3.8,37.42-16.87,40.35-19.46l1.72-1.52.28,2.28a4.13,4.13,0,0,1,0,1.27,1.76,1.76,0,0,0,0,.62l.08.63-14.8,13.35-10.6,14.07-3.79,23,8.28,34,3.07,8.9-1.33.29c-7.52,1.67-12.12,2.3-17,2.32H94.2Z"/><path d="M130,195.08c.12,1-.14.88,0,1.9l-14.41,13-10.85,14.4-3.88,23.53,8.35,34.28,2.65,7.67c-7.54,1.67-12.08,2.27-16.72,2.29l-6.86-23.69-9.89-20.09-4.73-17.48L62.8,221.7l-7.46-9.45c-.4-1.26-.78-2.53-1.17-3.79C56,210,63.44,215.83,78,215.83a63.78,63.78,0,0,0,11-1c21.79-3.82,37.48-16.7,40.95-19.74m1.85-4.85-3.45,3c-2.9,2.55-18.42,15.43-39.76,19.17a61.68,61.68,0,0,1-10.6,1c-13.58,0-20.46-5.17-22.24-6.76l-6.5-5.78,2.57,8.3.4,1.29c.26.84.52,1.68.78,2.51l.13.42.27.35,7.46,9.45.15.19.18.16,10.26,8.7L76,249l.06.23.1.21L86,269.34l6.8,23.48.51,1.76h1.83c4.95,0,9.62-.65,17.24-2.35l2.65-.59-.89-2.57-2.61-7.56-8.21-33.69,3.7-22.45,10.35-13.74,14.24-12.85.94-.85-.16-1.26a1.55,1.55,0,0,1,0-.2v-.08a5.28,5.28,0,0,0,0-1.61l-.56-4.56Z"/><polygon class="cls-14" points="83.94 258.62 86.51 232.3 90.38 230.61 104.14 254.29 101.72 284.88 83.94 258.62"/><path d="M89.87,232.15l13,22.42-2.12,26.77-15.59-23,2.46-25.18,2.22-1m1-3.09-2,.87-2.22,1-1.3.57-.14,1.41-2.46,25.18-.08.87.49.72,15.59,23,3.88,5.72.55-6.89,2.12-26.77.06-.75-.38-.65L92,230.94l-1.09-1.87Z"/><path class="cls-15" d="M87.71,235.74a9.91,9.91,0,1,1,3.21-.54A9.89,9.89,0,0,1,87.71,235.74Z"/><path d="M87.71,217.17a8.69,8.69,0,1,1-2.82.47,8.69,8.69,0,0,1,2.82-.47m0-2.42h0a11.1,11.1,0,1,0,10.51,7.5,11.09,11.09,0,0,0-10.51-7.5Z"/><line class="cls-16" x1="80.32" y1="224.87" x2="88.79" y2="235.83"/><line class="cls-16" x1="83.56" y1="221.83" x2="93.05" y2="233.3"/><line class="cls-16" x1="87.04" y1="218.93" x2="96.01" y2="229.51"/><line class="cls-16" x1="87.22" y1="239.36" x2="96.32" y2="242.85"/><line class="cls-16" x1="85.62" y1="244.61" x2="98.11" y2="249.92"/><line class="cls-16" x1="85.17" y1="252.66" x2="99.14" y2="257.89"/><line class="cls-16" x1="88.2" y1="262.08" x2="101.51" y2="265.4"/><line class="cls-16" x1="92.61" y1="269.95" x2="102.08" y2="272.68"/><line class="cls-16" x1="97.39" y1="276.43" x2="102.45" y2="277.47"/><path class="cls-13" d="M104.3,233.43a5.13,5.13,0,0,1-2.87-1.3c-4.63-3.3-11.37-11.43-14-14.69-3.69,5.52-12.55,13.95-13,14.34l-.41.39-.56-.06c-.37,0-9.1-1-13-1.6l-.74-.12-.23-.72C57.22,222.42,55,215.4,53,208.82l-1.27-4.14L55,207.56c1.86,1.66,9,7.06,23,7.06a62.89,62.89,0,0,0,10.81-1c21.66-3.8,37.42-16.87,40.35-19.46l1.73-1.52.27,2.29c.26,2.19.25,2.71-.1,3.16l.16.81-.82.41a47.92,47.92,0,0,0-8.22,5.17c-.81,3.3-5,19.62-9.39,22.62a38.29,38.29,0,0,0-5.52,4.52C106.18,232.71,105.44,233.43,104.3,233.43Z"/><path d="M130,195.08c.21,1.74.21,2.29.11,2.29s-.59-1.69-.65-1.69a19.56,19.56,0,0,0,.43,2.54,46.56,46.56,0,0,0-8.76,5.57s-4.63,19.32-9,22.3c-5.64,3.85-6.47,6.11-7.84,6.11a4.3,4.3,0,0,1-2.17-1.07c-5.66-4-14.83-15.83-14.83-15.83-2.7,5.2-13.66,15.58-13.66,15.58s-9-1-13-1.6c-2.12-6.72-4.31-13.71-6.5-20.84C56,210,63.44,215.83,78,215.83a63.78,63.78,0,0,0,11-1c21.79-3.82,37.48-16.7,40.95-19.74m1.86-4.86-3.46,3c-2.9,2.55-18.42,15.43-39.76,19.17a61.68,61.68,0,0,1-10.6,1c-13.58,0-20.46-5.17-22.24-6.76l-6.47-5.75,2.54,8.27c2,6.59,4.21,13.61,6.51,20.86l.45,1.43,1.48.23c4,.62,12.71,1.57,13.08,1.61l1.11.12.81-.77c.38-.36,8-7.63,12.19-13.22,3.11,3.8,9,10.67,13.23,13.68a6.28,6.28,0,0,0,3.57,1.52c1.63,0,2.66-1,3.85-2.14a37.13,37.13,0,0,1,5.36-4.39c4.52-3.09,8.43-17.42,9.79-22.93A47.63,47.63,0,0,1,131,200.4l1.64-.82-.24-1.27c.35-.82.23-1.84,0-3.51l-.55-4.57Z"/><path class="cls-8" d="M91.71,292.14c-.05-.33-5.45-33.12-21.1-41.84l-.76-.42L70,249a27,27,0,0,1,2.84-8.09,40.47,40.47,0,0,0-8.5-1.61l-.49,0H62.6l-.27-.84c-3-9.48-6.06-19.11-9-28.62L53,208.8l1-.41.3-.12.46-.15.44.21c.71.34,17.61,8.53,26.92,34.35a402.46,402.46,0,0,1,14,48.95l.29,1.4-4.61.18Z"/><path d="M54.74,209.42s17.05,8,26.29,33.67a397.47,397.47,0,0,1,14,48.78l-2.11.08s-5.35-33.59-21.71-42.71c0,0,1.27-6.84,3.74-9,0,0-7-2.16-10.6-2.16l-.59,0h-.27c-2.88-9-5.92-18.66-9-28.6l.24-.1m.15-2.6-.92.31-.39.15-2.09.82.68,2.14c2.93,9.51,5.95,19.14,9,28.63l.54,1.68h2l.3,0h.35A33.11,33.11,0,0,1,71,241.7a30.78,30.78,0,0,0-2.23,7.1l-.32,1.71,1.52.85c15.16,8.44,20.44,40.65,20.5,41l.34,2.12,2.15-.08,2.11-.08,2.85-.11-.57-2.8a403.87,403.87,0,0,0-14.07-49.11c-9.47-26.29-26.81-34.69-27.54-35l-.88-.41Z"/><path class="cls-8" d="M109.48,290.47c-.6-1.25-14.76-30.82-10.82-56.16,4-25.56,29.67-39.69,30.76-40.28l1.65-.89.44,6.14-.59.39c-14.3,9.56-11.61,29.88-11.58,30.09l.12.85-.77.39c-1.89,1-7.24,3.6-9.86,4.88,2.73,3.07,6.6,8.36,6.78,8.62l.55.75-.58.72c-12.72,15.78-1.33,42.94-1.21,43.21l.65,1.51-5.16.54Z"/><path d="M130,195.08l.25,3.57c-15.1,10.09-12.11,31.26-12.11,31.26-2.54,1.3-11.31,5.59-11.31,5.59a119.08,119.08,0,0,1,7.81,9.7c-13.32,16.53-1.39,44.45-1.39,44.45l-2.68.28s-14.64-30.19-10.72-55.45S130,195.08,130,195.08m2.15-3.91-3.3,1.78c-1.11.6-27.31,15-31.38,41.16-4,25.71,10.32,55.62,10.93,56.88l.74,1.53,1.69-.18,2.68-.28,3.27-.34-1.29-3c-.11-.26-11.2-26.79,1-42l1.17-1.45-1.1-1.5c-.17-.23-3.2-4.37-5.82-7.5,2.8-1.38,6.85-3.37,8.47-4.2l1.54-.79-.24-1.71c0-.19-2.57-19.8,11.05-28.91l1.17-.78-.1-1.4-.25-3.57-.27-3.74Z"/><path class="cls-8" d="M126.41,212l.53-.84a132.11,132.11,0,0,1,10.38-14.25c-.63-6.59-3-39.89,10.75-56.48a25.12,25.12,0,0,1,18.22-9.33c.87-.06,1.74-.09,2.58-.09a29.24,29.24,0,0,1,21.45,8.77c15.35,15.39,15.44,45.76,15.44,47-.06,16.19-12.51,37.06-13,37.94l-.14.23-.19.19c-.72.75-18.07,18.56-54.22,28.72l-2.48.7Z"/><path d="M168.88,133.4c31.52,0,34.49,44.25,34.46,53.38-.06,15.71-12.7,36.7-12.7,36.7s-17.2,18-53.12,28.06L129,212.42s5.72-9.12,10.85-14.72c0,0-7.17-61.9,26.62-64.21.82-.06,1.63-.08,2.42-.08m0-4.85c-.9,0-1.82,0-2.75.1a27.45,27.45,0,0,0-19.92,10.2c-13.75,16.55-12.13,48.52-11.39,57.23a139.62,139.62,0,0,0-9.93,13.76l-1.05,1.68.42,1.93,8.53,39.13,1.09,5,5-1.39c36.77-10.33,54.57-28.6,55.31-29.37l.37-.39.28-.46c.54-.9,13.33-22.33,13.39-39.18,0-3.33-.36-32.94-16.14-48.76a31.59,31.59,0,0,0-23.16-9.48Z"/><path class="cls-17" d="M170.37,189.83a47.53,47.53,0,0,1-32.27-13.45l-.61-.63.06-.87c1.93-27.21,11.88-42.21,28.77-43.36.86-.06,1.72-.09,2.55-.09,28.29,0,34.6,33,36,47.21l.13,1.28-1.11.64c-6,3.47-18.33,9.29-32.7,9.29Z"/><path d="M168.87,133.4c25.81,0,32.47,29.67,34,45.43-5.49,3.15-17.6,9-31.71,9h-.78A45.16,45.16,0,0,1,139.53,175c1.27-17.92,6.93-40.16,26.93-41.53q1.24-.08,2.41-.08m0-4c-.88,0-1.78,0-2.69.09-10.31.71-18.52,6.48-23.74,16.71-3.73,7.3-6,16.89-6.87,28.49l-.12,1.75,1.21,1.27a48.8,48.8,0,0,0,33.67,14.06h.84c14.82,0,27.47-6,33.68-9.55l2.22-1.28-.25-2.55c-.81-8.18-2.91-20-8.37-30.12-6.69-12.35-16.92-18.88-29.59-18.88Z"/><path class="cls-9" d="M138.65,192.7s25.56,22.14,64.83,2"/><path class="cls-8" d="M123.61,211.06s11.31-6.23,16.23-13.36l17.78,46.51s-18.93,9.5-24.39,13.5S126.6,231,126.6,231Z"/><path class="cls-18" d="M122.92,262.22a4.29,4.29,0,0,1-4.31-4.2l-.72-26.87a4.32,4.32,0,0,1,4.19-4.43h.11a4.3,4.3,0,0,1,4.32,4.2l.72,26.86a4.31,4.31,0,0,1-4.2,4.43Z"/><path d="M122.19,227.63a3.41,3.41,0,0,1,3.42,3.32l.72,26.86a3.4,3.4,0,0,1-3.31,3.5h-.1a3.4,3.4,0,0,1-3.4-3.31l-.72-26.87a3.41,3.41,0,0,1,3.31-3.5h.08m0-1.81h-.13a5.23,5.23,0,0,0-5.08,5.36l.72,26.87a5.19,5.19,0,0,0,5.21,5.08h.15a5.21,5.21,0,0,0,5.07-5.37l-.72-26.86a5.2,5.2,0,0,0-5.23-5.08Z"/><line class="cls-19" x1="118.46" y1="239.23" x2="126.46" y2="239.15"/><path class="cls-12" d="M121.76,226.85s1.54,1.24,1.8,5.38l.67,26.61,2.56-.14-.12-23-.22-6.66L125,227.4Z"/><rect class="cls-8" x="114.73" y="243.73" width="16.41" height="23.03" transform="translate(-8.03 4.03) rotate(-1.82)"/><path d="M129.89,244.41l.68,21.2-14.59.46-.67-21.2,14.59-.46m1.76-1.87-1.81.06-14.59.46-1.81.06.06,1.81.67,21.2.06,1.81,1.81-.06,14.59-.46,1.81-.06-.06-1.81-.68-21.2-.06-1.81Z"/><line class="cls-20" x1="115.07" y1="252.18" x2="130.12" y2="251.7"/><path class="cls-21" d="M122.52,248.29a1.19,1.19,0,0,1-1.13-1.22l-.21-10.53a1.32,1.32,0,0,1,.36-.94,1,1,0,0,1,.74-.32,1.19,1.19,0,0,1,1.15,1.22l.21,10.52a1.19,1.19,0,0,1-1.09,1.27Z"/><path d="M122.29,235.73a.74.74,0,0,1,.68.78l.21,10.52a.73.73,0,0,1-.65.8h0a.75.75,0,0,1-.68-.78l-.21-10.52a.73.73,0,0,1,.64-.81h0m0-.91h0a1.48,1.48,0,0,0-1,.46,1.78,1.78,0,0,0-.48,1.27l.21,10.52a1.58,1.58,0,1,0,3.15-.06l-.21-10.52a1.64,1.64,0,0,0-1.59-1.67Z"/><path class="cls-12" d="M205.44,179.55s-10.29,6.1-26.35,9c0,0-2.47,23.9-6.59,34.28,0,0-29.77,25.17-46.56,33.49l4.23,1.11,2.82,18c-12.75,7-32.92,14.11-56.48,8.53l1.1,8.16s22.84,8.52,56.54-9.29l.34,2.14,15.85-12.28-5.41-19.49s30.9-14.45,41.42-22.34,5.44-5.29,5.44-5.29l11.92-23.73Z"/><path class="cls-22" d="M126.84,17.83l-14-12.26L96.69,2.15l-12,2.41S112.45,8.26,113,55.89c.51,43.34-6.72,83.7,6.67,139-43.28,27.47-69.85,4-69.85,4l-.34,5.24c24.83,20.33,55.35,6.57,71.58-3.63,1,3.68,2,7.43,3.18,11.26l10.12-10.31-3.07-28.83.13-26.94L133.5,118l6.89-28.41-.16-32.82-2.74-20.41Z"/><path class="cls-22" d="M166.46,133.48s17.54,15.82,13.37,50A52.6,52.6,0,0,1,139,171.21l-2.38,4.23c25.54,28.37,68.62,5.89,68.62,5.89l-.3-1.48.54-.31S201.38,126.08,166.46,133.48Z"/><path class="cls-22" d="M38.66,163.82l-4,2.75s12.08,27.48-2.13,38.78c-6.23,0-14.85-.65-21.91-3.74l-2.4,3s12.21,9.46,43.46,4.72l-.65-1.9.38-.14Z"/><path class="cls-12" d="M19.51,256.64s18.89,5.89,37.33-2.58l-16-42.76,10.84-2,17.74,55.38S32.9,276.37,19.51,256.64Z"/><path class="cls-23" d="M8.25,204.57l-2,14.35L8.32,237.1l7,16.79,7.27,9,19.69,7,27.12-5.26L52.79,209S20.93,215.7,8.25,204.57Z"/><path class="cls-24" d="M132.13,192s-41.6-14.1-78,16.44C52.7,209.7,79,291,79,291s37.86,13.26,72.13-19.33L145.69,252s30.92-12.54,44.32-24.82c0,0,18.39-20.41,15.19-45.88,0,0-37.71,23.2-67.84-3.92L137,198.68Z"/><path class="cls-12" d="M67.31,214.93S82,224.27,99.79,290.87l6-.15S80.18,230,111.48,207.44l6.68-3.89s-37,19.55-7.58,86.39c0,0-4.23,5.08-15.56,1.93,0,0-8-56.82-35.59-80.31Z"/><path class="cls-25" d="M38,115l39.4,4.72s18.25-4.67,28-16.34L111,89.68"/><path d="M100.11,96.29s8-7.54,11.69-9.78c0,0,9.25,6.43,12.27,22.68,0,0-5.78-14-12-18.28A95.31,95.31,0,0,0,100.11,96.29Z"/><path class="cls-8" d="M59,117.74l.1-1.17c.11-1.31.53-5.7,1.49-7.11.47-.69,1.39-1,3.19-1a60.82,60.82,0,0,1,9.91,1.25,2,2,0,0,1,1.32,1.36c.67,1.72.78,6-.36,7.74l-.41.64Z"/><path d="M63.82,109.69a59.55,59.55,0,0,1,9.6,1.21c1.05.28,1.3,5.64.25,7.28l-13.32-1.51s.43-5.27,1.28-6.52c.22-.33,1.05-.45,2.18-.45m0-2.42h0c-1.64,0-3.29.18-4.19,1.51-1.06,1.55-1.51,5.48-1.69,7.69l-.19,2.34,2.33.26,13.32,1.51,1.5.17.81-1.27c1.39-2.17,1.24-6.86.46-8.83A3.17,3.17,0,0,0,74,108.55a61.31,61.31,0,0,0-10.21-1.28Z"/><path d="M52.67,79.06S43.18,78.48,36,83.81l1.21,6.31s6-5.9,17.29-4.66Z"/><path class="cls-26" d="M52.52,83.6A23.68,23.68,0,0,0,37,88l.06,6.7s6-5.9,17.29-4.66Z"/><path class="cls-27" d="M101.65,73.45l23.75-.79s5.17-.81,5.88,4.06c.5,3.42-3.12,4.92-3.12,4.92"/><path class="cls-28" d="M101.25,77.86,125,77.07s5.17-.81,5.88,4.06c.5,3.42-3.11,4.91-3.11,4.91"/><g class="cls-26"><path d="M104,72A27.26,27.26,0,1,1,69.41,55.07,27.25,27.25,0,0,1,104,72Z"/></g><path class="cls-8" d="M76.49,99.92a24.24,24.24,0,1,1,7.87-1.32A24.23,24.23,0,0,1,76.49,99.92Z"/><path d="M76.49,48.43v6.06a21.24,21.24,0,1,1-6.89,1.16,21.21,21.21,0,0,1,6.89-1.16V48.43m0,0a27.26,27.26,0,1,0,25.78,18.41A27.24,27.24,0,0,0,76.49,48.43Z"/><g class="cls-29"><path d="M67.63,49.91c-.8.27-1.58.59-2.34.93A22.41,22.41,0,1,1,50,82.12a24.35,24.35,0,0,0,.71,2.42A27.25,27.25,0,1,0,67.63,49.91Z"/></g><path d="M84.33,76.69a2.86,2.86,0,0,1-5.58.94A2.89,2.89,0,0,1,78.69,76a5.29,5.29,0,1,0,7.26,3A5.17,5.17,0,0,0,84.33,76.69Z"/><path class="cls-29" d="M71.76,110.4s.68,4.47.37,6.06l-12-1.43-.42,2.49,15.53,1.71s.84-6.27-.46-8.81Z"/><path class="cls-26" d="M38.49,110.51l20.72,3.13,6-5,9.07.94,1.19,4.08,5.93-.76,1.29,1.26s15.47-4.67,23.25-13.1c0,0-7.34,14.69-28.46,18.74l-40.11-5.22Z"/><path class="cls-26" d="M100.93,95.9l8-1s8.64,1.52,15.05,12.76c0,0-5-13.23-11.79-18.79Z"/><path class="cls-7" d="M111.16,90.89s-1.37,10.93-2.56,13A54.67,54.67,0,0,1,78.32,123.3l-45-3.55S46.43,175.88,58,208.4l-8.53-4.33L26,113.31l40.85,5.18,13.36,1.6,7.57-2.81L97.36,111l6.79-5.11,4.4-7.06Z"/><path class="cls-7" d="M86.6,7.53h0c-53.64,5.52-50,56.55-50,56.55l3,52.42,5.61,1.1L41.27,65.15S34.53,18.8,86.6,7.53Z"/><g class="cls-30"><path class="cls-31" d="M97,5l-.57.22S123.31,7.52,131.12,39a118.56,118.56,0,0,1-1.46,64.12c-2.72,9.47-8.58,54.6-3,92l3-2.33c-5.07-45.57,2.11-80.46,6.5-99.79C142.41,65.65,142.22,8.28,97,5Z"/><path class="cls-31" d="M166.46,133.48s29.89.94,33,48.54c0,0-4.11,25.32-10.89,39.17,0,0-43.15,28.49-49.1,33.52l7.45,19.21,4-4.38-6-16.29,21.87-9.64L184.59,232l10.13-9,11.38-26.54L206,173.8l-8.26-25.34-12.38-13.68-16-4.32"/><path class="cls-31" d="M22.42,260.76s27.9,6.64,43.91-1.42l1.34,6.38S39.65,273.63,22.42,260.76Z"/><path class="cls-31" d="M168.83,340.26l5-9,.95-7.16L169.63,258l-2.21-3.94-2.58,11.13,4.51,61.63s-20.22,29.36-49.68,33.07C119.67,359.92,140.25,362.68,168.83,340.26Z"/></g><path class="cls-22" d="M67.74,210.61S45.1,142.82,47.17,117.14l3.83,0s-1,32.38,21,94.62Z"/><path class="cls-22" d="M95.51,209.4s-21.72-64.48-18.08-89.64l2.78.33S80,145.57,99.35,209.36Z"/><path class="cls-22" d="M53.69,117.46S40.55,62.41,59.22,31c0,0-10.41,35-1.71,86.4Z"/><path class="cls-22" d="M84.33,117.18S74.31,47,78.54,27.6c0,0,7.86,64.54,9.24,89.68Z"/><line class="cls-32" x1="148.28" y1="156.06" x2="137.46" y2="146.96"/><line class="cls-32" x1="148.97" y1="148.77" x2="139.85" y2="135.26"/><line class="cls-32" x1="45.82" y1="10.65" x2="53.59" y2="22.07"/><line class="cls-32" x1="49.22" y1="5.64" x2="57" y2="18.98"/><line class="cls-32" x1="26.68" y1="53.73" x2="36.86" y2="57.28"/><line class="cls-32" x1="37.5" y1="64.74" x2="26.17" y2="61.59"/><line class="cls-32" x1="133.86" y1="45.1" x2="145.89" y2="40.96"/><line class="cls-32" x1="174.16" y1="138.2" x2="177.69" y2="126.1"/><line class="cls-32" x1="178.21" y1="140.66" x2="185.95" y2="129.67"/><line class="cls-32" x1="14.54" y1="193.66" x2="0.29" y2="185.75"/><line class="cls-32" x1="16.4" y1="187.9" x2="6.19" y2="180.52"/><line class="cls-32" x1="38.64" y1="148.24" x2="28.69" y2="149.1"/><line class="cls-32" x1="36.1" y1="142.71" x2="24.98" y2="142.05"/></g></g></g></g></svg>